<svg width="474" height="498" viewBox="0 0 474 498" fill="none" xmlns="http://www.w3.org/2000/svg">
<path d="M317.703 206.848C314.68 202.285 311.099 198.495 307.348 195.887L307.293 195.849L307.226 195.861C289.583 198.916 273.311 207.161 260.174 219.71L260.123 219.759V219.829C260.136 220.41 260.2 220.988 260.315 221.557C262.909 229.394 270.009 257.168 252.444 285.63C252.282 285.891 252.056 286.107 251.788 286.258C251.52 286.408 251.218 286.488 250.911 286.49C250.843 286.489 250.776 286.484 250.708 286.476C246.927 286.022 243.174 285.362 239.465 284.499L239.086 284.443C238.162 284.262 237.184 284.038 236.203 283.807L235.821 283.664L235.436 283.518L235.392 283.508C231.303 282.454 227.238 281.189 223.31 279.748C205.505 273.215 191.657 263.299 183.261 251.06C182.502 250.179 181.605 249.36 180.183 249.317C178.858 249.281 177.409 249.615 176.122 249.906C167.865 252.215 159.893 255.61 153.186 258.629C148.109 260.927 142.741 263.511 135.785 267.003L135.676 267.107C135.629 267.155 135.585 267.204 135.542 267.256C135.217 267.661 135.085 267.977 135.138 268.256C135.196 268.628 135.542 268.863 135.947 269.122L136.214 269.3C136.286 269.348 136.353 269.403 136.416 269.462L136.511 269.527C142.624 271.613 147.866 276.274 151.672 283.01C155.921 290.537 157.742 299.656 156.528 307.405V307.45L156.547 307.565C156.56 308.294 156.479 309.021 156.306 309.728C156.29 309.805 156.271 309.89 156.251 309.979C156.128 310.521 155.972 311.193 156.275 311.673C156.538 312.087 157.145 312.241 158.167 312.142C159.867 311.618 161.678 311.149 163.555 310.748C165.959 310.228 168.391 309.851 170.839 309.617C173.308 309.362 175.792 309.285 178.271 309.388C178.649 309.414 179.003 309.584 179.26 309.863C179.516 310.143 179.655 310.51 179.648 310.889C179.641 311.268 179.489 311.63 179.222 311.9C178.956 312.17 178.595 312.327 178.216 312.338H178.194H178.109C177.421 312.338 176.622 312.338 175.56 312.397C174.346 312.721 173.077 313.231 172.998 314.552C172.933 315.622 173.808 316.535 174.655 317.417C174.983 317.743 175.29 318.09 175.574 318.455L175.606 318.487C177.736 320.155 179.69 322.036 181.438 324.102L181.468 324.132C181.603 324.248 181.743 324.361 181.873 324.476L182.138 324.693L182.358 325.215L182.38 325.253C183.281 326.386 184.125 327.563 184.908 328.78C192.101 339.971 194.146 353.79 190.67 367.695C190.53 368.263 190.367 368.866 190.186 369.491L190.162 369.574L190.277 369.716L190.318 369.769L189.82 370.728C187.073 379.543 182.453 386.251 177.858 392.201C177.312 393.053 176.893 393.98 176.614 394.953C175.918 397.595 176.837 400.214 177.945 402.682C184.169 412.337 193.798 419.763 206.561 424.749C220.15 430.058 233.611 431.171 242.51 431.171H242.609C261.333 431.159 278.422 426.408 287.213 418.772L287.276 418.685L287.266 418.598C287.266 418.549 287.252 418.496 287.242 418.448C282.715 393.864 285.734 368.569 296.215 343.263C296.713 342.049 297.205 340.855 297.67 339.688C302.291 332.274 305.498 325.364 307.477 318.562C310.31 308.801 310.393 298.733 307.728 288.617L307.696 288.495H307.673C303.665 280.705 299.535 272.649 300.521 262.843C301.203 255.988 306.647 247.788 317.177 237.754C317.986 236.765 318.866 235.822 319.722 234.909C320.147 234.456 320.574 234.003 320.993 233.54C322.556 231.846 323.652 229.774 324.172 227.528V227.506C324.793 221.515 322.433 213.992 317.703 206.848Z" fill="#8066FF"/>
<path d="M83.3059 193.036L83.2715 193.055C81.6658 194.105 79.8556 194.804 77.9602 195.104C77.6446 195.165 77.3269 195.216 77.0093 195.266C76.147 195.367 75.2999 195.571 74.4862 195.873C73.4462 196.314 72.7643 197.186 72.1067 198.03C71.9833 198.188 71.8599 198.346 71.7223 198.518L69.2235 202.103C68.6122 202.982 68.2529 204.011 68.1847 205.08C68.1164 206.148 68.3418 207.215 68.8363 208.164C69.3309 209.114 70.0757 209.91 70.9903 210.466C71.9049 211.023 72.9543 211.318 74.0248 211.321C74.3331 211.321 74.6409 211.298 74.9455 211.25C75.7292 211.131 76.4803 210.853 77.1526 210.432C77.8248 210.012 78.404 209.459 78.8545 208.806L87.8583 195.845L87.8826 195.8C88.3116 194.789 88.3318 193.979 87.9373 193.273C87.0349 191.689 84.791 192.5 83.3059 193.036Z" fill="#FF4569"/>
<path d="M226.835 46.0837C226.518 37.8649 224.676 30.4697 221.372 24.1043C217.904 17.3605 212.378 11.7356 205.813 8.26763C199.54 4.88867 191.963 3.3995 183.898 3.95996C176.717 4.45163 169.33 6.50126 161.915 10.0542C154.967 13.4293 148.532 17.7683 142.798 22.9429C139.906 25.5091 137.178 28.2534 134.628 31.1596C132.079 34.0742 129.69 37.1252 127.471 40.299C123.061 46.6611 119.416 53.5202 116.61 60.7347C113.737 68.2513 111.956 75.8004 111.309 83.1754C111.065 85.9484 110.99 88.7336 111.086 91.5156L111.113 92.1651C111.305 96.8137 112.072 101.421 113.395 105.881C115.56 113.169 119.562 119.779 125.015 125.077C125.155 125.211 125.267 125.371 125.345 125.549C125.423 125.727 125.465 125.918 125.469 126.112C125.473 126.306 125.439 126.499 125.368 126.679C125.298 126.86 125.192 127.025 125.057 127.165C124.798 127.427 124.452 127.585 124.083 127.607C123.715 127.63 123.352 127.516 123.062 127.288C119.98 124.778 117.317 121.794 115.171 118.448C114.477 117.687 113.911 117.315 113.441 117.315H113.423C113.299 117.318 113.177 117.349 113.066 117.405C112.955 117.461 112.858 117.541 112.782 117.639C112.264 118.258 112.29 119.191 112.31 119.941V120.208C112.31 120.496 112.31 120.783 112.31 121.081L112.474 124.994C112.84 134.271 110.181 143.416 104.899 151.052L103.582 152.944L103.537 153.025C101.441 155.922 100.907 159.259 102.082 162.176C102.704 163.722 103.857 164.948 105.168 165.452C105.603 165.621 106.065 165.709 106.532 165.709C107.139 165.705 107.737 165.562 108.28 165.29C108.699 165.075 109.089 164.808 109.441 164.495L114.263 157.561C119.573 149.944 127.219 144.262 136.044 141.375L141.479 139.604L141.517 139.586C142.06 139.232 142.669 138.805 143.039 138.234C143.128 138.12 143.19 137.986 143.219 137.843C143.248 137.701 143.243 137.553 143.205 137.413C143.057 136.966 142.507 136.717 142.092 136.565L142.007 136.543C141.291 136.403 140.574 136.197 139.88 135.997C139.601 135.916 139.322 135.835 139.043 135.76C138.681 135.652 138.374 135.41 138.186 135.083C137.997 134.756 137.94 134.369 138.028 134.002C138.116 133.635 138.34 133.315 138.656 133.108C138.972 132.902 139.355 132.824 139.727 132.891L139.812 132.913C143.525 133.69 147.313 134.054 151.106 133.998C154.916 133.913 158.708 133.438 162.422 132.581C163.8 132.257 165.239 131.859 166.823 131.367L168.569 130.797C173.815 128.981 178.833 126.567 183.526 123.602C190.06 119.467 196.034 114.506 201.299 108.843C206.589 103.19 211.201 96.9378 215.041 90.2146C218.907 83.5094 221.918 76.3473 224.007 68.8948C226.17 61.1758 227.114 53.4992 226.835 46.0837ZM216.016 51.4273C215.846 64.7388 210.869 79.0984 202.003 91.8596C189.175 110.323 169.901 122.244 152.901 122.244C146.309 122.244 140.451 120.498 135.49 117.054C126.688 110.938 121.883 100.169 121.958 86.7345C122.033 73.2996 126.992 58.7882 135.919 45.938C144.789 33.1749 156.512 23.5053 168.933 18.71C174.477 16.5653 179.872 15.499 184.938 15.499C191.441 15.499 197.402 17.2573 202.428 20.7496C211.369 26.9632 216.192 37.8609 216.016 51.4273Z" fill="#FF4569"/>
<path d="M375.795 36.3576C375.929 36.6348 376.086 36.9322 376.283 37.2722C376.348 37.381 376.419 37.4858 376.497 37.5858L376.552 37.6707H376.582C376.781 37.8563 377.041 37.9616 377.313 37.9662C377.358 37.9691 377.403 37.9691 377.448 37.9662C377.691 37.9318 377.962 37.7638 378.282 37.4421L378.314 37.3956C378.705 36.5552 379.226 35.7815 379.858 35.1031C382.798 31.9488 388.204 30.929 393.631 32.5072C399.407 34.1825 404.785 33.1587 408.015 29.7676C408.272 29.5005 408.511 29.2166 408.731 28.9178L408.777 28.8531L408.755 28.7762C406.685 21.4193 401.305 14.89 394.361 11.3148L394.321 11.2946H394.276C389.117 11.6078 384.271 13.8776 380.728 17.6408C377.185 21.404 375.211 26.3773 375.208 31.5461C375.206 33.1456 375.398 34.7394 375.779 36.2929L375.795 36.3576Z" fill="#FFEC61"/>
<path d="M409.615 33.5411L409.591 33.2295L409.348 33.4318C405.123 36.8937 399.029 37.8164 392.629 35.965C388.56 34.7895 384.487 35.4289 382.492 37.5574C381.438 38.6905 380.936 40.2525 381.009 42.2272C381.539 44.7382 382.616 46.6988 384.528 48.6048C387.115 50.2727 390.049 51.3291 393.106 51.6937C396.164 52.0583 399.264 51.7216 402.171 50.7091C406.461 47.9776 409.176 42.99 409.621 37.0253C409.708 35.8654 409.706 34.7006 409.615 33.5411V33.5411Z" fill="#FFEC61"/>
<path d="M163.509 316.67C161.305 316.265 158.653 316.638 155.642 317.568C155.478 317.615 155.314 317.668 155.144 317.726C154.942 317.791 154.74 317.858 154.521 317.929L154.003 318.105C153.275 318.368 152.534 318.655 151.778 318.971C151.171 319.213 150.564 319.483 149.942 319.758C149.609 319.909 149.267 320.065 148.931 320.223C148.465 320.439 147.993 320.662 147.514 320.893C147.245 321.024 146.976 321.162 146.705 321.297C146.226 321.534 145.748 321.777 145.262 322.026L145.19 322.064C144.449 322.445 143.7 322.831 142.948 323.238C142.658 323.39 142.371 323.545 142.082 323.703L140.868 324.359L139.773 324.966C138.633 326.059 137.801 327.434 137.361 328.952C137.348 328.976 137.342 329.003 137.341 329.031C137.319 329.126 137.303 329.223 137.295 329.32C137.273 329.437 137.257 329.555 137.248 329.674C137.236 329.779 137.228 329.876 137.222 329.996C137.216 330.115 137.21 330.277 137.21 330.423V330.514C137.21 330.698 137.21 330.874 137.222 331.058C137.242 331.477 137.28 331.898 137.333 332.31C137.333 332.383 137.345 332.448 137.359 332.513C137.371 332.638 137.392 332.756 137.412 332.879C137.497 333.423 137.614 333.962 137.746 334.498C137.805 334.656 137.873 334.813 137.948 334.969C138.709 336.687 139.502 338.399 140.328 340.09C140.935 340.989 141.566 341.887 142.203 342.785C146.315 348.606 150.976 355.209 152.037 365.89C153.19 377.449 150.6 388.824 145.034 399.058C145.019 399.284 144.94 399.5 144.805 399.681C144.589 399.997 144.366 400.317 144.15 400.638C143.421 401.883 142.652 403.112 141.841 404.323C141.048 405.746 140.486 407.286 140.176 408.886C139.569 412.315 140.504 415.71 141.487 418.988C143.292 422.995 145.307 426.903 147.525 430.697C148.043 431.326 148.619 432.028 149.178 432.316C150.207 432.854 150.928 432.061 151.328 431.162C151.466 430.632 151.61 430.1 151.755 429.582C151.841 428.938 152.023 428.311 152.294 427.721C152.425 427.282 152.563 426.849 152.698 426.422C152.797 426.1 152.901 425.786 153.006 425.471C153.131 425.097 153.261 424.724 153.386 424.356C153.512 423.988 153.655 423.601 153.791 423.235C153.967 422.749 154.145 422.278 154.329 421.819C154.473 421.438 154.624 421.064 154.774 420.698C154.976 420.186 155.179 419.686 155.403 419.196C155.541 418.869 155.685 418.547 155.822 418.233C156.354 417.053 156.9 415.91 157.461 414.804L157.973 413.82C158.327 413.139 158.693 412.469 159.062 411.813C159.246 411.486 159.436 411.158 159.618 410.836C159.8 410.514 159.992 410.193 160.182 409.879C160.209 409.677 160.235 409.486 160.255 409.288C160.47 409.132 160.67 408.957 160.852 408.764L160.879 408.738C161.212 408.2 161.548 407.67 161.89 407.146C160.733 405.531 159.686 403.842 158.756 402.087C157.791 400.332 156.924 398.524 156.16 396.673C156.013 396.298 156.008 395.883 156.145 395.505C156.282 395.127 156.553 394.812 156.905 394.619C157.258 394.426 157.67 394.368 158.062 394.456C158.454 394.544 158.801 394.773 159.037 395.099C160.188 396.736 161.244 398.44 162.198 400.199C162.867 401.413 163.503 402.638 164.073 403.904C166.501 400.464 168.984 397.34 171.384 394.332C177.947 386.097 184.143 378.315 187.026 366.764C190.245 353.881 188.378 341.116 181.749 330.803C176.903 323.278 169.921 317.864 163.509 316.67ZM154.711 392.885C154.481 392.698 154.231 392.537 153.965 392.406C153.965 392.321 153.965 392.236 153.953 392.151C154.387 392.024 154.839 391.976 155.29 392.007C155.096 392.302 154.908 392.592 154.709 392.887L154.711 392.885ZM163.95 323.507C163.859 323.46 163.76 323.422 163.661 323.381C164.056 323.263 164.463 323.19 164.875 323.165C164.901 323.177 164.927 323.197 164.96 323.218C164.612 323.272 164.272 323.37 163.948 323.509L163.95 323.507Z" fill="#FFEC61"/>
<path d="M384.702 358.491V358.207C383.137 335.157 375.338 312.966 362.137 294.005L362.03 293.849L361.893 293.979C360.553 295.235 359.151 296.407 357.955 297.386C356.19 298.845 354.339 300.196 352.411 301.433C352.078 301.642 351.675 301.71 351.291 301.623C350.907 301.536 350.574 301.3 350.364 300.967C350.187 300.683 350.112 300.349 350.148 300.017C350.185 299.685 350.332 299.375 350.566 299.136C352.185 297.515 353.901 295.993 355.705 294.58C357.312 293.295 358.688 292.263 360.035 291.342L360.175 291.247L360.074 291.112C348.826 275.902 334.352 263.37 317.691 254.412C316.327 253.925 314.919 253.419 313.422 253.231C308.831 252.666 306.433 256.521 304.853 259.962C304.49 261.006 304.245 262.087 304.124 263.186C303.248 271.945 306.987 279.231 310.947 286.946L310.967 286.986C314.346 293.56 317.847 300.356 318.488 308.504V308.569L318.508 308.589V308.613V308.642C319.097 316.553 316.847 324.515 311.629 332.985C310.743 334.415 309.83 335.969 308.76 337.875L308.689 338L308.806 338.085C309.743 338.775 310.694 339.55 311.797 340.527C313.149 341.718 314.428 342.99 315.625 344.335C315.753 344.483 315.851 344.655 315.912 344.841C315.974 345.027 315.998 345.223 315.984 345.418C315.97 345.614 315.917 345.804 315.829 345.979C315.741 346.154 315.62 346.31 315.471 346.438C315.224 346.65 314.915 346.776 314.59 346.796C314.265 346.816 313.942 346.73 313.671 346.551C312.187 345.532 310.768 344.422 309.422 343.227C308.566 342.474 307.862 341.81 307.206 341.161L307.048 341.003L306.945 341.205C303.066 348.482 299.907 356.12 297.512 364.01C295.825 369.628 294.607 375.376 293.87 381.195C293.862 381.223 293.859 381.252 293.86 381.281V381.326C293.777 382.319 293.725 383.323 293.696 384.395C293.652 384.543 293.619 384.693 293.587 384.857C293.528 385.178 293.476 385.494 293.421 385.838C292.175 402.692 295.724 418.499 303.685 431.553C310.029 441.953 314.207 453.073 316.08 464.602L316.143 464.985L316.374 464.675C316.793 464.113 317.221 463.552 317.65 463.008C318.895 461.432 320.396 459.587 322.084 457.834C322.339 457.57 322.683 457.409 323.049 457.383C323.416 457.357 323.779 457.468 324.069 457.695C324.358 457.921 324.553 458.247 324.616 458.609C324.68 458.972 324.606 459.344 324.41 459.655C323.196 461.574 321.887 463.432 320.487 465.22C319.103 466.998 317.932 468.39 316.799 469.6L316.748 469.655V469.728C316.894 471.205 316.995 472.623 317.05 473.94V473.983C317.304 474.792 317.624 475.704 318.223 476.394C318.684 476.921 319.312 477.105 319.977 477.105C320.74 477.07 321.492 476.91 322.203 476.631C343.719 463.991 360.899 445.563 371.884 423.339L371.904 423.296L371.756 423.225L371.926 423.243C372.707 421.38 373.444 419.46 374.105 417.554C375.576 414.505 376.948 411.332 378.166 408.151C378.189 408.118 378.204 408.08 378.211 408.04C383.887 393.263 386.614 377.517 386.237 361.692C386.191 359.956 385.391 358.996 384.702 358.491Z" fill="#FFEC61"/>
<path d="M311.323 480.651C308.596 460.835 299.726 443.141 289.269 423.713C289.056 423.311 288.783 422.943 288.46 422.624L288.371 422.539L287.966 422.77C286.045 424.209 284.004 425.48 281.866 426.57L281.777 426.616V426.715C281.776 426.72 281.776 426.725 281.777 426.729L281.694 426.774C281.638 426.766 281.582 426.761 281.526 426.762L281.451 426.78C271.29 431.917 257.499 434.754 242.615 434.768H242.516C231.185 434.768 192.801 432.585 174.813 404.467C174.016 403.601 173.144 402.755 171.999 402.755H171.97C169.947 402.775 168.073 405.045 166.71 406.704L166.633 406.8C161.121 414.751 157.595 422.272 155.197 431.209C154.461 437.056 155.92 442.968 159.292 447.8C165.815 455.653 173.247 462.702 181.433 468.801L181.502 468.831C182.514 469.015 183.368 468.807 184.066 468.204C185.059 467.342 185.264 465.691 185.428 464.359C185.452 464.169 185.474 463.987 185.496 463.817C185.648 462.755 185.854 461.652 186.13 460.414C186.206 459.918 186.285 459.42 186.368 458.927C186.419 458.656 186.465 458.382 186.512 458.117C186.597 457.624 186.684 457.106 186.795 456.62C187.311 453.953 188.009 451.064 189.001 447.527C189.895 444.371 190.852 441.457 191.926 438.639C192.065 438.28 192.337 437.99 192.686 437.83C193.035 437.669 193.432 437.651 193.794 437.779C194.156 437.907 194.454 438.171 194.625 438.515C194.795 438.86 194.824 439.257 194.707 439.622L194.692 439.663C193.883 442.091 193.092 444.873 192.177 448.387C191.311 451.827 190.706 454.639 190.273 457.266C189.933 459.394 189.553 461.871 189.341 464.335C189.379 465.072 189.399 465.822 189.418 466.551C189.442 467.536 189.468 468.554 189.545 469.565C189.77 472.443 190.87 474.599 193.138 476.578C197.631 479.218 202.28 481.583 207.059 483.66C208.309 483.996 210.051 484.251 210.727 482.573C211.061 481.742 211.132 480.698 211.187 479.686C211.213 479.253 211.237 478.846 211.284 478.472C211.314 478.239 211.34 478.007 211.369 477.772C211.397 477.537 211.425 477.307 211.456 477.058C211.506 475.31 211.581 473.729 211.684 472.226C211.824 470.178 211.982 468.457 212.176 466.804C212.197 466.611 212.256 466.425 212.349 466.256C212.443 466.086 212.57 465.938 212.722 465.818C212.949 465.636 213.225 465.526 213.515 465.5C213.805 465.475 214.096 465.536 214.351 465.676C214.606 465.816 214.814 466.028 214.949 466.286C215.084 466.544 215.139 466.836 215.108 467.125C214.968 468.701 214.865 470.423 214.792 472.386C214.78 472.772 214.772 473.161 214.768 473.557V473.64C214.774 473.688 214.777 473.736 214.778 473.784V473.986C214.713 477.426 214.644 480.975 216.101 484.18C217.02 486.203 218.44 487.62 220.595 488.662C232.572 492.33 245.029 494.197 257.555 494.202C260.467 494.202 263.423 494.096 266.644 493.874C268.402 493.346 269.347 492.239 269.533 490.487C269.558 490.232 269.574 489.959 269.58 489.609C269.473 487.822 269.343 485.902 269.106 483.967C268.666 480.22 267.995 476.504 267.097 472.839V472.799C267.004 472.419 267.066 472.019 267.268 471.684C267.47 471.35 267.797 471.11 268.176 471.016C268.544 470.928 268.933 470.984 269.262 471.172C269.591 471.36 269.836 471.666 269.948 472.028C270.48 473.873 271.031 475.781 271.433 477.73C271.838 479.506 272.186 481.398 272.508 483.514C272.672 484.562 272.815 485.641 272.949 486.83C273.214 487.996 273.671 489.691 274.584 490.93C276.306 493.283 279.504 492.403 281.839 491.759L281.936 491.733C282.143 491.673 282.361 491.673 282.568 491.733L282.606 491.745H282.647C290.105 490.26 297.413 488.097 304.478 485.283C304.543 485.24 304.608 485.192 304.669 485.141L304.699 485.159L304.814 485.147C305.687 484.806 306.6 484.429 307.554 484.016C309.227 482.903 310.417 481.871 311.295 480.779L311.339 480.724L311.323 480.651Z" fill="#1DFFC4"/>
<path d="M200.932 169.37L200.944 169.477L201.048 169.509C201.114 169.531 201.183 169.55 201.25 169.566C201.266 170.515 201.274 171.541 201.274 172.71C202.268 183.636 202.264 193.393 201.262 202.566L201.25 202.674L201.343 202.726C201.42 202.771 201.499 202.811 201.578 202.848C201.442 203.076 201.305 203.303 201.173 203.527L201.149 203.594C200.805 206.498 200.386 209.203 199.862 211.9C199.862 211.922 199.862 211.944 199.862 211.965C199.862 211.985 199.862 212.021 199.862 212.038C199.862 212.135 199.842 212.252 199.828 212.379C199.739 213.189 199.607 214.389 200.214 214.903C200.376 215.044 200.584 215.121 200.799 215.119C201.45 215.119 202.32 214.478 203.429 213.179C221.032 189.882 222.722 163.546 222.232 143.206C222.2 141.92 221.776 140.675 221.016 139.637C220.257 138.598 219.199 137.817 217.983 137.397C216.971 137.051 215.933 136.749 214.893 136.499C213.973 136.32 212.825 136.175 212.109 136.64C210.741 137.539 211.138 139.592 211.401 140.95L211.435 141.126C211.461 141.274 211.461 141.426 211.435 141.575V141.601V141.628C211.907 144.408 212.265 147.192 212.502 149.901C212.738 152.61 212.906 155.417 212.967 158.27C213.04 160.853 213.006 163.593 212.862 166.644C212.852 167.035 212.687 167.406 212.403 167.676C212.119 167.945 211.74 168.091 211.348 168.081C210.957 168.07 210.586 167.905 210.317 167.621C210.047 167.338 209.902 166.958 209.912 166.567C209.912 164.123 209.849 161.45 209.71 158.395C209.566 155.678 209.333 152.932 209.02 150.261C208.659 147.297 208.267 144.663 207.818 142.208C207.597 140.972 207.346 139.736 207.126 138.678C206.957 137.992 206.663 137.343 206.26 136.764C205.738 136.068 204.874 135.724 203.524 135.683C202.059 135.811 200.603 136.026 199.164 136.329C198.179 136.547 197.319 137.145 196.773 137.993C196.227 138.842 196.037 139.872 196.246 140.859C198.529 151.85 200.018 160.91 200.932 169.37Z" fill="#1DFFC4"/>
<path d="M170.558 228.008L187.125 234.106C187.759 234.338 188.435 234.427 189.107 234.369C189.779 234.31 190.43 234.104 191.014 233.766C191.56 233.462 192.031 233.038 192.392 232.528C192.753 232.017 192.995 231.432 193.1 230.816L193.12 230.685C193.252 229.683 193.042 228.665 192.523 227.798C192.005 226.93 191.208 226.263 190.263 225.905L173.755 219.532C173.22 219.326 172.651 219.22 172.078 219.22C171.392 219.215 170.715 219.373 170.102 219.68C169.49 219.987 168.958 220.436 168.553 220.989C168.317 221.318 168.114 221.669 167.946 222.037C167.699 222.576 167.568 223.16 167.561 223.752C167.554 224.345 167.67 224.932 167.903 225.476C168.149 226.057 168.512 226.582 168.968 227.017C169.425 227.453 169.966 227.79 170.558 228.008Z" fill="#1DFFC4"/>
<path d="M208.03 184.534C208.055 184.917 208.212 185.279 208.474 185.559C208.736 185.839 209.087 186.02 209.467 186.07C209.847 186.121 210.233 186.038 210.559 185.836C210.885 185.635 211.131 185.326 211.255 184.963C211.693 183.59 211.994 182.176 212.152 180.743C212.348 179.315 212.433 177.875 212.405 176.435C212.39 176.046 212.239 175.675 211.977 175.386C211.716 175.098 211.361 174.911 210.976 174.859C210.59 174.806 210.198 174.892 209.869 175.1C209.54 175.308 209.295 175.625 209.177 175.996L209.143 176.105C208.74 177.45 208.445 178.825 208.261 180.217C208.039 181.604 207.959 183.011 208.022 184.415L208.03 184.534Z" fill="black"/>
<path d="M231.165 166.515C231.274 167.373 231.558 168.199 232.001 168.943C232.389 169.616 232.873 170.229 233.437 170.764C233.999 171.3 234.63 171.758 235.313 172.127C236.071 172.541 236.903 172.804 237.761 172.9C238.008 172.924 238.256 172.92 238.502 172.888C238.909 172.833 239.301 172.698 239.656 172.492C240.012 172.285 240.323 172.01 240.572 171.683C240.82 171.356 241.003 170.983 241.107 170.586C241.212 170.189 241.238 169.775 241.182 169.367C241.06 168.511 240.771 167.686 240.333 166.939C239.944 166.268 239.468 165.651 238.916 165.106C238.366 164.559 237.739 164.095 237.055 163.728C236.295 163.308 235.457 163.05 234.593 162.97C234.377 162.952 234.16 162.955 233.945 162.98C233.53 163.028 233.128 163.158 232.764 163.362C232.399 163.566 232.078 163.84 231.82 164.169C231.562 164.497 231.371 164.874 231.258 165.276C231.146 165.679 231.114 166.1 231.165 166.515V166.515Z" fill="black"/>
<path d="M288.112 328.681C287.739 328.646 287.47 328.626 287.163 328.616C286.855 328.606 286.566 328.602 286.274 328.616C285.684 328.616 285.107 328.66 284.524 328.691C283.368 328.802 282.22 328.979 281.085 329.221C278.817 329.7 276.615 330.451 274.527 331.457C272.459 332.485 270.444 333.658 268.671 335.135C267.745 335.821 266.939 336.647 266.09 337.417C265.661 337.8 265.313 338.259 264.922 338.676C264.532 339.093 264.165 339.532 263.797 339.965C263.521 340.282 263.378 340.693 263.397 341.113C263.416 341.533 263.595 341.929 263.899 342.22C264.202 342.511 264.605 342.675 265.026 342.676C265.446 342.678 265.851 342.518 266.156 342.229L266.237 342.154C267.769 340.738 269.272 339.321 270.968 338.152C271.393 337.863 271.797 337.545 272.222 337.264L273.529 336.454C273.96 336.179 274.404 335.926 274.861 335.698C275.316 335.465 275.751 335.196 276.222 334.997C278.061 334.109 279.982 333.4 281.957 332.881C282.941 332.618 283.938 332.406 284.945 332.248C285.445 332.179 285.957 332.09 286.448 332.045C286.699 332.017 286.948 331.997 287.193 331.983C287.438 331.969 287.705 331.952 287.877 331.942H288.049C288.463 331.922 288.854 331.746 289.142 331.448C289.431 331.151 289.596 330.755 289.604 330.341C289.612 329.926 289.462 329.524 289.185 329.216C288.908 328.908 288.524 328.717 288.112 328.681V328.681Z" fill="black"/>
<path d="M135.397 117.186C140.493 120.728 146.492 122.406 152.9 122.406C169.492 122.406 188.784 111.164 202.134 91.9587C211.021 79.1733 216.01 64.7813 216.182 51.4354C216.358 37.8042 211.508 26.858 202.525 20.614C193.541 14.37 181.591 13.6375 168.875 18.5522C156.423 23.3637 144.674 33.0554 135.785 45.8409C117.28 72.47 117.112 104.475 135.397 117.186ZM139.016 48.0848C147.46 35.9448 158.568 26.7528 170.293 22.2205C175.388 20.2518 180.321 19.2725 184.924 19.2725C190.674 19.2725 195.904 20.8021 200.279 23.8432C208.156 29.3183 212.407 39.0991 212.249 51.3848C212.087 63.9537 207.348 77.5667 198.895 89.7148C181.634 114.555 154.151 125.439 137.64 113.96C121.13 102.482 121.747 72.9333 139.016 48.0908V48.0848Z" fill="black"/>
<path d="M378.886 48.9204C378.957 49.0001 379.034 49.0738 379.117 49.1409C383.666 53.4433 389.714 55.8017 395.974 55.7145C402.235 55.6274 408.215 53.1016 412.642 48.6742C417.07 44.2468 419.595 38.267 419.683 32.0063C419.77 25.7456 417.411 19.6979 413.109 15.1489C413.053 15.0815 412.992 15.0179 412.927 14.9587C410.717 12.6378 408.066 10.782 405.128 9.5005C402.191 8.21901 399.027 7.53765 395.823 7.49649C392.618 7.45533 389.438 8.05519 386.469 9.26081C383.499 10.4664 380.801 12.2535 378.533 14.5169C376.264 16.7803 374.471 19.4745 373.258 22.4409C372.046 25.4074 371.438 28.5863 371.472 31.7908C371.506 34.9953 372.18 38.1607 373.454 41.101C374.729 44.0413 376.579 46.6971 378.895 48.9123L378.886 48.9204ZM395.504 51.6701C391.642 51.6732 387.861 50.5579 384.619 48.459C382.856 46.6987 381.709 44.7665 381.165 42.1867C381.106 40.5094 381.468 38.8907 382.611 37.6646C384.562 35.5745 388.57 34.9513 392.582 36.1147C399.737 38.1886 406.529 36.7824 410.748 32.3533C411.989 31.0504 412.96 29.5149 413.605 27.8352C413.941 27.473 414.331 27.2424 414.762 27.3779C415.061 27.473 415.221 27.8049 415.337 28.1367C415.836 31.0255 415.697 33.9885 414.931 36.8181C414.164 39.6477 412.788 42.2755 410.899 44.5173C409.01 46.7591 406.654 48.5607 403.995 49.796C401.336 51.0312 398.44 51.6702 395.508 51.6681L395.504 51.6701ZM395.504 11.4058C399.028 11.4029 402.49 12.3313 405.54 14.0968C408.026 15.9202 409.822 18.5308 410.636 21.5042C410.816 24.7051 409.886 27.5459 407.899 29.634C404.714 32.9806 399.401 33.9882 393.679 32.3311C388.196 30.7407 382.723 31.7787 379.738 34.9735C379.096 35.6654 378.566 36.4541 378.168 37.3105C377.972 37.5388 377.713 37.7036 377.424 37.7839C376.788 37.873 376.335 37.2356 376.021 36.5983C375.249 33.6225 375.168 30.5093 375.786 27.4975C376.403 24.4857 377.702 21.6553 379.583 19.2233C381.464 16.7914 383.876 14.8225 386.636 13.4678C389.396 12.113 392.43 11.4083 395.504 11.4078V11.4058Z" fill="black"/>
<path d="M470.896 78.6654C470.68 76.1499 469.601 73.7864 467.841 71.9757C466.082 70.165 463.751 69.0186 461.242 68.7308L459.302 68.5123L459.249 67.8669L459.1 65.9912L459.021 65.0544L458.98 64.583L458.903 63.976C458.642 62.342 457.913 60.8187 456.804 59.5903C455.695 58.3619 454.254 57.481 452.655 57.0542C452.256 56.9494 451.851 56.8717 451.441 56.8215L450.498 56.7142L449.564 56.609L449.096 56.5564L448.489 56.518C446.841 56.4438 445.206 56.8496 443.783 57.686C442.361 58.5225 441.211 59.7537 440.475 61.2303C440.112 61.9668 439.858 62.7519 439.72 63.5612C439.698 63.6664 439.69 63.7635 439.676 63.8769C437.682 63.5801 435.645 63.8999 433.838 64.7934C432.213 65.602 430.843 66.8439 429.879 68.382C428.915 69.9202 428.394 71.6948 428.375 73.5099C428.389 74.0987 428.432 74.7239 428.474 75.1468L428.598 76.5631L429.587 87.9626L430.747 100.936L427.776 95.2203C426.714 93.2435 424.943 91.7422 422.819 91.0184C420.695 90.2947 418.375 90.4021 416.327 91.3191C414.279 92.2362 412.654 93.8948 411.779 95.9613C410.904 98.0278 410.845 100.349 411.612 102.458L420.952 127.023C321.482 173.529 298.526 185.722 278.847 196.828C267.605 203.175 261.816 209.533 256.71 215.143C253.041 219.174 249.715 222.82 244.859 226.106C244.033 226.399 243.212 226.367 242.655 225.414C242.378 224.92 242.238 224.361 242.251 223.795C242.433 223.028 242.612 222.259 242.787 221.49C243.558 219.265 245.112 217.527 247.313 216.634C247.461 216.576 247.598 216.494 247.718 216.39C248.653 215.928 249.569 215.435 250.455 214.882C254.688 212.252 258.399 208.61 260.774 204.084C261.999 201.815 262.817 199.35 263.192 196.8C263.308 196.162 263.334 195.511 263.395 194.863C263.455 194.216 263.395 193.548 263.378 192.891C263.295 191.602 263.097 190.323 262.788 189.069C262.172 186.645 261.29 184.297 260.157 182.068C259.403 180.595 258.577 179.172 257.707 177.786L259.441 170.976C259.545 170.567 259.515 170.135 259.354 169.744C259.194 169.354 258.912 169.025 258.551 168.807L240.855 158.13C239.641 156.978 238.409 155.842 237.16 154.722C233.615 151.56 230.01 148.543 226.188 145.64C226.131 145.601 226.072 145.565 226.012 145.533C226.012 144.723 225.991 143.914 225.971 143.105C225.915 141.049 225.235 139.06 224.02 137.401C222.805 135.742 221.113 134.493 219.171 133.819C210.824 130.962 203.243 131.594 198.351 132.634C196.733 132.985 195.276 133.857 194.201 135.115C193.125 136.373 192.492 137.948 192.396 139.6H192.382C174.912 144.051 161.222 156.701 156.668 172.601C152.621 186.705 156.263 201.71 166.649 214.387C167.015 215.014 167.424 215.75 167.309 216.309C167.22 216.738 166.918 217.138 166.58 217.539C166.167 217.911 165.795 218.326 165.469 218.777C165.091 219.304 164.764 219.867 164.494 220.457C164.031 221.466 163.784 222.561 163.769 223.671C163.753 224.782 163.97 225.883 164.405 226.905C164.635 227.456 164.924 227.98 165.267 228.469C165.716 229.294 166.117 230.148 166.206 231.063C166.266 231.735 166.198 232.412 166.004 233.058C155.515 250.639 134.152 250.301 111.63 249.941C108.656 249.892 105.601 249.845 102.576 249.841L101.985 240.939L101.394 232.036L101.251 229.831C101.222 229.287 101.271 228.742 101.398 228.212C101.663 227.147 102.237 226.185 103.049 225.448L109.917 219.961L110.795 219.257L111.709 218.494C112.3 217.964 112.887 217.426 113.441 216.855C114.554 215.721 115.579 214.503 116.507 213.213C118.362 210.623 119.803 207.759 120.776 204.725C121.025 203.97 121.227 203.202 121.421 202.429L121.672 201.263L121.887 200.16L122.73 195.784L123.574 191.408L123.777 190.313C123.839 189.896 123.928 189.449 123.957 189.012C124.034 188.131 124.022 187.245 123.92 186.367C123.709 184.61 123.136 182.915 122.236 181.39C121.336 179.866 120.129 178.545 118.692 177.511C118.344 177.238 117.955 177.03 117.585 176.793L116.612 176.239L114.684 175.134L110.807 172.932L108.929 171.866L117.367 159.726C122.21 152.787 129.178 147.611 137.22 144.978L167.974 134.977C168.581 134.787 169.188 134.592 169.795 134.386L170.696 134.093C170.81 134.054 170.922 134.006 171.027 133.947C176.101 132.091 180.964 129.702 185.535 126.821C192.347 122.514 198.576 117.345 204.064 111.443C209.555 105.571 214.342 99.0783 218.327 92.0963C222.349 85.119 225.484 77.6667 227.659 69.9124C229.811 62.1509 230.914 54.0475 230.621 45.9339C230.327 37.8204 228.531 29.6724 224.721 22.35C220.961 15.0235 214.916 8.79362 207.581 4.92299C203.921 2.97904 199.984 1.60749 195.908 0.856087C191.864 0.112703 187.741 -0.113698 183.639 0.18232C175.465 0.74683 167.555 3.14852 160.275 6.6408C153.01 10.1684 146.277 14.7021 140.277 20.1081C137.271 22.7793 134.433 25.6336 131.779 28.6547C129.137 31.6809 126.662 34.848 124.363 38.1421C119.781 44.7566 115.993 51.8873 113.077 59.3871C110.204 66.8997 108.243 74.7948 107.539 82.8577C107.337 85.1987 107.244 87.5559 107.266 89.9171C107.266 89.9434 107.266 89.9698 107.266 89.9961V90.1438C107.282 91.4117 107.335 92.679 107.424 93.9456L108.721 125.168C109.058 133.623 106.635 141.959 101.817 148.916L96.7812 156.163L90.3996 150.7C88.7525 149.29 86.8362 148.229 84.7667 147.582C82.6973 146.935 80.5179 146.715 78.3609 146.936C76.2039 147.156 74.1142 147.813 72.2186 148.865C70.3231 149.918 68.6611 151.345 67.3336 153.059L62.0163 159.922L61.9657 159.989L53.2836 171.196C52.9756 171.417 52.7387 171.723 52.6017 172.077L50.3579 174.972C47.7966 178.268 46.2675 182.249 45.9629 186.412C45.6583 190.575 46.5919 194.736 48.6461 198.37L59.4386 217.529C60.9859 220.272 61.7233 223.397 61.5651 226.543C61.1159 235.532 60.6485 243.828 60.1993 251.851C60.0456 254.592 59.8958 257.266 59.7502 259.875C42.8998 270.801 42.9565 288.625 48.5632 313.718C50.0018 320.152 50.5379 325.637 50.2263 330.465C50.2263 330.518 50.2263 330.572 50.2162 330.625C49.0305 347.896 36.9168 356.694 16.2485 370.137C2.11551 379.327 -3.32119 400.266 4.13277 416.811C7.64528 424.609 15.5059 434.942 33.0078 439.877C39.535 441.72 46.7941 442.64 54.7849 442.639C66.8278 442.639 80.4812 440.543 95.6198 436.356C111.483 431.968 124.974 423.696 134.814 413.155C138.595 423.092 143.566 432.536 149.617 441.279C149.725 441.534 149.885 441.764 150.088 441.953C157.861 453.071 167.303 462.923 178.079 471.164C201.08 488.704 228.557 497.977 257.559 497.977C278.299 497.977 298.137 493.277 316.527 484.004C338.56 472.911 357.02 455.834 369.791 434.731C382.562 413.627 389.127 389.352 388.734 364.688C388.34 340.024 381.003 315.97 367.565 295.285C354.127 274.6 335.131 258.121 312.756 247.737C336.591 220.25 404.714 181.133 444.517 158.28C446.031 157.47 471.335 143.59 473.833 114.029C473.843 113.919 473.843 113.809 473.833 113.699L470.896 78.6654ZM244.412 167.443C247.567 170.778 250.475 174.338 253.112 178.096C254.385 179.958 255.545 181.895 256.588 183.895C257.587 185.846 258.368 187.901 258.917 190.024C259.427 192.12 259.601 194.153 259.271 196.241C258.966 198.341 258.294 200.371 257.286 202.238C255.299 206.038 252.1 209.219 248.396 211.534C244.642 213.85 240.414 215.29 236.027 215.748C231.646 216.246 227.181 215.775 222.861 214.601H222.841C222.432 214.484 221.994 214.53 221.618 214.73C221.242 214.93 220.959 215.268 220.828 215.672C220.697 216.077 220.728 216.517 220.915 216.899C221.101 217.281 221.429 217.576 221.829 217.721C224.577 218.751 227.452 219.403 230.376 219.657C232.251 220.034 234.182 220.281 235.709 221.308C237.328 222.393 237.579 224.748 237.445 227.176C237.33 227.71 237.213 228.246 237.097 228.781C236.933 229.543 236.776 230.308 236.612 231.071C236.431 231.404 236.351 231.782 236.381 232.16C235.726 235.257 235.08 238.357 234.469 241.467C234.392 241.882 234.479 242.312 234.711 242.665C234.943 243.018 235.302 243.268 235.714 243.363C236.126 243.458 236.559 243.391 236.922 243.175C237.285 242.958 237.551 242.611 237.664 242.203C237.712 242.019 237.759 241.833 237.808 241.649C237.808 241.633 237.824 241.621 237.83 241.602C239.155 238.163 240.567 234.65 243.465 232.206C244.725 231.144 246.036 230.264 247.259 229.266C249.545 227.695 251.7 225.941 253.701 224.02C254.804 223.285 256.117 222.806 256.96 224.044C257.059 224.191 257.149 224.343 257.232 224.499C259.811 233.452 263.994 255.456 252.084 278.603C251.425 279.531 250.576 280.309 249.593 280.883C248.26 281.62 246.761 281.82 245.235 281.83C233.678 279.682 207.664 273.059 191.317 255.179C190.188 253.315 189.191 250.972 190.81 249.327C192.175 247.939 194.686 248.113 196.803 248.528L197.588 248.731C199.559 249.322 201.422 250.227 203.105 251.412L203.16 251.45C203.481 251.676 203.872 251.779 204.263 251.741C204.653 251.703 205.017 251.526 205.288 251.243C205.56 250.959 205.72 250.587 205.74 250.195C205.761 249.804 205.64 249.417 205.4 249.107C205.329 248.911 205.211 248.735 205.056 248.595C199.998 243.903 197.733 237.264 199.065 230.456C200.392 223.676 204.542 217.948 208.655 212.574C208.775 212.424 208.857 212.249 208.896 212.062C214.027 204.575 217.957 196.385 220.763 187.355C223.074 179.919 224.607 171.838 225.405 162.955C225.904 160.647 226.564 158.302 227.618 156.24C228.719 154.089 230.141 154.32 231.594 155.168C232.569 156.015 233.535 156.869 234.491 157.729C237.945 160.827 241.261 164.07 244.412 167.443ZM172.078 219.382C172.631 219.383 173.18 219.486 173.696 219.686L190.205 226.057C191.115 226.401 191.882 227.043 192.382 227.878C192.882 228.714 193.085 229.693 192.958 230.658L192.936 230.788C192.835 231.379 192.602 231.941 192.255 232.431C191.909 232.921 191.457 233.327 190.933 233.62C190.37 233.947 189.742 234.145 189.094 234.201C188.445 234.257 187.792 234.169 187.182 233.944L170.611 227.85C170.04 227.639 169.518 227.313 169.078 226.891C168.639 226.47 168.29 225.963 168.055 225.402C167.831 224.879 167.718 224.315 167.725 223.747C167.731 223.178 167.856 222.617 168.092 222.099C168.257 221.741 168.456 221.398 168.686 221.078C169.076 220.545 169.587 220.114 170.176 219.819C170.766 219.524 171.418 219.374 172.078 219.382V219.382ZM199.19 136.494C200.623 136.192 202.072 135.975 203.53 135.847C204.564 135.885 205.554 136.106 206.12 136.858C206.509 137.423 206.792 138.054 206.956 138.72C207.201 139.887 207.433 141.057 207.646 142.232C208.129 144.897 208.516 147.582 208.842 150.279C209.167 152.976 209.388 155.688 209.529 158.403C209.671 161.118 209.748 163.842 209.744 166.567V166.577C209.739 166.792 209.777 167.007 209.854 167.207C209.932 167.408 210.049 167.591 210.197 167.747C210.346 167.903 210.524 168.028 210.721 168.114C210.918 168.201 211.13 168.249 211.345 168.254C211.561 168.258 211.775 168.221 211.975 168.143C212.176 168.065 212.36 167.949 212.515 167.8C212.671 167.651 212.796 167.473 212.883 167.276C212.97 167.079 213.017 166.867 213.022 166.652C213.151 163.862 213.202 161.064 213.127 158.267C213.052 155.471 212.906 152.675 212.658 149.885C212.409 147.095 212.051 144.349 211.589 141.589C211.62 141.423 211.62 141.253 211.589 141.087C211.344 139.811 210.853 137.648 212.196 136.765C212.813 136.361 213.845 136.45 214.853 136.646C215.864 136.889 216.876 137.182 217.924 137.536C219.11 137.946 220.142 138.708 220.883 139.721C221.623 140.733 222.037 141.948 222.068 143.202C222.57 164.186 220.603 190.155 203.296 213.073C202.237 214.308 201.025 215.372 200.313 214.767C199.678 214.229 199.969 212.713 200.02 212.042C200.02 211.991 200.02 211.944 200.02 211.894C204.688 187.923 200.983 162.868 196.408 140.814C196.21 139.873 196.391 138.891 196.912 138.083C197.433 137.274 198.251 136.703 199.19 136.494V136.494ZM63.7301 168.793C62.5848 168.451 61.729 167.781 62.3643 166.245C62.4974 165.928 62.6466 165.618 62.8115 165.317C63.9227 164.084 65.2687 163.086 66.7706 162.38C68.2725 161.674 69.9002 161.274 71.5583 161.205C71.7875 161.195 72.01 161.126 72.2038 161.003C76.8574 161.193 81.3088 164.536 89.5174 172.837C90.26 173.782 91.1219 174.61 91.9454 175.53C93.6633 177.43 93.9384 179.28 93.1594 181.248C92.6248 182.155 91.8897 182.927 91.0107 183.506C89.9262 183.854 88.8497 184.192 87.6661 183.956C86.1061 183.642 84.7889 182.742 83.579 181.714C81.6871 179.933 79.7731 178.165 77.7619 176.453C75.6576 174.654 73.4603 172.9 70.9493 171.413C70.3423 171.029 69.6503 170.715 69.0029 170.365C68.3554 170.015 67.6068 169.78 66.9107 169.493C65.8737 169.165 64.8091 168.93 63.7301 168.793V168.793ZM69.4945 202.299L71.9913 198.712C72.7764 197.749 73.4684 196.666 74.6217 196.183C75.6981 195.729 76.8797 195.646 78.029 195.424C79.9666 195.12 81.8168 194.405 83.4555 193.328C85.0479 192.755 86.9215 192.144 87.66 193.441C88.0424 194.113 87.9251 194.894 87.5872 195.677L78.5894 208.626C77.7456 209.818 76.4647 210.629 75.0259 210.881C73.5871 211.133 72.107 210.806 70.9082 209.972C69.7093 209.137 68.8888 207.863 68.6256 206.426C68.3623 204.989 68.6775 203.507 69.5026 202.301L69.4945 202.299ZM112.642 125.008L112.48 121.097C112.48 120.809 112.48 120.52 112.48 120.229C112.47 119.444 112.371 118.408 112.909 117.766C113.447 117.125 114.303 117.766 115.056 118.576C117.205 121.926 119.872 124.915 122.957 127.43C123.286 127.69 123.703 127.814 124.121 127.776C124.539 127.739 124.926 127.543 125.204 127.228C125.482 126.914 125.629 126.505 125.614 126.085C125.6 125.666 125.425 125.268 125.126 124.973L125.112 124.959C119.68 119.685 115.697 113.103 113.545 105.845C112.225 101.398 111.462 96.8041 111.272 92.1691L111.246 91.5196C111.152 88.7423 111.227 85.9617 111.473 83.1936C112.14 75.5495 114.008 68.0024 116.76 60.8014C119.562 53.5961 123.202 46.7453 127.605 40.39C129.817 37.2213 132.198 34.1744 134.739 31.2627C137.287 28.3625 140.011 25.6224 142.897 23.0581C148.622 17.8969 155.046 13.5683 161.979 10.1998C168.885 6.8836 176.331 4.63972 183.9 4.11972C191.469 3.59973 199.132 4.85622 205.728 8.41121C212.377 11.9656 217.782 17.4672 221.218 24.179C224.7 30.8662 226.382 38.4638 226.681 46.0857C226.981 53.7076 225.931 61.4327 223.871 68.8502C221.784 76.2884 218.776 83.4368 214.918 90.1296C211.085 96.8471 206.481 103.094 201.199 108.744C195.944 114.399 189.98 119.351 183.457 123.478C178.776 126.436 173.769 128.845 168.537 130.657L166.789 131.226C165.34 131.677 163.881 132.094 162.406 132.44C158.703 133.293 154.923 133.763 151.124 133.844C147.339 133.904 143.559 133.542 139.854 132.765L139.773 132.749C139.358 132.666 138.926 132.748 138.57 132.976C138.213 133.204 137.958 133.562 137.86 133.974C137.761 134.386 137.825 134.82 138.039 135.185C138.253 135.551 138.601 135.819 139.008 135.934C139.994 136.207 140.975 136.527 141.982 136.723L142.055 136.739C142.786 137.01 143.399 137.415 142.909 138.155C142.567 138.682 142.005 139.082 141.43 139.463L135.999 141.227C127.142 144.127 119.468 149.828 114.133 157.47L109.338 164.37C108.998 164.676 108.619 164.937 108.211 165.145C105.603 166.417 103.193 164.485 102.242 162.11C101 159.02 101.775 155.742 103.673 153.116C103.695 153.084 103.709 153.051 103.729 153.021L105.038 151.137C110.34 143.48 113.009 134.306 112.642 125V125.008ZM78.7553 150.848C80.3818 150.675 82.0266 150.837 83.5881 151.324C85.1496 151.811 86.5946 152.613 87.834 153.68L95.9274 160.604C96.8251 161.368 97.5601 162.304 98.0884 163.357C98.6168 164.41 98.9278 165.559 99.0028 166.735C99.0355 167.259 99.0219 167.785 98.9624 168.307C98.5334 169.645 97.8091 170.822 96.3948 171.186C94.7376 171.611 92.7872 170.254 91.3263 169.066C83.5992 161.319 78.4559 157.395 72.5093 157.128C71.7 156.926 70.9736 156.533 70.9574 155.591C70.9651 155.172 71.0991 154.765 71.3418 154.423C73.311 152.39 75.9385 151.123 78.7553 150.848ZM52.0696 196.434C50.5589 193.762 49.7898 190.735 49.8417 187.666C49.8937 184.597 50.7648 181.597 52.365 178.978C52.3873 178.954 52.4115 178.936 52.4338 178.907C55.0216 175.67 57.6945 172.896 62.0224 172.722C62.0932 172.722 62.162 172.722 62.2247 172.722C63.3618 172.702 64.4787 173.003 65.5996 173.329C66.152 173.566 66.7125 173.752 67.2628 174.019C67.8071 174.316 68.3655 174.557 68.9017 174.895C71.0707 176.168 73.1507 177.797 75.174 179.516C77.1974 181.236 79.1823 183.049 81.151 184.892L81.8996 185.597L82.1282 185.894C83.2714 187.411 82.6199 188.727 81.5212 189.898C80.1636 190.891 78.5751 191.521 76.906 191.729C75.9539 191.845 74.9904 191.828 74.043 191.679C73.7696 191.554 73.4711 191.495 73.1709 191.505C72.164 191.264 71.1994 190.871 70.3099 190.341L69.5694 189.862L68.7419 189.269L67.0787 188.095L63.7483 185.754C63.3983 185.522 62.9726 185.433 62.5589 185.506C62.1453 185.578 61.7753 185.807 61.5253 186.144C61.2753 186.482 61.1644 186.903 61.2155 187.319C61.2666 187.736 61.4757 188.118 61.7998 188.385L65.0149 190.881L66.067 191.691C67.4388 193.014 68.8208 194.574 68.3412 196.575C68.2594 196.899 68.1483 197.214 68.0094 197.518L66.2511 200.047C65.263 201.467 64.6824 203.13 64.5724 204.857C64.4623 206.583 64.827 208.307 65.6269 209.841C66.4268 211.375 67.6313 212.66 69.1099 213.558C70.5885 214.456 72.2847 214.932 74.0147 214.935C74.5119 214.935 75.0085 214.896 75.4998 214.82C76.7667 214.627 77.9808 214.177 79.0669 213.497C80.1531 212.817 81.0882 211.922 81.8146 210.866L93.7219 193.734C94.1772 193.214 94.6426 192.707 95.1383 192.239C96.7731 190.691 98.4646 191.284 100.178 192.227L100.597 192.632C100.905 192.937 101.321 193.108 101.754 193.108C102.187 193.107 102.603 192.935 102.91 192.629C103.217 192.323 103.39 191.908 103.391 191.475C103.393 191.042 103.223 190.625 102.918 190.317L100.692 187.952C99.6442 186.738 98.5982 185.475 98.0154 183.96C97.3842 182.319 97.5723 180.674 97.888 179.009C98.5314 177.341 99.4864 175.789 101.085 174.873C102.932 173.815 104.737 174.234 106.467 175.039L108.828 176.392L112.695 178.618L114.629 179.727L115.59 180.279C115.839 180.449 116.114 180.585 116.347 180.779C117.327 181.49 118.149 182.396 118.76 183.441C119.372 184.486 119.76 185.646 119.9 186.849C119.965 187.448 119.97 188.052 119.914 188.652C119.896 188.957 119.833 189.239 119.791 189.558L119.588 190.653L118.753 195.031L117.921 199.394L117.719 200.478L117.502 201.49C117.332 202.16 117.158 202.827 116.944 203.485C116.098 206.124 114.845 208.614 113.231 210.866C112.426 211.99 111.538 213.051 110.572 214.041C110.093 214.538 109.583 215.004 109.069 215.467L108.274 216.133L107.414 216.825L103.932 219.609L102.192 221.001L101.322 221.697L100.887 222.045L100.367 222.484C98.9649 223.756 97.9739 225.417 97.5197 227.255C97.2991 228.171 97.2138 229.114 97.2668 230.055L97.4165 232.297L98.0235 241.2L98.7337 251.648C98.7337 251.703 98.7175 251.755 98.7175 251.812C98.7195 251.962 98.7385 252.11 98.7742 252.255L99.2315 258.987C100.041 270.846 100.887 282.702 101.955 294.543C101.992 294.97 102.196 295.366 102.522 295.645C102.848 295.924 103.27 296.064 103.698 296.035C104.126 296.006 104.525 295.811 104.811 295.49C105.096 295.17 105.245 294.751 105.225 294.322C105.225 294.132 105.206 293.942 105.196 293.754C105.196 293.738 105.196 293.723 105.196 293.705C105.376 290.32 105.514 286.721 107.264 283.714C108.83 281.025 111.456 279.536 114.16 278.198C114.297 278.13 114.421 278.039 114.526 277.927C117.062 276.65 119.594 275.368 122.123 274.083C125.239 272.948 128.52 272.332 131.835 272.262C140.969 273.622 146.282 281.155 148.372 284.853C152.824 292.744 154.151 302.173 152.273 309.261C150.478 313.947 146.438 316.684 141.91 319.193C141.763 319.274 141.633 319.382 141.527 319.511C137.816 321.482 133.903 323.734 129.824 326.081C111.93 336.381 91.65 348.054 76.8939 341.749C64.3168 336.375 61.6319 320.539 62.2692 291.522L62.5929 285.464C62.616 285.072 62.5785 284.679 62.4817 284.299C62.7326 277.363 63.1231 269.759 63.5783 261.463C63.6574 261.184 63.6733 260.89 63.6249 260.604C63.7786 257.829 63.9378 254.979 64.1024 252.053C64.5536 244.026 65.021 235.725 65.4701 226.723C65.665 222.835 64.7529 218.972 62.8398 215.582L52.0696 196.434ZM171.377 394.332C168.978 397.344 166.489 400.468 164.071 403.904C163.501 402.64 162.857 401.411 162.198 400.201C161.241 398.442 160.184 396.738 159.033 395.099C158.798 394.771 158.451 394.54 158.058 394.451C157.665 394.361 157.252 394.419 156.898 394.612C156.545 394.806 156.274 395.123 156.138 395.502C156.001 395.882 156.008 396.298 156.158 396.673C156.919 398.526 157.786 400.333 158.754 402.087C159.681 403.842 160.727 405.532 161.884 407.145C157.717 413.511 154.486 420.441 152.289 427.725C152.019 428.315 151.837 428.943 151.749 429.586C151.605 430.107 151.464 430.634 151.326 431.169C150.922 432.065 150.207 432.856 149.175 432.32C148.615 432.026 148.036 431.322 147.52 430.701C145.304 426.908 143.287 423.001 141.479 418.996C140.497 415.718 139.563 412.319 140.17 408.892C140.48 407.291 141.043 405.75 141.837 404.327C142.646 403.113 143.414 401.884 144.139 400.64L144.801 399.685C144.931 399.504 145.009 399.289 145.026 399.066C150.59 388.832 153.184 377.453 152.03 365.884C150.968 355.204 146.306 348.602 142.193 342.779C141.155 341.31 140.137 339.866 139.192 338.389C137.99 335.918 137.234 333.229 137.203 330.498C137.177 328.124 138.197 326.406 139.678 325.01C149.271 319.679 157.888 315.622 163.505 316.664C169.915 317.854 176.903 323.27 181.741 330.799C188.365 341.108 190.239 353.877 187.02 366.758C184.133 378.319 177.935 386.099 171.375 394.334L171.377 394.332ZM220.648 488.504C218.796 487.609 217.25 486.302 216.255 484.113C214.786 480.876 214.883 477.272 214.948 473.794C214.948 473.713 214.941 473.631 214.928 473.551C214.938 473.167 214.944 472.78 214.958 472.396C215.025 470.642 215.122 468.861 215.27 467.135V467.107C215.313 466.674 215.182 466.242 214.907 465.906C214.632 465.57 214.234 465.356 213.802 465.313C213.369 465.27 212.937 465.4 212.601 465.676C212.264 465.951 212.051 466.349 212.008 466.781C211.796 468.614 211.642 470.397 211.518 472.208C211.409 473.826 211.336 475.433 211.29 477.05L211.12 478.446C210.97 479.678 211.039 481.343 210.573 482.492C209.999 483.921 208.587 483.886 207.099 483.484C202.334 481.406 197.698 479.041 193.219 476.402C191.255 474.686 189.95 472.625 189.709 469.523C189.573 467.767 189.594 466.031 189.507 464.297C189.709 461.954 190.067 459.604 190.439 457.257C190.929 454.285 191.601 451.331 192.339 448.393C193.078 445.455 193.917 442.513 194.85 439.681L194.862 439.644C194.997 439.237 194.967 438.793 194.778 438.408C194.589 438.023 194.257 437.727 193.853 437.584C193.448 437.441 193.004 437.462 192.615 437.643C192.226 437.824 191.924 438.15 191.773 438.552C190.646 441.51 189.695 444.444 188.845 447.454C187.995 450.465 187.226 453.48 186.635 456.559C186.465 457.324 186.35 458.101 186.211 458.874C186.124 459.378 186.043 459.884 185.968 460.391C185.715 461.506 185.496 462.629 185.334 463.775C185.15 465.084 185.047 467.111 183.957 468.054C183.222 468.689 182.38 468.803 181.529 468.647C173.352 462.553 165.929 455.509 159.416 447.663C156.069 442.87 154.622 437.004 155.357 431.205C158.094 420.991 162.214 413.428 166.766 406.868C168.134 405.203 169.983 402.911 171.972 402.888C173.043 402.876 173.878 403.667 174.688 404.547C188.896 426.764 218.165 434.897 242.516 434.897H242.613C261.608 434.881 278.363 430.224 288.061 422.863C288.606 422.556 289.165 422.278 289.738 422.029C292.415 420.886 294.04 421.724 295.28 423.275C296.731 426.805 298.455 430.216 300.438 433.477C309.648 448.581 312.375 462.846 313.082 471.941C313.124 473.064 313.165 474.193 313.12 475.334C312.956 479.441 310.524 481.798 307.455 483.85C299.462 487.275 291.134 489.858 282.606 491.557C282.372 491.487 282.122 491.487 281.888 491.557C279.595 492.184 276.388 493.107 274.707 490.812C273.898 489.718 273.436 488.253 273.101 486.766C272.977 485.661 272.836 484.558 272.668 483.462C272.368 481.519 272.024 479.583 271.591 477.665C271.158 475.747 270.646 473.847 270.098 471.961C269.978 471.55 269.703 471.201 269.33 470.991C268.957 470.78 268.516 470.724 268.102 470.834C267.688 470.944 267.334 471.212 267.115 471.581C266.896 471.949 266.83 472.388 266.931 472.805V472.837C267.832 476.501 268.503 480.218 268.941 483.965C269.167 485.837 269.299 487.717 269.41 489.592V489.625C269.41 489.898 269.388 490.171 269.359 490.446C269.157 492.36 268.032 493.259 266.591 493.683C263.597 493.886 260.584 494.007 257.549 494.007C245.042 494.015 232.604 492.161 220.644 488.506L220.648 488.504ZM359.936 291.202C358.443 292.23 357.006 293.329 355.592 294.456C353.786 295.875 352.067 297.401 350.444 299.027C350.164 299.316 349.998 299.698 349.98 300.101C349.961 300.504 350.091 300.899 350.344 301.213C350.597 301.527 350.956 301.738 351.354 301.805C351.751 301.872 352.16 301.791 352.502 301.578C354.434 300.336 356.29 298.978 358.058 297.513C359.406 296.412 360.733 295.287 362.008 294.096C376.859 315.425 384.82 340.792 384.821 366.782C384.821 412.339 360.996 453.642 322.11 476.481C320.643 477.001 319.172 477.23 318.336 476.279C317.784 475.647 317.47 474.8 317.197 473.924C317.138 472.635 317.043 471.226 316.892 469.703C318.205 468.301 319.419 466.822 320.592 465.31C321.997 463.517 323.312 461.655 324.53 459.73C324.751 459.384 324.835 458.968 324.767 458.564C324.698 458.159 324.48 457.795 324.157 457.542C323.834 457.289 323.428 457.166 323.019 457.196C322.609 457.227 322.226 457.409 321.944 457.707C320.374 459.357 318.888 461.086 317.492 462.886C317.059 463.439 316.633 463.998 316.214 464.562C314.735 455.489 311.329 443.802 303.801 431.454C288.678 406.66 290.028 373.481 307.066 341.266C307.785 341.984 308.529 342.67 309.292 343.338C310.645 344.538 312.072 345.652 313.565 346.672C313.898 346.897 314.301 346.992 314.699 346.941C315.098 346.89 315.464 346.696 315.729 346.395C315.995 346.094 316.142 345.707 316.143 345.305C316.144 344.904 315.998 344.516 315.734 344.214C314.535 342.86 313.251 341.583 311.89 340.392C310.923 339.536 309.933 338.704 308.887 337.937C309.802 336.313 310.745 334.694 311.756 333.075C324.339 312.658 317.306 298.974 311.105 286.901C307.147 279.2 303.416 271.928 304.282 263.21C304.404 262.123 304.646 261.054 305.002 260.021C306.631 256.48 309.013 252.856 313.395 253.398C314.858 253.579 316.244 254.074 317.63 254.574C334.276 263.492 348.727 276.005 359.934 291.204L359.936 291.202ZM300.363 262.807C299.376 272.679 303.558 280.815 307.602 288.687C313.887 300.918 319.823 312.47 308.412 330.999C292.739 356.433 286.667 383.023 290.513 406.389C290.716 408.756 290.754 411.164 290.137 413.424C289.621 415.252 288.699 416.94 287.44 418.363C278.999 425.93 261.863 430.978 242.623 430.997H242.528C219.326 430.997 191.5 423.373 178.101 402.583C177.021 400.189 176.098 397.599 176.788 394.983C177.06 394.024 177.473 393.11 178.014 392.272C183.461 385.219 188.295 377.92 190.846 367.717C194.332 353.772 192.276 339.908 185.061 328.677C182.545 324.735 179.386 321.243 175.716 318.345C174.858 317.182 173.085 315.972 173.17 314.546C173.241 313.332 174.384 312.864 175.608 312.542C176.462 312.5 177.32 312.478 178.107 312.492H178.182C178.606 312.489 179.011 312.321 179.314 312.025C179.617 311.729 179.794 311.327 179.807 310.904C179.82 310.48 179.669 310.068 179.385 309.754C179.1 309.44 178.706 309.248 178.283 309.218C175.796 309.115 173.305 309.191 170.829 309.445C168.375 309.679 165.938 310.058 163.529 310.58C161.708 310.966 159.907 311.428 158.127 311.98C157.374 312.047 156.686 311.98 156.421 311.575C156.105 311.084 156.37 310.272 156.476 309.754C156.65 309.033 156.73 308.291 156.714 307.549C156.714 307.506 156.7 307.468 156.696 307.428C157.882 299.836 156.257 290.784 151.82 282.925C147.947 276.066 142.662 271.445 136.572 269.369C136.486 269.293 136.396 269.222 136.303 269.156C135.494 268.602 134.842 268.375 135.668 267.355C135.728 267.281 135.797 267.216 135.87 267.153C141.634 264.264 147.419 261.433 153.271 258.781C160.757 255.412 168.379 252.251 176.185 250.08C177.539 249.769 178.937 249.473 180.199 249.495C181.512 249.53 182.378 250.276 183.155 251.175C191.58 263.452 205.351 273.338 223.276 279.906C238.028 285.319 250.221 286.597 250.733 286.648C250.8 286.655 250.867 286.658 250.935 286.658C251.27 286.658 251.6 286.572 251.893 286.408C252.186 286.245 252.432 286.009 252.608 285.723C270.055 257.445 263.35 230.146 260.499 221.509C260.242 220.153 260.19 218.797 260.724 217.424C261.021 216.692 261.418 216.004 261.901 215.38C266.45 210.484 271.668 205.447 280.836 200.27C284.197 198.372 287.652 196.444 291.576 194.315C294.013 193.266 296.615 192.649 299.264 192.494C305.334 193.506 312.242 198.872 317.588 206.941C322.359 214.142 324.639 221.66 324.042 227.473C323.526 229.693 322.444 231.74 320.9 233.416C319.617 234.832 318.269 236.162 317.076 237.635C306.556 247.632 301.043 255.966 300.359 262.809L300.363 262.807ZM442.652 154.82L442.587 154.854C409.249 173.995 374.69 194.309 347.78 213.209C341.072 217.919 335.086 222.377 329.823 226.583C329.276 226.814 328.73 226.96 328.437 226.741C328.143 226.522 328.176 225.826 328.129 225.527C328.115 225.43 328.095 225.341 328.077 225.248C327.959 218.205 324.7 210.597 320.843 204.774C316.987 198.951 311.204 192.921 304.756 190.074C304.039 189.572 303.436 188.943 304.104 188.079C304.32 187.808 304.552 187.55 304.8 187.308C324.807 176.975 357.093 161.246 422.76 130.544C423.626 130.136 424.305 129.417 424.665 128.531C425.025 127.645 425.039 126.656 424.703 125.76L415.327 101.102C414.904 99.9293 414.94 98.64 415.427 97.4924C415.914 96.3448 416.817 95.4236 417.955 94.9133C419.092 94.403 420.38 94.3412 421.562 94.7403C422.743 95.1394 423.73 95.9699 424.325 97.0656L433.616 114.954C433.803 115.316 434.099 115.61 434.461 115.797C434.824 115.983 435.236 116.052 435.639 115.994C436.082 115.927 446.591 114.505 448.671 124.799C448.722 125.053 448.823 125.293 448.967 125.508C449.111 125.722 449.296 125.906 449.511 126.049C449.727 126.192 449.968 126.291 450.221 126.34C450.475 126.39 450.736 126.389 450.989 126.338C451.242 126.287 451.483 126.186 451.697 126.042C451.912 125.898 452.095 125.713 452.238 125.498C452.381 125.283 452.48 125.041 452.53 124.788C452.58 124.534 452.579 124.274 452.528 124.02C451.032 116.619 446.037 113.467 441.373 112.4C439.036 111.403 436.699 110.142 435.91 107.933C435.557 106.905 435.282 105.852 435.089 104.783L433.652 87.5984L432.669 76.1848L432.545 74.7583C432.495 74.2363 432.485 73.9025 432.466 73.5443C432.482 72.1144 433.025 70.7405 433.991 69.6866C434.958 68.6327 436.28 67.9731 437.703 67.8346C439.127 67.6961 440.551 68.0884 441.703 68.9361C442.854 69.7839 443.652 71.0273 443.943 72.4275L444.026 72.9373L444.092 73.6496L444.226 75.0659L444.76 80.7616C445.476 88.3551 446.217 95.9467 447.188 103.52C447.248 103.936 447.466 104.313 447.796 104.573C448.126 104.834 448.543 104.957 448.962 104.919C449.381 104.88 449.769 104.683 450.046 104.367C450.323 104.051 450.468 103.641 450.452 103.221C450.027 95.5906 449.373 87.9808 448.696 80.3731L448.186 74.6673L448.058 73.2509L447.995 72.5387L447.856 71.6343C447.617 70.4556 447.164 69.3308 446.518 68.316C446.456 68.2189 446.385 68.1279 446.316 68.0308C445.64 66.4789 444.88 64.7408 445.007 63.2213C445.134 61.7018 446.601 61.0179 448.089 60.5727C448.159 60.5727 448.228 60.5727 448.291 60.5727L448.633 60.591L449.1 60.6436L450.035 60.7488L450.962 60.854C451.177 60.8824 451.389 60.9243 451.599 60.9794C452.439 61.2047 453.196 61.6685 453.777 62.3149C454.359 62.9613 454.741 63.7625 454.877 64.6214L455.524 71.9702L456.85 86.9611C457.315 91.9567 457.805 96.9482 458.414 101.934C458.471 102.35 458.686 102.728 459.014 102.991C459.342 103.253 459.758 103.38 460.177 103.345C460.596 103.309 460.985 103.115 461.264 102.801C461.544 102.487 461.692 102.078 461.679 101.659C461.451 96.6447 461.101 91.639 460.726 86.6373L460.291 81.1581C460.235 79.8146 460.231 78.4691 460.291 77.1236C460.328 76.4094 460.291 75.2278 460.55 74.5722C461.188 72.998 462.491 73.172 463.666 73.6617C464.593 74.2353 465.374 75.0179 465.944 75.9467C466.515 76.8756 466.861 77.9251 466.954 79.0114L469.878 113.877C467.48 141.385 442.897 154.686 442.652 154.82Z" fill="black"/>
<path d="M360.707 331.052C361.547 333.19 362.515 335.275 363.606 337.296C363.803 337.648 364.121 337.916 364.502 338.05C364.882 338.184 365.299 338.173 365.672 338.021C366.046 337.868 366.35 337.585 366.529 337.223C366.707 336.861 366.747 336.447 366.641 336.058C366.006 333.851 365.238 331.684 364.343 329.569C363.463 327.452 362.536 325.354 361.443 323.325C361.25 322.968 360.931 322.696 360.549 322.559C360.167 322.423 359.747 322.432 359.372 322.586C358.996 322.739 358.69 323.025 358.512 323.39C358.334 323.755 358.297 324.173 358.408 324.563C359.05 326.783 359.855 328.929 360.707 331.052Z" fill="black"/>
<path d="M329.614 326.218C329.802 326.327 330.01 326.397 330.225 326.425C330.44 326.453 330.659 326.439 330.868 326.382C331.078 326.326 331.274 326.229 331.446 326.097C331.618 325.964 331.762 325.799 331.87 325.611C332.999 323.611 334.006 321.545 334.887 319.424C335.779 317.314 336.627 315.175 337.315 312.98C337.434 312.591 337.405 312.173 337.235 311.804C337.064 311.436 336.763 311.143 336.391 310.983C336.018 310.822 335.598 310.805 335.214 310.934C334.829 311.063 334.505 311.33 334.304 311.683C333.173 313.692 332.208 315.772 331.288 317.87C330.35 319.967 329.539 322.119 328.86 324.314C328.753 324.67 328.77 325.052 328.907 325.397C329.043 325.743 329.293 326.032 329.614 326.218V326.218Z" fill="black"/>
<path d="M176.871 354.426C176.49 354.211 176.039 354.156 175.618 354.274C175.197 354.392 174.84 354.672 174.625 355.053C173.494 357.062 172.529 359.142 171.608 361.24C170.67 363.338 169.859 365.49 169.18 367.685C169.066 368.072 169.098 368.487 169.269 368.852C169.441 369.218 169.74 369.508 170.111 369.667C170.481 369.827 170.898 369.845 171.281 369.719C171.664 369.593 171.988 369.33 172.191 368.981C173.32 366.981 174.327 364.915 175.208 362.794C176.1 360.684 176.948 358.545 177.636 356.35C177.747 355.99 177.732 355.603 177.593 355.253C177.454 354.903 177.199 354.611 176.871 354.426V354.426Z" fill="black"/>
<path d="M322.525 278.356C323.025 280.598 323.659 282.807 324.424 284.973C324.563 285.352 324.837 285.667 325.192 285.859C325.548 286.05 325.962 286.105 326.355 286.012C326.748 285.919 327.093 285.685 327.326 285.354C327.558 285.024 327.661 284.619 327.615 284.218C327.329 281.939 326.905 279.68 326.347 277.452C325.804 275.226 325.214 273.001 324.447 270.836C324.311 270.452 324.039 270.133 323.682 269.938C323.325 269.743 322.908 269.688 322.513 269.781C322.117 269.875 321.77 270.111 321.538 270.445C321.306 270.779 321.206 271.187 321.256 271.59C321.547 273.877 322.013 276.123 322.525 278.356Z" fill="black"/>
<path d="M358.232 370.402C360.535 370.489 362.827 370.402 365.112 370.252C367.405 370.124 369.688 369.858 371.948 369.455C372.344 369.378 372.698 369.16 372.944 368.84C373.19 368.521 373.31 368.123 373.282 367.721C373.255 367.319 373.081 366.94 372.794 366.658C372.507 366.375 372.126 366.207 371.724 366.185C369.43 366.097 367.133 366.147 364.845 366.335C362.558 366.507 360.276 366.739 358.008 367.132C357.609 367.205 357.251 367.422 357.002 367.742C356.753 368.062 356.631 368.463 356.659 368.867C356.686 369.272 356.862 369.652 357.152 369.935C357.443 370.218 357.827 370.384 358.232 370.402V370.402Z" fill="black"/>
<path d="M333.129 360.736C332.922 361.083 332.849 361.493 332.924 361.89C332.999 362.287 333.217 362.642 333.536 362.889C333.856 363.136 334.255 363.258 334.658 363.23C335.06 363.203 335.439 363.029 335.723 362.741C337.314 361.085 338.805 359.334 340.186 357.499C341.576 355.678 342.926 353.822 344.136 351.86C344.348 351.513 344.425 351.1 344.351 350.701C344.278 350.301 344.059 349.943 343.738 349.694C343.416 349.446 343.014 349.324 342.609 349.354C342.204 349.384 341.824 349.562 341.542 349.855C339.947 351.518 338.493 353.294 337.078 355.097C335.65 356.896 334.331 358.779 333.129 360.736V360.736Z" fill="black"/>
<path d="M319.819 423.977C319.063 421.815 318.257 419.668 317.284 417.578C317.112 417.21 316.809 416.918 316.435 416.76C316.061 416.601 315.641 416.586 315.257 416.718C314.872 416.849 314.55 417.118 314.352 417.473C314.153 417.828 314.093 418.243 314.182 418.64C314.694 420.888 315.376 423.077 316.104 425.25C316.819 427.433 317.664 429.571 318.636 431.652C318.811 432.016 319.114 432.303 319.486 432.458C319.859 432.614 320.276 432.628 320.658 432.497C321.04 432.366 321.361 432.1 321.56 431.748C321.759 431.397 321.822 430.985 321.737 430.59C321.231 428.349 320.591 426.141 319.819 423.977V423.977Z" fill="black"/>
<path d="M368.44 392.95C368.059 392.735 367.608 392.681 367.187 392.798C366.766 392.916 366.409 393.196 366.194 393.577C365.063 395.586 364.098 397.666 363.177 399.764C362.239 401.862 361.428 404.014 360.749 406.209C360.635 406.596 360.667 407.011 360.839 407.377C361.01 407.742 361.309 408.032 361.68 408.191C362.051 408.351 362.467 408.369 362.85 408.243C363.233 408.117 363.557 407.854 363.76 407.506C364.889 405.506 365.896 403.439 366.777 401.318C367.669 399.208 368.517 397.069 369.205 394.874C369.316 394.514 369.301 394.127 369.162 393.777C369.023 393.427 368.768 393.135 368.44 392.95V392.95Z" fill="black"/>
<path d="M331.99 397.336C331.604 397.463 331.278 397.726 331.075 398.078C330.872 398.429 330.805 398.842 330.888 399.24C330.971 399.637 331.197 399.99 331.523 400.231C331.85 400.472 332.253 400.584 332.657 400.546C334.952 400.317 337.208 399.914 339.456 399.461C341.71 399.022 343.936 398.448 346.121 397.741C346.503 397.612 346.824 397.347 347.024 396.997C347.224 396.647 347.29 396.236 347.207 395.841C347.125 395.446 346.902 395.095 346.578 394.854C346.255 394.613 345.855 394.498 345.453 394.532C343.167 394.757 340.897 395.119 338.655 395.617C336.411 396.098 334.181 396.628 331.99 397.336Z" fill="black"/>
<path d="M340.303 426.99C340.022 427.325 339.886 427.759 339.924 428.195C339.962 428.63 340.171 429.033 340.506 429.315C342.28 430.775 344.141 432.126 346.078 433.362C348.002 434.606 349.955 435.81 352.006 436.862C352.369 437.048 352.786 437.093 353.18 436.989C353.573 436.885 353.914 436.639 354.137 436.299C354.36 435.959 354.449 435.548 354.388 435.146C354.327 434.744 354.119 434.379 353.805 434.121C352.023 432.66 350.141 431.347 348.233 430.074C346.329 428.789 344.349 427.62 342.305 426.573C341.973 426.408 341.595 426.36 341.232 426.435C340.869 426.511 340.542 426.706 340.303 426.99V426.99Z" fill="black"/>
<path d="M307.157 375.917C306.77 375.807 306.355 375.841 305.991 376.015C305.627 376.189 305.34 376.49 305.183 376.862C305.026 377.233 305.01 377.649 305.138 378.031C305.267 378.413 305.531 378.735 305.88 378.936C307.888 380.051 309.961 381.045 312.088 381.91C314.205 382.789 316.337 383.62 318.549 384.288C318.938 384.403 319.355 384.372 319.722 384.199C320.089 384.025 320.379 383.723 320.537 383.35C320.695 382.976 320.71 382.557 320.579 382.173C320.447 381.789 320.179 381.468 319.825 381.269C317.802 380.152 315.722 379.199 313.618 378.295C311.514 377.373 309.356 376.579 307.157 375.917V375.917Z" fill="black"/>
<path d="M166.991 329.789C164.751 330.332 162.57 331.042 160.407 331.798C158.235 332.543 156.109 333.418 154.042 334.419C153.68 334.599 153.397 334.905 153.246 335.28C153.096 335.654 153.087 336.071 153.223 336.452C153.359 336.832 153.629 337.149 153.984 337.344C154.338 337.538 154.75 337.596 155.144 337.506C157.377 336.969 159.576 336.298 161.728 335.497C163.881 334.712 166.018 333.878 168.094 332.877C168.459 332.699 168.747 332.393 168.9 332.017C169.054 331.641 169.064 331.221 168.927 330.839C168.79 330.456 168.517 330.137 168.16 329.943C167.802 329.75 167.386 329.695 166.991 329.789V329.789Z" fill="black"/>
<path d="M346.979 77.6112C348.529 76.349 350.012 75.0049 351.42 73.5848C352.858 72.1937 354.19 70.6962 355.404 69.1051C355.639 68.7848 355.751 68.3907 355.719 67.9947C355.687 67.5987 355.515 67.2272 355.232 66.9482C354.949 66.6692 354.575 66.5011 354.179 66.4747C353.783 66.4484 353.39 66.5654 353.073 66.8046C351.493 68.0333 350.009 69.3793 348.632 70.831C347.226 72.2498 345.897 73.7424 344.65 75.3026C344.403 75.6213 344.281 76.0195 344.307 76.4219C344.334 76.8243 344.506 77.2032 344.793 77.4869C345.079 77.7707 345.46 77.9398 345.863 77.9624C346.265 77.9849 346.662 77.8593 346.979 77.6092V77.6112Z" fill="black"/>
<path d="M285.453 110.525C286.745 109.25 288.027 107.969 289.297 106.68C290.562 105.379 291.845 104.097 293.093 102.781C293.931 101.909 294.758 101.029 295.594 100.151C296.32 99.7121 297.057 99.4551 297.526 99.9245C297.931 100.329 298.083 101.268 298.271 101.794L298.311 101.909L299.015 106.952C299.637 111.326 300.229 115.705 300.871 120.075V120.089C300.928 120.471 301.089 120.829 301.338 121.123C301.587 121.418 301.913 121.638 302.28 121.757C302.646 121.877 303.039 121.892 303.414 121.801C303.789 121.71 304.131 121.517 304.402 121.242L320.791 104.637L328.926 96.2765C331.611 93.462 334.296 90.6496 336.923 87.7785C337.204 87.4649 337.354 87.0553 337.341 86.6344C337.329 86.2135 337.155 85.8135 336.856 85.5172C336.556 85.2209 336.155 85.0509 335.734 85.0424C335.313 85.034 334.905 85.1878 334.594 85.4719C331.749 88.1265 328.961 90.8398 326.175 93.551L317.893 101.768L306.575 113.159C305.697 113.894 304.659 113.999 304.147 112.742C304.06 112.53 303.981 112.311 303.908 112.089C303.623 110.183 303.34 108.276 303.058 106.369L301.114 93.2577V93.2435C301.058 92.8742 300.9 92.5279 300.657 92.2443C300.414 91.9608 300.096 91.7515 299.74 91.6404C299.383 91.5293 299.003 91.5209 298.641 91.6162C298.28 91.7115 297.954 91.9066 297.698 92.1792C295.216 94.8217 292.753 97.4837 290.309 100.165C289.075 101.495 287.881 102.856 286.667 104.2C285.453 105.543 284.255 106.911 283.066 108.281C282.797 108.602 282.661 109.014 282.686 109.432C282.71 109.85 282.894 110.243 283.2 110.53C283.505 110.817 283.909 110.976 284.327 110.975C284.746 110.974 285.149 110.813 285.453 110.525Z" fill="black"/>
<path d="M263.223 128.949C261.029 131.329 258.806 133.678 256.641 136.082C254.476 138.485 252.297 140.879 250.176 143.325C249.903 143.646 249.764 144.06 249.787 144.48C249.811 144.901 249.995 145.297 250.303 145.585C250.61 145.873 251.016 146.033 251.437 146.03C251.859 146.027 252.263 145.862 252.566 145.569C254.872 143.297 257.133 140.982 259.382 138.657C261.632 136.332 263.846 133.973 266.082 131.634C268.317 129.295 270.491 126.9 272.68 124.516L275.931 120.913C277 119.699 278.08 118.485 279.13 117.261C279.403 116.94 279.543 116.526 279.519 116.105C279.496 115.685 279.311 115.289 279.004 115.001C278.697 114.712 278.29 114.553 277.869 114.556C277.448 114.559 277.044 114.724 276.741 115.017C275.577 116.144 274.444 117.299 273.301 118.44L269.912 121.914C267.671 124.249 265.442 126.594 263.223 128.949Z" fill="black"/>
<path d="M334.907 143.819C335.01 144.244 335.278 144.61 335.651 144.838C336.025 145.066 336.473 145.136 336.898 145.033C339.292 144.426 341.649 143.683 343.958 142.807C346.268 141.949 348.563 141.045 350.796 139.974C351.166 139.798 351.458 139.491 351.613 139.112C351.768 138.733 351.777 138.309 351.637 137.924C351.497 137.539 351.218 137.22 350.855 137.029C350.493 136.839 350.072 136.79 349.676 136.893C347.276 137.5 344.937 138.287 342.616 139.119C340.285 139.932 338.001 140.878 335.777 141.951C335.442 142.118 335.173 142.393 335.015 142.733C334.857 143.072 334.819 143.455 334.907 143.819V143.819Z" fill="black"/>
<path d="M242.923 104.196C243.342 104.309 243.79 104.251 244.167 104.034C244.544 103.818 244.82 103.46 244.934 103.041C245.743 100.045 246.525 97.042 247.279 94.0327L247.497 93.1545C247.736 92.7094 247.973 92.2622 248.216 91.8191C248.889 90.5809 249.859 90.8459 250.678 91.7928L250.977 92.1752L251.081 92.3047C251.497 92.8773 251.849 93.4418 252.323 93.8769C253.552 95.4308 254.785 96.982 256.024 98.5305C256.257 98.8235 256.566 99.046 256.918 99.1734C257.27 99.3008 257.651 99.328 258.017 99.2521C258.384 99.1762 258.722 99.0001 258.995 98.7434C259.267 98.4867 259.463 98.1595 259.56 97.7981V97.7981C260.534 94.2067 261.511 90.6173 262.444 87.0157C263.376 83.4142 264.305 79.8127 265.228 76.2071C266.15 72.6015 267.037 68.9898 267.933 65.3782C268.829 61.7665 269.665 58.1407 270.464 54.5048C270.553 54.0914 270.479 53.6597 270.257 53.2996C270.035 52.9396 269.683 52.679 269.274 52.5723C268.865 52.4656 268.43 52.5209 268.061 52.7268C267.692 52.9326 267.416 53.2731 267.291 53.6772C266.211 57.2403 265.197 60.8196 264.188 64.4009C263.178 67.9822 262.203 71.5716 261.256 75.1711C260.309 78.7706 259.328 82.358 258.405 85.9616C258.158 86.9045 257.919 87.8473 257.677 88.7942C257.43 89.3284 257.173 89.8565 256.879 90.3583C256.185 91.546 255.289 90.9471 254.591 90.1782L254.186 89.6582L249.128 83.3171L249.114 83.2989C248.879 83.0064 248.567 82.7861 248.212 82.6633C247.858 82.5406 247.476 82.5203 247.111 82.6048C246.745 82.6893 246.411 82.8753 246.147 83.1412C245.882 83.4072 245.698 83.7423 245.616 84.1082C244.93 87.1432 244.274 90.1661 243.619 93.197C242.963 96.228 242.346 99.267 241.751 102.316C241.677 102.719 241.756 103.135 241.973 103.483C242.19 103.83 242.528 104.085 242.923 104.196Z" fill="black"/>
<path d="M237.358 127.527C237.562 127.601 237.779 127.634 237.995 127.625C238.212 127.615 238.425 127.563 238.621 127.472C238.818 127.38 238.994 127.25 239.141 127.09C239.287 126.93 239.401 126.743 239.475 126.539C240.146 124.632 240.708 122.689 241.16 120.718C241.648 118.756 242 116.762 242.214 114.751C242.254 114.352 242.146 113.952 241.913 113.626C241.679 113.3 241.334 113.07 240.944 112.979C240.553 112.889 240.142 112.943 239.789 113.132C239.435 113.322 239.162 113.633 239.022 114.009C238.327 115.908 237.764 117.853 237.336 119.83C236.873 121.798 236.521 123.79 236.282 125.797C236.242 126.164 236.327 126.534 236.522 126.847C236.717 127.161 237.011 127.4 237.358 127.527V127.527Z" fill="black"/>
<path d="M135.66 91.0845C137.462 88.7638 139.217 86.4106 140.963 84.0494C141.075 83.9871 141.172 83.9023 141.25 83.8005C141.813 83.0762 142.452 82.1212 143.502 82.3296C143.903 82.4182 144.295 82.5421 144.674 82.6999L146.345 83.7904C146.978 84.1749 147.597 84.5755 148.241 84.9437C148.595 85.1477 149.013 85.2125 149.413 85.1254C149.812 85.0384 150.165 84.8057 150.403 84.4727C150.64 84.1397 150.746 83.7303 150.698 83.324C150.65 82.9178 150.453 82.5438 150.145 82.275C149.588 81.7853 149.005 81.3321 148.437 80.8586L146.689 79.4989C146.582 79.416 146.47 79.3351 146.363 79.2541C146.055 78.8718 145.884 78.3974 145.877 77.9066C145.905 77.5617 146 77.2256 146.157 76.9172C146.446 76.5125 146.735 76.1078 147.027 75.7032C148.436 73.7109 149.841 71.7145 151.241 69.7141C152.032 68.8299 152.892 68.3706 154.106 69.3094C154.455 69.5919 154.832 69.838 155.231 70.0439L160.676 73.9672C161.295 74.6753 161.732 75.4118 161.374 76.5186C161.186 77.0545 160.944 77.5703 160.654 78.0583L157.841 81.848C155.913 84.4784 154.011 87.1208 152.109 89.7674C150.24 92.4361 148.34 95.0847 146.497 97.7717C144.653 100.459 142.806 103.144 141.021 105.865C140.792 106.22 140.709 106.649 140.788 107.063C140.867 107.478 141.103 107.846 141.447 108.091C141.791 108.336 142.215 108.439 142.633 108.379C143.051 108.319 143.429 108.101 143.69 107.769C145.689 105.193 147.634 102.577 149.558 99.9528C151.369 97.5107 153.131 95.0341 154.914 92.5717C155.834 91.8271 156.797 91.4224 158.019 92.1508C158.546 92.5555 159.07 92.9602 159.6 93.3527C161.241 94.5971 162.91 95.7989 164.581 96.9947L165.575 97.6948C165.624 97.7687 165.669 97.8458 165.708 97.9254C165.866 98.2512 165.73 98.7611 165.479 99.3074C164.571 100.639 163.658 101.97 162.766 103.312C162.514 103.665 162.412 104.105 162.484 104.534C162.556 104.963 162.795 105.345 163.149 105.598C163.502 105.85 163.942 105.952 164.371 105.88C164.8 105.809 165.182 105.569 165.435 105.216C166.329 104.04 167.209 102.856 168.092 101.673C168.22 101.562 168.356 101.458 168.496 101.363C169.215 100.914 169.991 100.989 170.74 101.256L172.207 102.239C173.077 102.792 173.933 103.364 174.813 103.9C175.168 104.119 175.592 104.194 176 104.112C176.408 104.029 176.77 103.794 177.012 103.455C177.254 103.116 177.358 102.698 177.303 102.285C177.248 101.873 177.039 101.496 176.717 101.232C176.11 100.734 175.503 100.256 174.896 99.7748C174.839 99.6131 174.734 99.4722 174.597 99.3701C173.915 98.842 173.231 98.237 172.792 97.4844C172.29 96.6244 172.513 95.892 172.917 95.1373L173.105 94.8823C174.369 93.1598 175.623 91.4305 176.867 89.6945C177.31 89.0875 177.842 88.3551 178.532 88.0394C179.473 87.6105 180.353 88.0617 181.183 88.432C183.67 90.1531 186.165 91.8615 188.669 93.5571C189.023 93.8095 189.462 93.9111 189.891 93.8394C190.32 93.7677 190.703 93.5286 190.955 93.1747C191.208 92.8208 191.309 92.381 191.238 91.9523C191.166 91.5235 190.927 91.1408 190.573 90.8883C187.92 88.8865 185.251 86.9064 182.569 84.9478C181.788 83.9543 182.075 82.8071 182.619 81.6437L187.119 75.3025C188.005 74.4001 189.094 73.8457 190.5 74.4163C190.743 74.5134 190.969 74.6187 191.19 74.7299C193.77 76.5172 196.361 78.291 198.962 80.0513C199.315 80.3038 199.755 80.4053 200.184 80.3336C200.613 80.2619 200.995 80.0228 201.248 79.6689C201.5 79.315 201.602 78.8753 201.53 78.4465C201.459 78.0177 201.219 77.635 200.865 77.3825C198.096 75.2904 195.303 73.2327 192.503 71.181C192.188 70.9113 191.941 70.5709 191.783 70.1876C191.508 69.4409 191.807 68.6782 192.187 67.9902C193.242 66.4343 194.306 64.8844 195.342 63.3163C195.571 62.9618 195.654 62.5326 195.575 62.1181C195.496 61.7036 195.26 61.3355 194.916 61.0904C194.573 60.8453 194.148 60.742 193.73 60.8019C193.312 60.8619 192.934 61.0805 192.673 61.4124C191.864 62.4625 191.073 63.5227 190.279 64.585C190.257 64.6052 190.235 64.6234 190.213 64.6477C189.986 64.9213 189.777 65.2092 189.587 65.5096L188.94 66.3594C188.815 66.5022 188.673 66.6293 188.517 66.7378C187.858 67.1748 187.022 66.9624 186.253 66.6467L179.374 61.6835C178.496 60.7305 178.609 59.7026 179.084 58.5858C180.189 57.0845 181.284 55.5771 182.37 54.0636C182.415 54.0174 182.456 53.9673 182.492 53.9139L182.668 53.6529L183.382 52.6614C183.89 52.0383 184.489 51.5183 185.312 51.3119C185.872 51.1791 186.455 51.1861 187.012 51.3321C189.274 52.9326 191.538 54.533 193.814 56.1133C197.254 58.5069 200.716 60.8924 204.21 63.2212C204.564 63.4737 205.004 63.5753 205.432 63.5035C205.861 63.4318 206.244 63.1927 206.496 62.8388C206.749 62.4849 206.85 62.0452 206.779 61.6164C206.707 61.1877 206.468 60.8049 206.114 60.5524C204.696 59.4733 203.272 58.403 201.841 57.3414C201.644 57.052 201.507 56.7268 201.436 56.3844C201.315 55.5568 201.976 54.6888 202.415 53.9382C203.309 52.711 204.101 51.4131 204.785 50.0574C204.958 49.7039 205.001 49.3002 204.904 48.9183C204.808 48.5364 204.579 48.2012 204.259 47.9725C203.938 47.7437 203.546 47.6364 203.154 47.6695C202.762 47.7027 202.394 47.8742 202.116 48.1535C201.018 49.2827 200.015 50.5008 199.117 51.7955C198.919 52.0787 198.723 52.364 198.529 52.6513C198.194 52.9534 197.776 53.148 197.329 53.2098C196.764 53.2341 196.204 53.101 195.71 52.8253C193.912 51.5102 192.108 50.2031 190.298 48.9041C189.902 48.568 189.529 48.2064 189.181 47.8216C187.94 46.3325 189.203 44.5216 190.093 43.2024C190.13 43.1468 190.162 43.0879 190.188 43.0263C190.413 42.7046 190.64 42.3849 190.864 42.0632L193.836 37.7373C194.808 36.2805 195.797 34.8379 196.75 33.369C196.979 33.0144 197.063 32.5853 196.983 32.1707C196.904 31.7562 196.668 31.3881 196.325 31.143C195.981 30.8979 195.556 30.7946 195.138 30.8546C194.721 30.9145 194.342 31.1332 194.081 31.465C193.003 32.8449 191.961 34.2511 190.901 35.6432L187.777 39.8618C187.439 40.3232 187.105 40.7865 186.765 41.2478C186.271 41.8083 185.773 42.3688 185.237 42.8665C184.379 43.6758 183.159 43.3865 182.044 43.0203L175.495 38.4071H175.481C175.205 38.0642 174.996 37.6731 174.864 37.2538C174.718 36.7378 175.127 36.1895 175.471 35.6472L176.596 33.9699C177.184 33.0493 177.789 32.1489 178.362 31.2121C178.58 30.8575 178.656 30.4331 178.573 30.025C178.491 29.6168 178.256 29.2552 177.917 29.0134C177.578 28.7715 177.16 28.6674 176.747 28.7221C176.334 28.7769 175.958 28.9863 175.693 29.3081C174.997 30.1519 174.338 31.0199 173.67 31.8757L172.025 34.0488C171.692 34.3278 171.285 34.5033 170.853 34.5536C170.422 34.6039 169.985 34.5269 169.597 34.3321L168.875 33.8424L168.83 33.8121C167.596 32.9724 166.362 32.1327 165.115 31.3072C164.761 31.0783 164.332 30.9947 163.917 31.074C163.502 31.1532 163.134 31.3891 162.889 31.7327C162.644 32.0763 162.541 32.5011 162.601 32.9188C162.661 33.3366 162.879 33.7152 163.211 33.976C164.35 34.8521 165.502 35.71 166.651 36.5699C167.013 37.0231 167.432 37.4298 167.711 38.0004C168.061 38.7146 167.899 39.4552 167.568 40.1552C166.41 41.8144 165.233 43.4614 164.104 45.1407C163.645 45.8152 163.19 46.4896 162.74 47.1641C162.538 47.3042 162.322 47.4241 162.096 47.5222C161 47.9835 159.95 47.7124 158.942 47.2672L158.649 47.0649L152.512 42.8847C152.158 42.6322 151.718 42.5307 151.29 42.6024C150.861 42.6741 150.478 42.9132 150.226 43.2671C149.973 43.621 149.872 44.0607 149.943 44.4895C150.015 44.9183 150.254 45.301 150.608 45.5535L156.559 50.0048L162.55 54.3894L170.319 59.99C170.582 60.2449 170.868 60.4938 171.153 60.7993C171.394 61.0445 171.57 61.3464 171.665 61.6772C171.76 62.008 171.77 62.3573 171.695 62.6931C171.033 63.6745 170.37 64.6537 169.718 65.6432C169.489 65.9977 169.406 66.4268 169.485 66.8414C169.564 67.2559 169.8 67.624 170.144 67.8691C170.487 68.1142 170.912 68.2175 171.33 68.1576C171.748 68.0976 172.126 67.879 172.387 67.5471C172.852 66.9401 173.308 66.3331 173.769 65.7261C174.153 65.2674 174.638 64.9032 175.185 64.6618C175.912 64.3887 176.533 64.587 177.17 64.8824L183.811 69.5664C184.564 70.2645 185.288 71.0293 184.75 72.047C184.711 72.1198 184.667 72.1846 184.626 72.2493L179.062 79.9623C178.985 80.0372 178.908 80.1019 178.831 80.1849C178.152 80.9254 177.354 80.8485 176.555 80.545C173.247 78.1473 169.925 75.7699 166.613 73.3804L155.838 65.7929C155.631 65.5239 155.471 65.2224 155.363 64.9006C155.199 64.3462 155.363 63.8141 155.642 63.3163C156.387 62.2015 157.137 61.0907 157.868 59.9596C158.097 59.6051 158.18 59.1759 158.101 58.7614C158.022 58.3469 157.786 57.9788 157.442 57.7337C157.099 57.4886 156.674 57.3852 156.256 57.4452C155.838 57.5052 155.46 57.7238 155.199 58.0557C154.266 59.2393 153.364 60.4452 152.449 61.641C152.255 61.7736 152.045 61.8804 151.824 61.9587C151.179 62.1812 150.563 61.9931 149.987 61.7057L148.378 60.5889L142.239 56.4107C141.886 56.1582 141.446 56.0567 141.017 56.1284C140.588 56.2001 140.206 56.4392 139.953 56.7931C139.701 57.147 139.599 57.5867 139.671 58.0155C139.742 58.4442 139.982 58.827 140.336 59.0795L146.284 63.5308L147.257 64.243C148.316 65.2891 148.674 66.2663 147.783 67.7899C147.581 68.144 147.367 68.4839 147.158 68.8238C146.045 70.3602 144.936 71.8986 143.83 73.4391C143.553 73.8437 143.273 74.2282 142.996 74.6207C142.865 74.7036 142.733 74.7866 142.592 74.8675C141.535 75.5008 140.771 75.1387 139.803 74.5317C139.726 74.4837 139.642 74.4463 139.554 74.4204L139.474 74.3657C138.241 73.5564 137.005 72.7471 135.724 71.9984C135.37 71.788 134.949 71.7184 134.545 71.8034C134.142 71.8885 133.785 72.122 133.546 72.4577C133.306 72.7934 133.201 73.2068 133.252 73.616C133.303 74.0252 133.506 74.4004 133.82 74.6672C134.943 75.6323 136.107 76.5408 137.278 77.4412C137.831 77.8702 138.391 78.289 138.954 78.7038C139.007 78.7846 139.052 78.8707 139.087 78.9607C139.226 79.3789 139.212 79.8329 139.047 80.2415C138.81 80.5834 138.569 80.9213 138.334 81.2532C136.526 83.8835 134.729 86.5138 132.985 89.1786C132.732 89.5333 132.63 89.9739 132.703 90.4034C132.775 90.8329 133.014 91.2162 133.369 91.469C133.724 91.7217 134.164 91.8232 134.594 91.7511C135.024 91.679 135.407 91.4393 135.66 91.0845V91.0845ZM173.844 83.3129C174.489 83.9584 175.015 84.6847 174.789 85.4577C174.618 85.9727 174.386 86.4653 174.097 86.9246C172.738 88.844 171.39 90.7682 170.05 92.6971L169.554 93.4134C169.352 93.5732 169.13 93.7351 168.903 93.899C168.347 94.3037 167.717 94.1883 167.094 93.9577L166.878 93.8019C165.198 92.6142 163.517 91.4265 161.807 90.2813C160.941 89.6959 160.072 89.1158 159.201 88.5412C158.991 88.265 158.873 87.9293 158.865 87.5822C158.884 87.2678 158.963 86.9601 159.098 86.6757C159.712 85.8003 160.324 84.9235 160.935 84.0454L163.6 80.1585C164.182 79.5515 164.814 79.0295 165.566 78.8575C166.376 78.6734 167.339 78.985 168.274 79.3957C170.127 80.7136 171.984 82.022 173.844 83.321V83.3129ZM166.056 52.2365L165.997 52.1779C165.129 51.2229 165.36 50.0979 165.866 49.0579C166.303 48.4833 166.74 47.9086 167.173 47.332C168.361 45.7599 169.502 44.1574 170.661 42.565C170.719 42.5298 170.773 42.4905 170.825 42.4477C171.918 41.4926 173.105 41.3571 174.247 42.2939C174.71 42.7069 175.237 43.0436 175.807 43.2914L180.743 46.8565C180.961 47.0853 181.122 47.3628 181.211 47.6658C181.413 48.4752 180.885 49.24 180.493 49.8915C180.367 50.0938 180.25 50.2962 180.138 50.4985C178.924 52.2197 177.714 53.9449 176.507 55.6742C176.205 56.0343 175.914 56.4107 175.57 56.7708C174.73 57.651 174.19 57.5013 173.142 57.0035C172.436 56.6656 171.764 56.1942 171.09 55.7895C171.072 55.7794 171.054 55.7733 171.036 55.7632L166.056 52.2365Z" fill="black"/>
<path d="M308.167 147.428L306.449 153.053C306.339 153.415 306.332 153.801 306.428 154.167C306.525 154.533 306.722 154.865 306.997 155.125C307.272 155.385 307.614 155.564 307.985 155.64C308.355 155.717 308.74 155.688 309.096 155.558L313.853 153.816L318.591 152.023C320.175 151.437 321.739 150.795 323.312 150.182C324.884 149.569 326.446 148.918 328.004 148.26C328.395 148.099 328.71 147.793 328.881 147.405C329.052 147.018 329.067 146.579 328.922 146.181C328.777 145.783 328.484 145.457 328.104 145.27C327.724 145.083 327.286 145.05 326.883 145.179C325.264 145.674 323.645 146.19 322.051 146.718C320.457 147.246 318.84 147.77 317.25 148.337L314.103 149.436C313.733 149.432 313.367 149.345 313.035 149.181C312.384 148.839 312.299 148.272 312.382 147.669L315.135 138.787C315.25 138.414 315.258 138.016 315.156 137.64C315.054 137.263 314.848 136.923 314.561 136.659C314.275 136.394 313.919 136.216 313.535 136.146C313.152 136.075 312.756 136.115 312.394 136.26L292.612 144.177L282.742 148.189C279.456 149.538 276.178 150.907 272.908 152.297C272.51 152.46 272.192 152.774 272.023 153.17C271.854 153.566 271.848 154.013 272.006 154.414C272.164 154.814 272.473 155.137 272.867 155.311C273.261 155.486 273.707 155.498 274.11 155.346C277.447 154.132 280.777 152.895 284.099 151.635L294.05 147.829L305.15 143.515C306.291 143.192 308.46 142.552 308.734 143.139C308.968 143.641 308.675 144.77 308.604 145.294C308.5 146.013 308.354 146.726 308.167 147.428V147.428Z" fill="black"/>
</svg>
