<svg width="21" height="21" viewBox="0 0 21 21" fill="none" xmlns="http://www.w3.org/2000/svg">
<path fill-rule="evenodd" clip-rule="evenodd" d="M18.5001 10H17.0001V6C17.0001 4.9 16.1001 4 15.0001 4H11.0001V2.5C11.0001 1.12 9.88012 0 8.50012 0C7.12012 0 6.00012 1.12 6.00012 2.5V4H2.00012C0.900122 4 0.0101221 4.9 0.0101221 6V9.8H1.50012C2.99012 9.8 4.20012 11.01 4.20012 12.5C4.20012 13.99 2.99012 15.2 1.50012 15.2H0.00012207V19C0.00012207 20.1 0.900122 21 2.00012 21H5.80012V19.5C5.80012 18.01 7.01012 16.8 8.50012 16.8C9.99012 16.8 11.2001 18.01 11.2001 19.5V21H15.0001C16.1001 21 17.0001 20.1 17.0001 19V15H18.5001C19.8801 15 21.0001 13.88 21.0001 12.5C21.0001 11.12 19.8801 10 18.5001 10Z" fill="#FF6D43"/>
</svg>
