<svg width="524" height="420" viewBox="0 0 524 420" fill="none" xmlns="http://www.w3.org/2000/svg">
<path d="M435.203 114.536L435.161 114.438C432.155 109.933 428.864 105.625 425.309 101.541C424.183 100.26 423.133 99.1106 422.098 98.025L421.974 97.8946L421.809 97.9487C399.786 77.1556 372.646 74.7617 347.344 91.3809L347.275 91.4271L347.241 91.5013C346.74 92.6029 346.39 93.7673 346.202 94.9628L346.176 95.2016C346.142 95.5227 346.105 95.8397 346.059 96.1728C346.022 96.6294 346.009 97.0875 346.019 97.5454C346.027 97.6891 346.005 97.8328 345.954 97.9673C345.903 98.1018 345.824 98.224 345.722 98.326L345.66 98.3862L345.642 98.4685C344.388 104.198 341.629 108.885 337.689 112.024C334.633 114.502 330.819 115.859 326.884 115.868C324.968 115.86 323.066 115.561 321.241 114.979C320.009 114.586 318.848 113.998 317.801 113.24C316.473 112.628 314.683 111.987 312.584 112.489C311.123 112.842 309.825 113.559 308.854 114.143C304.271 117.023 299.952 120.303 295.947 123.943L295.905 123.991C293.345 127.682 291.249 131.673 289.664 135.875C283.814 151.184 284.631 161.277 285.582 172.988C285.773 175.336 285.97 177.762 286.11 180.278C286.133 180.934 286.323 181.573 286.662 182.135L286.814 182.377L287.057 182.223C287.39 182.007 287.677 181.728 287.904 181.402C288.492 180.599 288.815 179.55 288.887 178.191L288.526 174.955C288.526 174.913 288.526 174.868 288.512 174.816L288.428 174.034C288.419 173.943 288.425 173.851 288.448 173.763C288.448 173.562 288.448 173.361 288.476 173.098C288.584 171.662 289.096 170.191 289.995 168.724C290.293 168.246 290.622 167.788 290.98 167.353L291.247 166.936C292.317 165.274 293.531 163.392 293.17 160.884C293.079 160.254 293.017 159.75 292.969 159.291C292.906 158.817 292.883 158.339 292.901 157.862C292.911 157.758 292.917 157.661 292.925 157.547V157.503C292.934 157.267 292.959 157.032 293.001 156.8L293.23 155.771L293.609 154.768C293.685 154.566 293.778 154.372 293.886 154.186C293.948 154.073 294.008 153.959 294.056 153.861C294.713 152.68 295.57 151.623 296.589 150.736C296.911 150.433 297.255 150.154 297.618 149.901C297.791 149.775 297.961 149.651 298.104 149.536L298.505 149.283C298.915 149.015 299.337 148.767 299.771 148.541C300.658 148.075 301.509 147.726 302.33 147.387L302.378 147.367C302.637 147.261 302.898 147.154 303.151 147.046C305.276 146.225 307.517 145.487 310.005 144.786C313.448 143.841 316.942 143.094 320.47 142.551C321.357 142.362 322.276 142.12 322.774 141.403C323.085 140.968 323.175 140.44 323.051 139.772L323.029 139.716C322.737 139.15 322.478 138.568 322.254 137.972C321.821 136.817 321.565 135.603 321.496 134.372C321.42 133.098 321.593 131.821 322.005 130.613C322.434 129.406 323.092 128.293 323.942 127.334C324.786 126.398 325.786 125.615 326.898 125.019C327.988 124.425 329.168 124.015 330.391 123.805C331.613 123.584 332.863 123.562 334.092 123.738C335.29 123.895 336.464 124.208 337.581 124.67C338.674 125.111 339.722 125.66 340.707 126.307C342.758 127.619 344.52 129.211 345.969 130.595C347.418 131.98 348.778 133.405 350.111 134.809C351.804 136.575 353.402 138.243 355.127 139.826C358.739 143.173 362.151 145.31 365.542 146.364C365.719 146.41 365.893 146.46 366.07 146.512C366.365 146.598 366.672 146.687 367.001 146.755L368.544 147.092C368.895 147.168 369.246 147.231 369.595 147.293L370.109 147.385C370.645 147.485 371.175 147.572 371.678 147.638C373.968 148.001 376.276 148.172 378.03 148.28C379.021 148.336 380.036 148.37 381.122 148.388C383.969 148.34 387.884 147.885 389.002 144.479C390.035 141.333 386.307 137.928 383.839 135.674L383.363 135.241C382.472 134.48 381.557 133.75 380.927 133.252C380.701 133.063 380.557 132.793 380.525 132.5C380.493 132.206 380.576 131.912 380.756 131.679C380.937 131.445 381.2 131.291 381.492 131.247C381.784 131.204 382.081 131.275 382.322 131.446C383.632 132.421 385.167 133.593 386.624 134.894C387.882 135.977 389.152 137.183 390.619 138.69C391.249 139.344 391.863 140.005 392.459 140.673L392.512 140.713C392.654 140.804 392.816 140.862 392.984 140.883C393.152 140.903 393.322 140.886 393.483 140.831C394.055 140.631 394.564 139.958 395.008 138.809C395.714 136.174 396.868 133.681 398.419 131.438C401.53 126.893 406.045 123.026 411.483 120.257C416.921 117.488 422.72 116.181 428.252 116.42C428.969 116.454 429.697 116.518 430.432 116.609L432.007 116.625C432.208 116.625 432.444 116.651 432.685 116.673C433.418 116.741 434.248 116.819 434.806 116.543C435.316 116.276 435.436 115.625 435.203 114.536Z" fill="#FF4569"/>
<path d="M420.037 194.821C417.986 194.275 415.755 194.498 413.598 194.712C413.088 194.763 412.584 194.813 412.091 194.851C409.863 195.027 407.638 195.201 405.414 195.371C402.418 195.71 399.354 196.001 396.041 196.262C387.236 196.974 379.428 197.064 372.162 196.524C368.17 196.24 364.197 195.741 360.258 195.029C356.715 194.389 352.902 193.492 348.602 192.29C347.779 192.066 346.96 191.831 346.144 191.598C343.109 190.733 340.244 189.914 337.368 189.549C334.96 189.379 331.537 189.417 329.729 191.735L329.701 191.771V191.815C329.675 192.404 329.804 192.991 330.076 193.514C338.374 209.969 346.842 222.659 355.988 232.307C359.833 235.012 365.199 238.189 371.217 238.189C373.217 238.19 375.201 237.831 377.074 237.129C380.66 235.789 383.873 233.503 386.977 231.292C387.625 230.83 388.271 230.371 388.916 229.921C392.502 227.42 396.093 224.918 399.689 222.416L405.784 217.516C411.236 212.62 416.644 207.641 421.873 202.691C422.074 202.392 422.274 202.089 422.525 201.754L422.726 201.471C423.502 200.415 424.235 199.42 423.785 197.895C423.199 195.85 420.968 195.064 420.037 194.821Z" fill="#FF4569"/>
<path d="M178.256 223.402L159.144 179.57L158.637 178.549L158.133 177.545L158.115 177.475C158.079 177.333 158.043 177.186 157.994 177.044L157.914 176.801L157.832 176.552L137.284 129.421C137.187 129.202 137.072 128.99 136.941 128.789L136.93 128.773H136.912C136.794 128.715 136.676 128.661 136.559 128.611C136.477 128.41 136.38 128.215 136.268 128.029L136.254 128.013C135.494 127.343 134.512 126.979 133.498 126.993C132.485 127.007 131.513 127.398 130.772 128.089L105.905 151.318C102.793 154.242 100.721 158.103 100.006 162.313L97.7283 175.928C96.897 180.847 94.4773 185.357 90.8394 188.771L51.9101 225.198L51.8739 225.232L51.894 225.278C59.2705 242.371 66.6457 259.464 74.0195 276.558L88.2929 309.644C88.6948 310.619 89.4322 311.417 90.3718 311.896L90.416 311.918L176.636 231.228C177.679 230.248 178.393 228.971 178.683 227.571C178.973 226.17 178.824 224.714 178.256 223.402V223.402ZM135.869 232.464C136.268 232.809 136.59 233.234 136.814 233.711C137.039 234.188 137.16 234.708 137.171 235.235C137.181 235.762 137.081 236.286 136.876 236.772C136.671 237.258 136.366 237.696 135.981 238.056L120.052 253.02C119.356 253.68 118.433 254.047 117.474 254.045C117.051 254.048 116.63 253.98 116.23 253.845C115.579 253.619 115.003 253.219 114.564 252.689C114.125 252.158 113.84 251.516 113.741 250.835L112.068 239.573C112.038 239.365 111.934 239.174 111.774 239.035C111.615 238.897 111.412 238.82 111.201 238.819H111.153C109.396 238.941 107.634 238.667 105.998 238.016C102.598 236.662 100.028 233.802 98.7597 229.975C97.4915 226.149 97.6821 221.798 99.2975 217.747C100.356 215.079 102.009 212.688 104.132 210.756C104.219 210.665 104.314 210.582 104.416 210.509C108.562 206.955 113.681 205.893 118.108 207.647C124.405 210.16 127.559 217.633 125.611 225.416L125.428 226.143C125.397 226.268 125.408 226.401 125.46 226.52C125.512 226.638 125.602 226.736 125.715 226.799L135.213 232.016C135.397 232.119 135.573 232.238 135.737 232.371L135.869 232.464Z" fill="#8066FF"/>
<path d="M65.146 288.008V287.96L43.3877 238.05C42.7258 236.527 42.4506 234.863 42.5864 233.207C42.7222 231.551 43.2649 229.955 44.1663 228.559L44.1884 228.501C44.2237 228.338 44.2989 228.187 44.4071 228.061C45.7475 226.456 47.1341 224.782 48.1937 222.898C50.8685 215.825 49.0264 209.622 43.2693 206.309C41.5889 205.343 39.7179 204.756 37.787 204.588C35.8562 204.421 33.9119 204.676 32.0902 205.338C30.2982 206.369 28.6909 207.692 27.4869 208.731L25.0949 210.964C25.0776 210.987 25.0616 211.01 25.0468 211.035L25.0167 211.079C24.8911 211.291 24.7013 211.457 24.4749 211.554L6.57139 228.22C5.73764 228.992 5.17144 230.009 4.95495 231.124C4.73846 232.239 4.88293 233.395 5.36739 234.422V234.465L5.42559 234.527C5.58247 234.695 5.75004 234.852 5.92725 234.998C5.95133 235.131 5.98143 235.267 6.02357 235.438L6.05568 235.506C6.12708 235.606 6.20625 235.7 6.29247 235.787L58.1387 291.45L58.1869 291.502L58.2571 291.514C58.3273 291.526 58.3976 291.536 58.4778 291.546C58.843 291.972 59.2143 292.397 59.5975 292.83L59.6377 292.863C60.9861 293.697 62.4249 294.502 63.8176 294.719C64.0398 294.755 64.2645 294.775 64.4898 294.777C65.2202 294.777 65.758 294.544 66.0951 294.083C67.271 292.457 65.3266 288.643 65.2443 288.482C65.171 288.335 65.1371 288.172 65.146 288.008V288.008Z" fill="#8066FF"/>
<path d="M103.359 138.724L103.347 138.71C98.8921 133.78 94.1523 130.824 89.2581 129.921C84.4702 129.038 79.8709 130.224 75.5786 133.449L25.6147 177.088L25.3678 177.303L25.6929 177.337C25.9663 177.363 26.2417 177.357 26.5136 177.319C33.9383 176.389 43.2111 182.612 48.1555 188.939C53.2986 195.511 57.338 203.187 60.938 210.485C61.1175 210.864 61.381 211.198 61.7086 211.46L61.8049 211.536L65.5895 207.988L88.638 186.419C91.7588 183.489 93.8344 179.617 94.5477 175.396L96.8513 161.783C97.4357 158.332 98.8092 155.064 100.865 152.231L100.887 152.187C100.944 151.992 101.045 151.812 101.182 151.661L101.284 151.547C103.164 149.45 105.297 147.072 105.329 144.092C105.333 142.389 104.711 140.685 103.359 138.724Z" fill="#1DFFC4"/>
<path d="M259.462 118.01C258.701 117.417 257.906 116.872 257.08 116.376C261.628 110.256 263.605 102.602 262.588 95.0448C261.571 87.488 257.642 80.6278 251.638 75.9277C238.947 65.9787 220.522 68.2181 210.573 80.9083C207.214 85.1891 205.123 90.326 204.537 95.7356C199.939 92.0353 195.313 88.3651 190.659 84.725C186.929 81.8006 183.183 78.8956 179.422 76.01C175.681 73.1084 171.895 70.2529 168.13 67.3814C160.585 61.6476 152.985 55.9821 145.33 50.3849C137.665 44.7943 129.961 39.2659 122.103 33.9302C121.083 33.2445 119.841 32.9702 118.627 33.1625C117.413 33.3548 116.317 33.9994 115.559 34.9668C114.8 35.9342 114.436 37.1527 114.54 38.3776C114.643 39.6024 115.206 40.7428 116.115 41.5696C118.122 43.3796 120.147 45.1769 122.192 46.9615L101.768 73.0161C101.211 73.7249 100.8 74.5366 100.557 75.4046C100.315 76.2727 100.246 77.1801 100.354 78.0748C100.463 78.9695 100.747 79.834 101.19 80.6187C101.634 81.4035 102.227 82.0931 102.938 82.6481L126.269 100.927C127.476 101.869 128.964 102.382 130.495 102.384C130.772 102.383 131.049 102.367 131.324 102.337C133.128 102.116 134.77 101.19 135.893 99.7609L155.414 74.8482C156.807 75.9839 158.201 77.1317 159.6 78.2595C163.29 81.2294 166.968 84.2213 170.681 87.1631C174.393 90.1049 178.105 93.0687 181.83 95.9924C186.468 99.6312 191.128 103.243 195.81 106.828C190.721 108.694 186.255 111.944 182.913 116.212C172.97 128.908 175.204 147.327 187.9 157.276C193.907 161.98 201.516 164.15 209.101 163.323C216.686 162.496 223.648 158.738 228.501 152.849C229.181 153.533 229.902 154.176 230.66 154.774C234.749 157.997 239.805 159.749 245.012 159.748C245.966 159.749 246.92 159.69 247.867 159.572C250.914 159.213 253.859 158.252 256.531 156.746C259.204 155.24 261.551 153.219 263.437 150.799C271.375 140.655 269.593 125.948 259.462 118.01ZM218.174 143.835C216.279 146.253 213.709 148.054 210.79 149.011C207.871 149.968 204.734 150.038 201.775 149.212C198.816 148.387 196.168 146.702 194.166 144.372C192.164 142.042 190.898 139.171 190.528 136.121C190.157 133.072 190.699 129.981 192.085 127.239C193.471 124.498 195.638 122.229 198.314 120.719C200.989 119.209 204.051 118.526 207.115 118.756C210.178 118.987 213.104 120.12 215.524 122.013C218.766 124.558 220.865 128.285 221.362 132.377C221.859 136.469 220.713 140.59 218.174 143.837V143.835ZM221.361 89.3664C222.616 87.7543 224.178 86.4076 225.958 85.4045C227.737 84.4014 229.699 83.7618 231.727 83.523C232.358 83.4431 232.994 83.4028 233.63 83.4026C237.144 83.4091 240.553 84.6063 243.3 86.799C246.046 88.9917 247.969 92.0504 248.754 95.4762C249.539 98.902 249.14 102.493 247.622 105.663C246.104 108.832 243.557 111.394 240.395 112.93C237.234 114.467 233.646 114.886 230.216 114.121C226.785 113.355 223.716 111.45 221.507 108.716C219.299 105.982 218.082 102.58 218.056 99.0659C218.029 95.5514 219.194 92.1316 221.361 89.3644V89.3664ZM237.466 130.443C238.244 129.444 239.212 128.609 240.314 127.987C241.416 127.364 242.631 126.967 243.888 126.817C244.28 126.769 244.675 126.745 245.07 126.743C247.25 126.747 249.365 127.489 251.07 128.85C252.774 130.21 253.967 132.108 254.454 134.234C254.942 136.359 254.694 138.587 253.752 140.554C252.811 142.521 251.23 144.111 249.269 145.064C247.307 146.018 245.081 146.278 242.952 145.803C240.824 145.329 238.919 144.147 237.549 142.45C236.178 140.754 235.423 138.643 235.406 136.463C235.39 134.282 236.112 132.16 237.456 130.443H237.466Z" fill="#FFEC61"/>
<path d="M299.087 79.6002L293.97 79.5058C293.264 79.4216 292.431 79.3052 291.931 78.7754C291.7 78.5125 291.526 78.2043 291.42 77.8704L289.513 66.6873C289.443 66.3255 289.236 66.0047 288.936 65.7919C288.635 65.5792 288.263 65.4909 287.899 65.5456C287.534 65.6002 287.205 65.7936 286.98 66.0852C286.755 66.3769 286.651 66.7443 286.69 67.1107L288.546 81.4022V81.4282C288.601 81.8381 288.807 82.2125 289.125 82.4777C289.442 82.743 289.847 82.8797 290.26 82.861L299.123 82.4597C299.493 82.4418 299.842 82.281 300.095 82.0112C300.349 81.7414 300.488 81.3837 300.483 81.0135C300.478 80.6433 300.329 80.2894 300.069 80.0265C299.808 79.7636 299.455 79.6122 299.085 79.6042L299.087 79.6002Z" fill="black"/>
<path d="M519.712 57.0591C513.79 50.3248 501.452 50.1421 483.056 56.5173C466.014 62.4229 444.225 73.8911 420.047 89.6936C419.807 89.8507 419.61 90.0661 419.475 90.3198C419.34 90.5735 419.272 90.8572 419.276 91.1444C416.23 88.2513 413.014 85.5428 409.644 83.0334C406.412 80.6148 402.998 78.4492 399.433 76.5559C395.847 74.6817 392.064 73.0844 388.051 72.0951C386.027 71.5891 383.959 71.2754 381.876 71.158C379.765 71.0864 377.653 71.2629 375.583 71.6837C371.512 72.4864 367.685 73.8911 364.001 75.5225C360.341 77.1656 356.777 79.0154 353.327 81.0629C350.317 82.8388 347.416 84.701 344.554 86.7177C342.624 84.4562 340.978 81.9779 339.843 79.305C339.182 77.7635 338.715 76.1458 338.454 74.489C338.326 73.6786 338.263 72.8593 338.265 72.0389C338.265 71.6376 338.293 71.2362 338.328 70.8349C338.35 70.6342 338.374 70.4516 338.402 70.263L338.42 70.1948C342.433 66.4363 345.879 61.9875 348.267 56.9508C350.735 51.7716 352.079 45.9502 351.678 40.0948C351.487 37.1552 350.809 34.2678 349.671 31.5504C348.527 28.8127 346.874 26.317 344.799 24.1959C342.724 22.0756 340.275 20.3565 337.575 19.1251C335.216 18.0528 332.726 17.2977 330.168 16.8796C329.502 15.3262 328.662 13.8528 327.666 12.487C326.467 10.8674 325.073 9.40213 323.514 8.12454C320.424 5.57808 316.844 3.75603 313.108 2.54401C309.35 1.30763 305.405 0.735864 301.451 0.854391C300.949 0.866431 300.448 0.9166 299.948 0.956733C299.448 0.996867 298.989 1.05305 298.509 1.11726C297.544 1.24368 296.585 1.39218 295.632 1.57478C293.71 1.93254 291.816 2.43087 289.967 3.06574C286.255 4.32192 282.759 6.22423 279.606 8.41752C276.454 10.6108 273.574 13.0148 270.53 14.8649C269.039 15.7872 267.453 16.5474 265.801 17.1325C264.157 17.7032 262.45 18.0731 260.718 18.2341C257.234 18.5773 253.63 18.1719 250.082 17.4315L250.048 17.4194C249.894 17.3893 249.737 17.3818 249.581 17.3974C249.359 17.4141 249.142 17.4746 248.943 17.5753C248.744 17.676 248.567 17.815 248.422 17.9844C248.278 18.1537 248.168 18.3499 248.099 18.5619C248.03 18.7738 248.004 18.9973 248.022 19.2194C248.102 20.2227 248.222 21.0816 248.365 22.0006C248.507 22.9197 248.684 23.8066 248.878 24.6916C249.267 26.4816 249.765 28.2461 250.369 29.9751C251.366 32.9262 252.747 35.7335 254.475 38.3249C254.986 38.9921 255.538 39.6274 256.126 40.2272C256.98 41.1093 257.886 41.9389 258.839 42.7115C259.799 43.4941 260.804 44.2365 261.849 44.9188C262.889 45.6101 263.964 46.2471 265.07 46.8271L265.088 46.8392C265.156 46.8729 265.216 46.9198 265.265 46.9771C265.314 47.0344 265.351 47.1009 265.373 47.1727C265.396 47.2446 265.404 47.3203 265.397 47.3953C265.391 47.4704 265.369 47.5433 265.333 47.6097C265.27 47.7305 265.166 47.8247 265.039 47.8752C264.912 47.9256 264.772 47.929 264.643 47.8846C263.406 47.4619 262.194 46.9723 261.011 46.4178C260.647 46.2472 260.134 45.9823 259.592 45.6914C259.306 45.5372 258.984 45.4623 258.659 45.4745C258.334 45.4868 258.019 45.5856 257.745 45.7608C257.471 45.936 257.25 46.1813 257.103 46.4711C256.956 46.7609 256.889 47.0847 256.909 47.4091C257.483 55.0123 261.135 61.9815 266.802 66.3961C267.134 66.7518 267.531 67.0406 267.972 67.247C269.428 68.2446 270.993 69.0727 272.637 69.7152C272.734 70.0804 272.82 70.4516 272.916 70.8168C273.955 74.6316 275.212 78.3836 276.681 82.0542C277.024 82.9672 277.469 83.8883 277.863 84.8073C278.256 85.7264 278.748 86.6133 279.205 87.5143C280.208 89.2681 281.232 91.022 282.494 92.6313L282.952 93.2333L283.449 93.8213C283.78 94.2106 284.105 94.6099 284.453 94.9871C285.173 95.7296 285.869 96.4781 286.66 97.1523C288.206 98.5469 289.921 99.7422 291.765 100.71C295.495 102.665 299.679 103.586 303.885 103.377C305.891 103.262 307.878 102.919 309.807 102.356C309.822 102.402 309.839 102.448 309.859 102.492L312.668 107.91C307.876 110.434 288.956 121.178 280.907 137.324C273.968 151.236 276.709 167.301 279.125 181.47C279.701 184.858 280.251 188.078 280.638 191.102C280.635 191.11 280.635 191.117 280.638 191.125C281.346 196.641 281.517 201.451 280.335 205.209C277.451 204.656 274.566 204.13 271.682 203.594C268.393 202.978 265.102 202.372 261.801 201.806C259.333 201.11 257.124 199.498 255.274 197.444C253.423 195.389 251.862 192.937 250.43 190.39C248.997 187.844 247.757 185.159 246.191 182.434C245.382 181.035 244.43 179.724 243.352 178.521C242.219 177.242 240.865 176.178 239.355 175.38C237.79 174.578 235.871 174.13 233.969 174.449C232.083 174.764 230.37 175.735 229.131 177.19C227.969 178.563 227.178 180.211 226.835 181.976C226.5 183.663 226.492 185.398 226.813 187.087C226.881 187.488 226.98 187.91 227.082 188.315C227.184 188.721 227.283 189.064 227.397 189.441C227.614 190.183 227.855 190.926 228.111 191.662C228.278 192.12 228.455 192.571 228.631 193.021C226.567 191.805 224.638 190.375 222.874 188.755C219.79 185.877 215.803 184.557 212.217 185.219C210.304 185.549 208.557 186.51 207.254 187.948C203.263 184.978 198.19 184.898 194.813 187.976C190.785 191.642 190.061 199.25 197.195 208.205C196.9 208.668 196.653 209.159 196.458 209.672C196.081 210.682 195.871 211.747 195.836 212.825C195.808 214.938 196.384 216.93 197.219 218.684C198.057 220.394 199.115 221.987 200.365 223.424C201.582 224.853 202.949 226.147 204.443 227.285C205.882 228.397 207.382 229.426 208.938 230.369C211.993 232.219 215.147 233.903 218.385 235.412C221.584 236.931 224.806 238.341 228.055 239.7C234.589 242.59 240.898 245.25 246.954 247.632C229.974 269.884 205.067 307.537 218.058 322.312C221.084 325.756 225.832 327.488 232.233 327.488C235.522 327.488 239.256 327.024 243.416 326.111C254.758 323.609 268.969 317.807 285.663 308.854C319.822 290.549 360.68 261.073 400.717 225.862C440.754 190.651 475.208 153.895 497.723 122.356C504.526 112.83 509.999 104.12 514.144 96.2273C514.567 95.6253 514.988 94.9992 515.412 94.3831C515.826 93.8015 516.059 93.1102 516.08 92.3965C517.636 89.2263 519.021 85.9756 520.232 82.6582C524.476 70.8971 524.295 62.2745 519.712 57.0591ZM303.713 99.9577C300.122 100.132 296.551 99.3413 293.37 97.668C291.775 96.825 290.292 95.7848 288.956 94.5718C288.259 93.9838 287.641 93.3096 287.007 92.6594C286.698 92.3223 286.405 91.9631 286.116 91.6139L285.671 91.0882L285.269 90.5344C284.138 89.0896 283.196 87.4782 282.281 85.8628C281.864 85.0281 281.431 84.2073 281.041 83.3565C280.652 82.5057 280.271 81.6548 279.934 80.7579C278.524 77.2175 277.318 73.5996 276.322 69.9219C275.92 68.4149 275.551 66.8958 275.208 65.3707C275.228 65.157 275.197 64.9415 275.116 64.7427C275.059 64.5942 275.007 64.4396 274.961 64.2912C274.893 63.948 274.825 63.6009 274.76 63.2517C274.684 62.6192 274.741 61.9778 274.928 61.3687C275.115 60.7597 275.428 60.1967 275.846 59.716C276.202 59.4488 276.576 59.2068 276.966 58.9916C277.44 58.7369 277.932 58.5175 278.439 58.3354C278.94 58.1467 279.46 58.0043 280.026 57.8337L280.283 57.7595C280.694 57.6366 281.053 57.3797 281.301 57.0297C281.55 56.6796 281.674 56.2565 281.654 55.8276C281.635 55.3988 281.472 54.9888 281.193 54.6629C280.913 54.337 280.533 54.1139 280.112 54.0291C278.641 53.7645 277.124 53.9375 275.75 54.5267C275.39 54.6398 275.021 54.7237 274.648 54.7776C274.06 54.8518 273.695 54.4866 273.432 54.023C273.073 52.6926 273.009 50.8826 274.122 49.9174C274.546 49.5462 275.126 49.4258 275.762 49.3756C279.21 49.5995 282.673 49.4886 286.1 49.0445C289.738 48.5769 293.268 47.5776 296.631 46.6004C298.305 46.1328 299.96 45.6633 301.491 45.4987C302.194 45.4068 302.906 45.4224 303.604 45.5449C304.219 45.6622 304.798 45.9227 305.294 46.3054C306.321 47.0699 307.156 48.4305 307.812 49.8973C308.473 51.4321 309.017 53.0145 309.44 54.6311C309.528 54.9562 309.711 55.248 309.965 55.4699C310.219 55.6918 310.532 55.8339 310.866 55.8784C311.2 55.923 311.54 55.868 311.843 55.7204C312.146 55.5727 312.399 55.339 312.57 55.0484L312.588 55.0264C313.525 53.4391 314.795 52.0906 316.387 51.2739C317.995 50.4283 319.804 50.039 321.618 50.1482C325.284 50.3368 328.894 52.496 330.447 55.7227C330.829 56.5365 331.094 57.3998 331.236 58.2872C331.391 59.2037 331.434 60.1355 331.366 61.0624C331.238 62.9194 330.643 64.714 329.637 66.2798C328.649 67.8373 327.247 69.0883 325.587 69.8918C323.911 70.6854 322.041 70.9787 320.201 70.7366C319.826 70.6812 319.445 70.7771 319.141 71.0031C318.836 71.229 318.634 71.5666 318.579 71.9416C318.524 72.3165 318.619 72.6981 318.845 73.0023C319.071 73.3066 319.409 73.5086 319.784 73.564C322.181 73.9625 324.642 73.6608 326.872 72.6951C327.555 72.3887 328.208 72.02 328.824 71.5934C328.924 71.5499 329.017 71.4939 329.103 71.4269C330.195 70.6041 332.215 68.8804 333.688 69.8456C334.39 70.3091 334.491 71.4911 334.653 72.2335C334.734 72.5707 334.808 72.9018 334.882 73.2369C334.916 73.8389 334.978 74.4188 335.071 75.0068C335.371 76.9466 335.916 78.8407 336.692 80.6435C337.07 81.5344 337.493 82.4051 337.96 83.2521C338.004 83.3639 338.061 83.4698 338.131 83.5672C338.159 83.6073 338.183 83.6475 338.211 83.6816C338.854 84.808 339.564 85.8948 340.336 86.9364C341.45 88.8487 342.295 90.8193 342.632 93.0066C342.323 99.9797 339.656 106.006 335.173 109.582C331.547 112.459 327.108 113.394 322.569 112.261C319.342 111.119 316.908 108.348 316.834 104.744C316.76 101.009 319.222 98.3523 321.65 95.846C321.788 95.7072 321.897 95.542 321.969 95.3604C323.045 94.355 324.055 93.2826 324.995 92.1497C325.236 91.8656 325.356 91.4986 325.33 91.1272C325.303 90.7558 325.133 90.4093 324.855 90.1618C324.577 89.9143 324.213 89.7853 323.841 89.8025C323.469 89.8196 323.118 89.9814 322.864 90.2534L322.846 90.2715C320.32 92.98 317.367 95.2551 314.103 97.0059C310.846 98.6774 307.298 99.769 303.713 99.9577ZM283.969 138.875C289.525 127.72 301.026 119.079 308.45 114.394C309.598 113.703 310.798 113.091 312.094 112.778C313.922 112.339 315.55 112.778 317.111 113.509C318.167 114.275 319.339 114.867 320.583 115.262C322.435 115.853 324.367 116.158 326.312 116.165C330.312 116.162 334.19 114.783 337.294 112.259C341.332 109.048 344.117 104.206 345.347 98.5409C345.476 98.4123 345.577 98.2579 345.643 98.0879C345.709 97.9178 345.739 97.7359 345.73 97.5537C345.721 97.1038 345.734 96.6537 345.77 96.2052C345.826 95.8038 345.867 95.4025 345.913 95.0012C346.43 91.7601 348.121 88.8224 350.665 86.7478C352.115 85.8167 353.582 84.9097 355.063 84.0408C358.402 82.0654 361.849 80.2806 365.389 78.695C368.913 77.1419 372.551 75.8275 376.226 75.1091C378.025 74.7434 379.862 74.5898 381.698 74.6516C383.554 74.7591 385.395 75.042 387.198 75.4964C390.854 76.3994 394.394 77.8903 397.787 79.6723C401.189 81.4878 404.447 83.5614 407.532 85.8749C413.752 90.4902 419.389 95.9082 424.516 101.728C428.065 105.802 431.349 110.1 434.349 114.594C434.519 115.397 434.525 116.061 434.126 116.262C433.458 116.593 432.183 116.324 431.459 116.314L429.882 116.296C429.161 116.204 428.437 116.141 427.711 116.107C421.799 115.85 415.98 117.357 410.8 119.974C405.621 122.591 400.968 126.365 397.631 131.248C396.063 133.519 394.897 136.041 394.181 138.706C393.78 139.74 393.061 141.002 392.108 140.436C391.509 139.767 390.898 139.108 390.274 138.46C388.984 137.135 387.666 135.851 386.261 134.647C384.856 133.443 383.421 132.289 381.942 131.185C381.643 130.954 381.263 130.852 380.888 130.901C380.512 130.95 380.172 131.145 379.941 131.445C379.71 131.745 379.607 132.125 379.656 132.5C379.705 132.875 379.901 133.216 380.201 133.447L380.235 133.469C381.037 134.109 381.84 134.759 382.629 135.428C385.073 137.677 389.219 141.197 388.179 144.359C387.158 147.478 383.644 148.019 380.566 148.072C379.538 148.053 378.515 148.019 377.494 147.963C375.375 147.833 373.262 147.654 371.171 147.323C370.651 147.255 370.125 147.169 369.612 147.072C369.098 146.976 368.572 146.896 368.052 146.781L366.511 146.444C365.991 146.336 365.546 146.181 365.06 146.055C361.248 144.873 357.852 142.443 354.768 139.583C351.684 136.724 348.828 133.461 345.618 130.371C344.002 128.83 342.295 127.315 340.312 126.046C339.311 125.389 338.248 124.833 337.138 124.385C335.998 123.916 334.802 123.597 333.58 123.438C332.322 123.258 331.044 123.281 329.793 123.506C328.539 123.722 327.329 124.142 326.211 124.75C325.072 125.362 324.046 126.166 323.179 127.126C322.304 128.112 321.627 129.258 321.187 130.501C320.761 131.744 320.583 133.057 320.661 134.368C320.732 135.628 320.994 136.87 321.437 138.052C321.665 138.659 321.929 139.252 322.226 139.828C322.285 140.064 322.295 140.309 322.255 140.549C322.214 140.789 322.125 141.017 321.991 141.221C321.534 141.867 320.643 142.09 319.86 142.254C316.326 142.797 312.827 143.545 309.379 144.494C307.06 145.144 304.764 145.886 302.497 146.761C301.365 147.241 300.275 147.646 299.085 148.268C298.503 148.559 297.953 148.93 297.4 149.272C296.874 149.673 296.314 150.036 295.834 150.512C294.797 151.417 293.924 152.495 293.254 153.698C293.08 154.007 292.924 154.325 292.786 154.651L292.409 155.655L292.168 156.722C292.112 157.085 292.076 157.451 292.06 157.818C292.04 158.316 292.062 158.815 292.128 159.309C292.174 159.823 292.242 160.354 292.329 160.914C292.706 163.523 291.283 165.455 290.182 167.191C289.822 167.628 289.493 168.087 289.194 168.568C288.392 169.882 287.762 171.407 287.635 173.069C287.617 173.297 287.607 173.526 287.607 173.755C287.581 173.858 287.575 173.965 287.589 174.07C287.611 174.281 287.635 174.487 287.657 174.698C287.669 174.794 287.675 174.899 287.685 174.983C287.806 176.063 287.926 177.136 288.045 178.216C287.982 179.317 287.742 180.369 287.113 181.226C286.11 182.618 284.418 182.757 283.301 181.454C282.552 180.582 282.261 179.357 282.039 178.21C279.861 165.255 277.949 150.941 283.967 138.873L283.969 138.875ZM212.11 190.523C212.311 189.353 213.114 188.775 214.075 188.5C216.268 188.5 218.61 189.483 220.54 191.281C222.101 192.721 223.784 194.023 225.571 195.17C227.501 196.518 229.809 198.054 230.425 200.488C231.294 203.899 228.089 205.37 225.519 204.148C225.256 203.999 225.005 203.845 224.754 203.69C224.724 203.674 224.695 203.655 224.668 203.634C224.569 203.556 224.46 203.493 224.343 203.445C219.928 200.692 216.621 197.666 213.589 194.502C212.76 193.326 211.869 191.965 212.108 190.521L212.11 190.523ZM247.189 292.612C247.189 292.578 247.171 292.55 247.167 292.515C247.195 292.539 247.226 292.56 247.259 292.578L247.189 292.612ZM332.099 226.291C331.081 235.349 328.621 242.01 324.73 246.157C317.837 253.514 308.677 256.682 297.494 256.682C279.653 256.682 256.646 248.612 229.444 236.596C229.444 236.596 229.444 236.596 229.432 236.596C229.42 236.596 229.42 236.596 229.414 236.584C226.203 235.213 223.016 233.796 219.892 232.289C216.768 230.782 213.671 229.211 210.772 227.417C207.872 225.623 205.089 223.665 203.022 221.215C201.961 220.005 201.061 218.663 200.343 217.223C199.672 215.892 199.31 214.426 199.286 212.935C199.309 212.257 199.439 211.587 199.669 210.948C199.905 210.332 200.261 209.767 200.714 209.287C201.652 208.294 202.914 207.67 204.272 207.527C204.965 207.44 205.667 207.467 206.351 207.607C207.768 207.91 209.074 208.597 210.126 209.594L210.527 209.995C210.653 210.11 210.83 210.31 210.984 210.463C211.3 210.794 211.607 211.125 211.938 211.446C213.243 212.755 214.661 213.945 216.176 215.004C217.689 216.041 219.278 216.966 220.928 217.769C224.172 219.374 227.483 220.608 230.76 221.875C231.112 222.015 231.506 222.01 231.854 221.86C232.202 221.71 232.476 221.428 232.616 221.076C232.757 220.724 232.751 220.331 232.601 219.983C232.452 219.634 232.17 219.36 231.818 219.22C228.591 217.883 225.37 216.525 222.342 214.976C220.847 214.216 219.412 213.343 218.048 212.367C216.703 211.387 215.443 210.296 214.279 209.106C213.982 208.815 213.698 208.504 213.411 208.193C213.256 208.033 213.142 207.908 212.953 207.714L212.415 207.176C211.679 206.464 210.848 205.857 209.947 205.37C209.494 205.12 209.025 204.901 208.542 204.714C208.048 204.537 207.543 204.394 207.029 204.286C205.994 204.065 204.929 204.015 203.877 204.138C203.601 204.167 203.326 204.211 203.054 204.268C201.913 204.401 200.757 204.239 199.696 203.799C198.635 203.358 197.705 202.652 196.994 201.75C194.309 196.605 194.887 192.583 197.124 190.545C199.221 188.636 202.99 188.41 206.201 191.584C206.297 191.717 206.413 191.835 206.544 191.933C206.572 191.961 206.596 191.989 206.624 192.02L207.348 192.822C212.128 198.1 216.704 203.136 224.405 207.505C225.138 208.146 225.921 208.726 226.747 209.241C228.392 210.298 230.373 211.448 230.23 213.677C230.196 213.962 230.264 214.249 230.422 214.488C230.58 214.726 230.818 214.901 231.093 214.98C231.303 215.111 231.543 215.183 231.79 215.191C232.168 215.202 232.536 215.063 232.812 214.804C233.089 214.545 233.25 214.187 233.263 213.808C233.278 212.088 233.575 210.383 234.141 208.759C234.737 207.178 235.598 205.71 236.688 204.419C236.889 204.171 237.015 203.871 237.051 203.554C237.086 203.237 237.03 202.917 236.889 202.631L236.86 202.575C235.502 199.93 234.153 197.275 232.966 194.602C232.364 193.266 231.818 191.923 231.344 190.571C231.103 189.89 230.881 189.212 230.682 188.52C230.58 188.177 230.481 187.824 230.391 187.486C230.301 187.149 230.236 186.846 230.18 186.521C229.94 185.262 229.94 183.968 230.18 182.709C230.406 181.521 230.931 180.411 231.705 179.482C232.42 178.633 233.411 178.064 234.505 177.877C235.566 177.7 236.712 177.933 237.806 178.479C238.943 179.089 239.963 179.897 240.816 180.866C241.73 181.895 242.537 183.015 243.224 184.208C244.64 186.67 245.925 189.439 247.422 192.096C248.919 194.753 250.568 197.419 252.727 199.789C253.813 201.006 255.038 202.091 256.377 203.022C257.767 203.98 259.304 204.703 260.928 205.163H260.94C260.963 205.163 260.993 205.163 261.021 205.175L261.073 205.193C264.396 205.833 267.721 206.433 271.044 207.031C274.367 207.629 277.698 208.235 281.027 208.801L291.022 210.515C294.351 211.097 297.687 211.647 301.024 212.195C301.39 212.249 301.764 212.159 302.065 211.943C302.367 211.727 302.573 211.403 302.639 211.038C302.706 210.674 302.628 210.297 302.423 209.989C302.217 209.68 301.9 209.464 301.537 209.385L296.774 208.432C296.755 208.424 296.736 208.416 296.717 208.41C290.296 206.622 285.717 201.607 284.477 195.286C284.414 194.401 284.334 193.498 284.232 192.573C284.307 191.076 284.68 189.608 285.327 188.255C287.428 185 290.946 183.577 293.9 182.965C296.743 182.612 298.531 184.422 299.892 186.656C300.26 187.457 300.742 188.201 301.325 188.863C302.902 190.669 305.055 191.815 307.264 192.335C309.266 192.774 311.337 192.796 313.347 192.397C313.378 192.396 313.409 192.392 313.439 192.385C315.112 192.048 317.071 191.582 318.745 192.218C319.852 192.62 320.669 193.486 321.365 194.426C321.937 195.443 322.513 196.432 323.085 197.417C323.103 197.452 323.113 197.486 323.131 197.52C325.896 202.46 329.603 207.589 331.202 213.059C332.422 217.153 332.257 221.831 332.097 226.291H332.099ZM367.28 249.462C367.277 249.434 367.277 249.405 367.28 249.376C367.297 249.39 367.312 249.405 367.326 249.422C367.307 249.432 367.291 249.445 367.278 249.46L367.28 249.462ZM421.839 201.67C421.604 201.995 421.381 202.304 421.183 202.613C415.957 207.553 410.602 212.486 405.117 217.41L399.029 222.304C395.443 224.8 391.854 227.3 388.263 229.803C384.517 232.412 380.765 235.384 376.452 236.993C366.909 240.545 358.159 234.531 350.952 228.74C347.753 225.364 344.412 221.6 341.015 217.374C340.857 217.108 340.665 216.864 340.443 216.649C337.599 213.079 334.726 209.185 331.876 204.924C331.836 204.772 331.775 204.626 331.694 204.491C329.687 201.31 327.221 197.506 328.399 193.571C329.524 189.812 333.361 189.447 336.788 189.692C340.433 190.155 344.179 191.381 347.994 192.427C351.808 193.472 355.715 194.454 359.662 195.168C363.606 195.881 367.585 196.38 371.582 196.665C379.561 197.253 387.567 197.042 395.477 196.402C398.608 196.156 401.734 195.859 404.855 195.511C407.077 195.34 409.3 195.167 411.525 194.991C414.071 194.791 416.911 194.289 419.423 194.957C420.954 195.359 422.598 196.276 423.083 197.933C423.561 199.522 422.678 200.51 421.839 201.67V201.67ZM451.235 164.376C450.956 168.094 449.932 171.686 447.986 174.748C446.039 177.81 443.252 180.335 440.076 182.309C436.899 184.284 433.341 185.793 429.693 187.005C426.009 188.201 422.257 189.174 418.456 189.919C410.82 191.438 403.025 192.327 395.211 192.929C387.397 193.531 379.591 193.767 371.835 193.203C367.961 192.93 364.104 192.45 360.281 191.765C356.468 191.074 352.695 190.149 348.921 189.092C347.03 188.566 345.14 188.018 343.204 187.499C341.267 186.979 339.275 186.495 337.184 186.258C335.123 186.045 333.049 186.001 330.981 186.128C328.948 186.23 326.938 186.443 324.949 186.71C320.968 187.252 317.039 188.074 313.196 188.917C311.516 189.315 309.768 189.334 308.079 188.973C306.458 188.596 304.973 187.769 303.949 186.591C303.444 186.033 303.059 185.376 302.82 184.661C302.581 183.946 302.493 183.19 302.561 182.44C302.709 180.961 303.532 179.538 304.748 178.39C305.964 177.242 307.557 176.364 309.255 175.621C310.992 174.891 312.781 174.291 314.607 173.827C322.043 171.959 329.884 171.315 337.683 170.937H337.695C338.068 170.918 338.418 170.753 338.67 170.479C338.923 170.205 339.059 169.843 339.048 169.471C339.038 169.098 338.882 168.744 338.614 168.485C338.347 168.225 337.988 168.081 337.615 168.082C333.64 168.1 329.659 168.253 325.68 168.63C321.7 169.007 317.717 169.561 313.772 170.56C311.772 171.052 309.811 171.693 307.907 172.479C306.927 172.891 305.977 173.369 305.063 173.911C304.662 174.146 304.28 174.397 303.903 174.672C302.218 175.541 300.534 176.426 298.82 177.224C297.073 178.041 295.325 178.84 293.463 177.692C292.497 177.09 291.835 176.127 291.269 175.139C291.091 174.563 291.027 173.958 291.081 173.358C291.235 171.325 292.6 169.302 294.4 167.749C295.275 166.99 296.222 166.317 297.227 165.742C297.467 165.674 297.689 165.553 297.877 165.389C298.808 164.903 299.808 164.476 300.807 164.065C305.611 162.156 310.744 160.894 315.913 159.953C321.113 159.044 326.361 158.431 331.631 158.119V158.119C332 158.085 332.341 157.91 332.583 157.631C332.825 157.351 332.95 156.989 332.93 156.62C332.911 156.25 332.75 155.903 332.48 155.65C332.21 155.397 331.853 155.259 331.483 155.263C326.085 155.468 320.704 156.004 315.371 156.869C312.06 157.418 308.778 158.135 305.539 159.016C305.482 159.016 305.418 159.028 305.356 159.038C303.175 159.524 295.939 161.928 295.543 158.267C295.543 158.171 295.531 158.067 295.543 157.976C295.553 157.755 295.574 157.534 295.606 157.314C295.658 157.098 295.702 156.875 295.748 156.652L295.993 156.006C296.08 155.787 296.183 155.575 296.302 155.372C296.78 154.508 297.407 153.735 298.152 153.088C299.649 151.665 301.602 150.843 303.771 149.952C305.906 149.117 308.089 148.358 310.304 147.706C314.753 146.406 319.298 145.467 323.898 144.897C324.628 144.801 325.354 144.726 326.085 144.656C326.427 144.732 326.784 144.699 327.106 144.564C328.34 144.472 329.568 144.403 330.797 144.375C333.065 144.299 335.335 144.425 337.581 144.752H337.593C337.96 144.805 338.333 144.712 338.632 144.494C338.932 144.277 339.136 143.951 339.199 143.586C339.263 143.221 339.183 142.845 338.975 142.539C338.767 142.232 338.448 142.019 338.085 141.943C337.176 141.773 336.269 141.664 335.366 141.578C335.17 141.46 334.948 141.391 334.72 141.377C332.393 141.236 330.147 140.468 328.22 139.156C326.661 138.116 324.52 136.644 324.183 134.655C324.061 133.641 324.169 132.612 324.498 131.645C325.113 130 326.324 128.646 327.891 127.852C328.685 127.423 329.544 127.126 330.433 126.973C331.323 126.808 332.233 126.79 333.128 126.921C334.06 127.041 334.972 127.284 335.841 127.642C336.745 128.009 337.611 128.462 338.428 128.996C340.107 130.064 341.677 131.44 343.202 132.891C346.258 135.815 349.129 139.112 352.432 142.138C354.09 143.685 355.874 145.092 357.766 146.342C359.714 147.629 361.83 148.642 364.055 149.352C364.615 149.5 365.203 149.683 365.745 149.797L367.384 150.15C367.932 150.271 368.486 150.351 369.036 150.453C369.585 150.556 370.131 150.654 370.687 150.722C372.894 151.065 375.102 151.248 377.323 151.379C386.193 151.842 395.04 150.841 403.594 148.832C403.953 148.742 404.262 148.517 404.459 148.204C404.655 147.891 404.723 147.515 404.647 147.153C404.572 146.791 404.36 146.473 404.055 146.264C403.751 146.055 403.377 145.972 403.012 146.033H403C402.954 146.033 402.908 146.045 402.858 146.055C400.717 145.888 398.718 145.334 397.889 143.141C397.45 141.975 397.416 140.719 397.536 139.475C398.154 137.218 399.151 135.082 400.484 133.158C403.42 128.852 407.664 125.402 412.37 123.008C417.075 120.614 422.371 119.278 427.578 119.513C428.562 119.558 429.543 119.663 430.514 119.828C433.175 120.45 435.797 121.313 437.967 123.02C439.68 124.369 441.023 126.247 442.233 128.218C444.381 132.603 446.213 137.136 447.715 141.783C448.902 145.461 449.837 149.215 450.514 153.02C451.154 156.825 451.52 160.649 451.235 164.374V164.376Z" fill="black"/>
<path d="M416.052 72.5205C421.779 68.9787 427.512 65.459 433.309 62.0577L437.674 59.5132L442.056 57.027L446.471 54.6089L450.914 52.2411C456.853 49.1167 462.887 46.187 469.03 43.5301C475.172 40.8733 481.449 38.5677 487.864 36.856H487.889C488.242 36.7513 488.541 36.5142 488.723 36.1942C488.906 35.8742 488.958 35.496 488.868 35.1387C488.779 34.7813 488.555 34.4724 488.243 34.2764C487.931 34.0804 487.555 34.0124 487.194 34.0868C480.506 35.6419 474.03 37.8733 467.74 40.474C461.449 43.0746 455.316 46.0184 449.29 49.1428C443.264 52.2672 437.375 55.6384 431.575 59.138C425.776 62.6376 420.077 66.3058 414.491 70.1265C414.187 70.339 413.978 70.6611 413.907 71.0248C413.837 71.3885 413.91 71.7654 414.112 72.076C414.314 72.3866 414.629 72.6065 414.99 72.6895C415.351 72.7724 415.731 72.7118 416.048 72.5205H416.052Z" fill="black"/>
<path d="M473.298 202.502C460.16 215.602 446.916 228.589 433.119 241C419.321 253.411 405.166 265.405 390.631 276.919C383.351 282.662 376.007 288.327 368.518 293.789C361.057 299.293 353.471 304.616 345.758 309.758C338.075 314.94 330.213 319.84 322.262 324.578C314.312 329.315 306.223 333.808 297.982 337.988C297.652 338.159 297.402 338.451 297.284 338.803C297.167 339.155 297.19 339.538 297.35 339.873C297.51 340.208 297.794 340.467 298.142 340.596C298.49 340.725 298.874 340.714 299.214 340.565C307.732 336.704 315.969 332.273 324.028 327.572C332.087 322.87 339.987 317.895 347.733 312.708C355.479 307.521 363.136 302.203 370.643 296.681C378.18 291.201 385.567 285.52 392.889 279.761C407.471 268.168 421.666 256.11 435.474 243.589C449.242 231.049 462.751 218.19 475.367 204.475C475.613 204.199 475.742 203.838 475.727 203.468C475.713 203.099 475.555 202.75 475.289 202.494C475.022 202.238 474.666 202.095 474.296 202.096C473.927 202.097 473.572 202.241 473.306 202.498L473.298 202.502Z" fill="black"/>
<path d="M502.318 170.135L502.282 170.171C501.137 171.325 500.037 172.515 498.947 173.713C497.858 174.911 496.788 176.121 495.725 177.347C494.661 178.573 493.619 179.807 492.6 181.065L491.075 182.957C490.583 183.603 490.072 184.236 489.596 184.892L489.566 184.932C489.355 185.222 489.262 185.581 489.304 185.938C489.345 186.294 489.519 186.622 489.791 186.856C490.063 187.09 490.413 187.213 490.772 187.201C491.13 187.19 491.471 187.043 491.727 186.792C492.307 186.22 492.861 185.622 493.429 185.036L495.084 183.23C496.184 182.026 497.256 180.802 498.319 179.568C499.383 178.334 500.432 177.09 501.456 175.822C502.479 174.553 503.504 173.289 504.478 171.983C504.699 171.693 504.802 171.33 504.765 170.967C504.727 170.604 504.553 170.27 504.276 170.031C504 169.793 503.643 169.67 503.279 169.687C502.914 169.703 502.57 169.858 502.316 170.121L502.318 170.135Z" fill="black"/>
<path d="M471.37 251.369C467.286 255.043 463.216 258.729 459.109 262.375C455.001 266.021 450.896 269.663 446.76 273.273C438.483 280.488 430.074 287.547 421.534 294.45C413.008 301.363 404.357 308.129 395.54 314.665C386.742 321.231 377.787 327.574 368.753 333.809C368.454 334.026 368.252 334.349 368.187 334.712C368.122 335.076 368.199 335.45 368.404 335.757C368.609 336.063 368.924 336.279 369.284 336.359C369.644 336.439 370.021 336.376 370.336 336.185C374.981 333.209 379.575 330.158 384.12 327.03C388.647 323.88 393.15 320.701 397.59 317.426C406.484 310.905 415.207 304.152 423.808 297.251C432.408 290.35 440.8 283.194 449.092 275.932C457.383 268.67 465.504 261.201 473.332 253.438C473.593 253.174 473.741 252.819 473.746 252.448C473.75 252.078 473.61 251.72 473.355 251.45C473.1 251.181 472.751 251.021 472.38 251.005C472.009 250.988 471.647 251.117 471.37 251.363V251.369Z" fill="black"/>
<path d="M283.656 63.9281C283.346 63.2138 282.895 62.5694 282.33 62.0338C282.168 61.8854 281.991 61.7561 281.8 61.6485C281.488 61.4739 281.145 61.3623 280.79 61.3203C280.435 61.2784 280.075 61.3067 279.731 61.4038C279.387 61.5009 279.066 61.6648 278.785 61.8862C278.504 62.1075 278.27 62.382 278.095 62.694C277.72 63.376 277.487 64.1268 277.409 64.9013C277.33 65.5981 277.349 66.3027 277.465 66.9942C277.579 67.6862 277.781 68.3607 278.067 69.0009C278.379 69.7109 278.823 70.3551 279.376 70.8992C279.553 71.0684 279.752 71.2135 279.968 71.3306C280.278 71.498 280.619 71.6025 280.97 71.6382C281.321 71.674 281.676 71.6402 282.014 71.5388C282.352 71.4374 282.667 71.2705 282.94 71.0474C283.214 70.8244 283.44 70.5497 283.608 70.239C283.969 69.5523 284.195 68.8032 284.276 68.0317C284.354 67.3346 284.341 66.6305 284.238 65.9367C284.139 65.2433 283.943 64.5672 283.656 63.9281V63.9281Z" fill="black"/>
<path d="M300.628 60.33C300.318 59.6156 299.867 58.9713 299.302 58.4357C299.141 58.2873 298.963 58.158 298.772 58.0504C298.46 57.8757 298.117 57.7642 297.762 57.7222C297.407 57.6802 297.047 57.7086 296.703 57.8057C296.359 57.9028 296.038 58.0667 295.757 58.288C295.477 58.5094 295.242 58.7839 295.068 59.0958C294.693 59.7779 294.459 60.5287 294.382 61.3032C294.302 62.0001 294.321 62.7046 294.438 63.3962C294.551 64.0882 294.754 64.7627 295.04 65.4029C295.351 66.1129 295.796 66.7571 296.348 67.3012C296.525 67.4732 296.724 67.621 296.94 67.7406C297.251 67.908 297.591 68.0125 297.942 68.0483C298.294 68.084 298.648 68.0502 298.986 67.9488C299.324 67.8474 299.639 67.6805 299.913 67.4575C300.186 67.2344 300.413 66.9597 300.58 66.649C300.941 65.9623 301.168 65.2132 301.248 64.4417C301.326 63.7446 301.313 63.0404 301.21 62.3467C301.112 61.6505 300.916 60.9716 300.628 60.33V60.33Z" fill="black"/>
<path d="M310.156 80.9144C310.101 80.6278 309.956 80.3664 309.741 80.1689C309.527 79.9714 309.254 79.8482 308.964 79.8176C308.674 79.7869 308.382 79.8505 308.13 79.9989C307.879 80.1473 307.683 80.3726 307.569 80.6415L307.319 81.2435C307.287 81.3757 307.263 81.5097 307.246 81.6448C307.222 81.7993 307.186 81.9558 307.15 82.1124C307.086 82.4234 306.997 82.7284 306.905 83.0254C306.722 83.6006 306.46 84.1476 306.127 84.6508C305.8 85.152 305.398 85.6001 304.935 85.9792C304.694 86.1833 304.442 86.3735 304.18 86.5491C303.915 86.7397 303.608 86.8762 303.327 87.0729L303.093 87.2374C302.821 87.4308 302.626 87.7139 302.542 88.0368C302.459 88.3598 302.492 88.7018 302.636 89.0028C302.78 89.3037 303.025 89.5443 303.329 89.682C303.633 89.8198 303.975 89.8459 304.297 89.7558C304.744 89.6333 305.184 89.4859 305.615 89.3143C306.055 89.1243 306.476 88.8932 306.873 88.624C307.709 88.0812 308.425 87.3747 308.98 86.5471C309.536 85.7317 309.927 84.8145 310.128 83.8481L310.246 83.1358C310.264 82.8949 310.29 82.6582 310.292 82.4194C310.294 82.1806 310.292 81.9398 310.268 81.699C310.249 81.4352 310.211 81.173 310.156 80.9144V80.9144Z" fill="black"/>
<path d="M301.81 51.6573C301.006 51.0156 300.056 50.5809 299.045 50.3911C298.079 50.2068 297.089 50.1966 296.119 50.361C295.225 50.5052 294.353 50.7628 293.525 51.1275C292.742 51.4638 292.001 51.8908 291.317 52.3997C290.953 52.669 290.694 53.0579 290.587 53.4984C290.48 53.939 290.532 54.4031 290.732 54.8097C290.933 55.2162 291.27 55.5392 291.685 55.7223C292.099 55.9054 292.565 55.9368 293.001 55.811L293.049 55.797L295.004 55.2492C295.598 55.0897 296.201 54.9638 296.81 54.8719C297.341 54.797 297.878 54.7674 298.415 54.7836C298.925 54.8032 299.432 54.8657 299.932 54.9702L300.225 55.0284C300.644 55.1109 301.079 55.0512 301.461 54.8588C301.842 54.6663 302.148 54.3522 302.331 53.966C302.514 53.5798 302.563 53.1436 302.47 52.7266C302.377 52.3095 302.148 51.9353 301.818 51.6633L301.81 51.6573Z" fill="black"/>
<path d="M243.115 125.115C240.245 125.463 237.616 126.891 235.763 129.111C233.91 131.33 232.973 134.172 233.143 137.058C233.314 139.944 234.579 142.657 236.68 144.642C238.781 146.628 241.561 147.737 244.452 147.744C244.917 147.744 245.382 147.715 245.844 147.658C247.324 147.479 248.755 147.01 250.054 146.278C251.353 145.546 252.495 144.565 253.415 143.392C254.335 142.219 255.014 140.876 255.415 139.439C255.816 138.003 255.93 136.502 255.751 135.022C255.572 133.542 255.103 132.112 254.371 130.813C253.639 129.514 252.658 128.372 251.485 127.452C250.312 126.532 248.969 125.852 247.532 125.451C246.096 125.05 244.595 124.936 243.115 125.115V125.115ZM252.346 135.436C252.473 136.469 252.395 137.517 252.115 138.52C251.836 139.523 251.361 140.46 250.718 141.279C249.419 142.931 247.519 144.001 245.433 144.254C243.347 144.508 241.245 143.925 239.587 142.633C238.296 141.61 237.354 140.211 236.893 138.628C236.432 137.046 236.474 135.36 237.014 133.803C237.553 132.246 238.564 130.895 239.905 129.937C241.246 128.98 242.852 128.463 244.5 128.458C246.434 128.465 248.299 129.178 249.744 130.464C251.189 131.749 252.115 133.518 252.348 135.438L252.346 135.436Z" fill="black"/>
<path d="M101.29 83.9946L124.634 102.275C126.427 103.668 128.696 104.3 130.951 104.035C132.068 103.904 133.147 103.553 134.128 103.002C135.108 102.451 135.969 101.711 136.662 100.824L155.103 77.2883C155.205 77.3746 155.303 77.4588 155.412 77.5391C156.257 78.2294 157.097 78.9217 157.948 79.606C158.988 80.4408 160.021 81.2795 161.055 82.1123C163.663 84.2193 166.36 86.4006 169.033 88.5156C173.534 92.1015 176.971 94.8266 180.192 97.3449C184.39 100.634 188.219 103.61 191.855 106.397C187.611 108.447 183.893 111.442 180.987 115.152C170.456 128.597 172.826 148.096 186.264 158.627C192.378 163.41 200.065 165.724 207.804 165.109C215.542 164.494 222.767 160.996 228.049 155.307C228.368 155.592 228.695 155.861 229.02 156.11C233.408 159.58 238.842 161.462 244.436 161.45C249.654 161.458 254.745 159.837 258.998 156.813C263.251 153.789 266.454 149.514 268.161 144.583C269.868 139.651 269.993 134.31 268.52 129.304C267.046 124.298 264.047 119.877 259.941 116.657C259.616 116.4 259.273 116.149 258.924 115.903C263.175 109.415 264.835 101.567 263.575 93.9134C262.316 86.2597 258.228 79.3582 252.121 74.5753C238.676 64.0443 219.178 66.4081 208.647 79.8468C205.727 83.5705 203.704 87.917 202.735 92.549C199.153 89.6815 195.332 86.6614 191.135 83.3765C187.924 80.8461 184.452 78.1592 179.897 74.6495C177.202 72.5586 174.443 70.4636 171.77 68.4288C170.713 67.6262 169.653 66.8188 168.59 66.0068C161.273 60.4443 153.592 54.7153 145.762 48.9862C139.473 44.401 131.147 38.381 122.484 32.5035C121.105 31.5687 119.422 31.1921 117.776 31.4497C116.13 31.7073 114.643 32.5799 113.615 33.8913C112.587 35.2027 112.095 36.8553 112.238 38.5154C112.381 40.1756 113.148 41.7196 114.386 42.8358C115.889 44.1843 117.458 45.5829 119.264 47.1702L99.8412 71.9546C98.4376 73.7436 97.8018 76.0168 98.0735 78.2744C98.3452 80.5321 99.5021 82.5895 101.29 83.9946V83.9946ZM102.53 74.0796L122.962 48.019C123.231 47.6736 123.359 47.2384 123.319 46.8022C123.278 46.366 123.073 45.9616 122.745 45.6712C120.426 43.6385 118.501 41.9368 116.685 40.2974C116.102 39.761 115.742 39.0249 115.678 38.2354C115.613 37.4459 115.848 36.6609 116.335 36.0366C116.823 35.4124 117.528 34.9946 118.309 34.8664C119.091 34.7382 119.893 34.9091 120.554 35.3449C129.167 41.1924 137.464 47.1963 143.737 51.7655C151.551 57.4765 159.21 63.1874 166.507 68.7439C167.564 69.5466 168.626 70.3593 169.687 71.1659C172.354 73.1887 175.105 75.2836 177.798 77.3685C182.349 80.8702 185.805 83.5531 189.015 86.0775C194.116 90.0687 198.647 93.6687 202.878 97.072C203.118 97.2644 203.405 97.3887 203.71 97.4319C204.015 97.4752 204.325 97.4358 204.609 97.3178C204.894 97.1999 205.141 97.0078 205.326 96.7616C205.51 96.5154 205.625 96.2241 205.659 95.9182C206.212 90.8289 208.179 85.996 211.336 81.9658C220.703 70.0181 238.046 67.9192 249.996 77.2762C255.648 81.701 259.346 88.1589 260.303 95.2723C261.261 102.386 259.4 109.592 255.119 115.353C254.977 115.545 254.877 115.765 254.825 115.998C254.773 116.231 254.77 116.472 254.816 116.706C254.862 116.94 254.957 117.163 255.094 117.358C255.231 117.554 255.407 117.719 255.611 117.843C258.238 119.423 260.5 121.543 262.246 124.062C263.993 126.582 265.184 129.444 265.741 132.458C266.298 135.473 266.209 138.571 265.478 141.549C264.748 144.526 263.393 147.314 261.504 149.729C259.758 151.972 257.583 153.847 255.107 155.244C252.631 156.641 249.902 157.533 247.078 157.868C246.199 157.973 245.314 158.026 244.428 158.029C241.582 158.028 238.764 157.462 236.138 156.364C233.513 155.266 231.132 153.657 229.133 151.631C228.964 151.462 228.762 151.329 228.539 151.243C228.316 151.156 228.077 151.117 227.838 151.128C227.599 151.14 227.365 151.201 227.151 151.308C226.937 151.416 226.748 151.567 226.596 151.752C222.028 157.293 215.475 160.83 208.336 161.609C201.197 162.388 194.035 160.347 188.379 155.922C176.426 146.554 174.333 129.215 183.69 117.261C186.834 113.245 191.037 110.187 195.826 108.432C196.115 108.327 196.371 108.146 196.565 107.907C196.759 107.669 196.884 107.382 196.928 107.077C196.972 106.774 196.935 106.464 196.819 106.18C196.704 105.896 196.515 105.648 196.272 105.462C191.971 102.177 187.402 98.6392 182.307 94.6439C179.097 92.1376 175.659 89.4266 171.17 85.8307C168.503 83.7237 165.812 81.5464 163.208 79.4454C162.174 78.6107 161.135 77.7719 160.095 76.9391C159.257 76.2589 158.422 75.5746 157.583 74.8883C157.029 74.4308 156.475 73.9793 155.916 73.5298C155.611 73.2798 155.23 73.1423 154.836 73.1405C154.774 73.1405 154.705 73.1405 154.635 73.1525C154.41 73.178 154.191 73.2483 153.993 73.3592C153.795 73.4702 153.621 73.6196 153.481 73.7987L133.967 98.6994C133.553 99.2337 133.036 99.6801 132.448 100.013C131.859 100.345 131.21 100.557 130.539 100.636C129.185 100.792 127.824 100.413 126.747 99.5783L103.417 81.2916C102.344 80.4504 101.649 79.218 101.484 77.8648C101.319 76.5116 101.697 75.1481 102.536 74.0736L102.53 74.0796Z" fill="black"/>
<path d="M191.777 123.606C189.365 126.679 188.066 130.478 188.092 134.385C188.118 138.291 189.467 142.073 191.92 145.113C194.372 148.153 197.783 150.273 201.595 151.125C205.407 151.977 209.395 151.512 212.909 149.805C216.422 148.099 219.254 145.252 220.941 141.729C222.628 138.206 223.071 134.215 222.197 130.407C221.324 126.6 219.185 123.201 216.131 120.766C213.077 118.331 209.288 117.002 205.382 116.998C202.76 116.986 200.17 117.575 197.811 118.721C195.452 119.866 193.388 121.538 191.777 123.606ZM205.382 120.426C208.469 120.417 211.468 121.451 213.892 123.361C216.474 125.379 218.257 128.247 218.923 131.455C219.59 134.663 219.097 138.003 217.533 140.882C215.969 143.761 213.434 145.992 210.38 147.178C207.325 148.365 203.949 148.429 200.852 147.361C197.754 146.292 195.136 144.16 193.463 141.343C191.789 138.526 191.169 135.206 191.713 131.975C192.256 128.744 193.928 125.81 196.431 123.695C198.934 121.581 202.105 120.422 205.382 120.426Z" fill="black"/>
<path d="M222.376 112.539C225.401 114.919 229.139 116.212 232.988 116.212C233.692 116.212 234.395 116.17 235.095 116.085C239.058 115.605 242.733 113.764 245.492 110.878C248.251 107.992 249.924 104.239 250.225 100.257C250.527 96.2757 249.439 92.3129 247.146 89.044C244.853 85.7751 241.498 83.4023 237.652 82.33C233.806 81.2577 229.707 81.5523 226.054 83.1635C222.4 84.7747 219.419 87.6029 217.617 91.1661C215.815 94.7292 215.305 98.8069 216.173 102.704C217.041 106.602 219.233 110.077 222.376 112.539V112.539ZM222.136 90.426C223.252 88.9925 224.642 87.7945 226.224 86.9014C227.806 86.0082 229.55 85.4377 231.354 85.2227C231.917 85.1545 232.483 85.1204 233.05 85.1204C235.253 85.1227 237.425 85.6516 239.383 86.6628C241.341 87.6741 243.029 89.1386 244.306 90.9342C245.583 92.7299 246.413 94.8047 246.727 96.986C247.04 99.1673 246.827 101.392 246.107 103.474C245.386 105.557 244.179 107.437 242.585 108.959C240.99 110.48 239.056 111.599 236.942 112.221C234.828 112.844 232.596 112.952 230.432 112.537C228.267 112.122 226.233 111.196 224.499 109.837C221.614 107.572 219.744 104.256 219.301 100.615C218.859 96.9737 219.879 93.3057 222.138 90.416L222.136 90.426Z" fill="black"/>
<path d="M78.1953 318.311C78.4522 318.58 78.7883 318.76 79.1545 318.825C80.544 319.72 82.1929 320.125 83.8391 319.976C85.4853 319.827 87.0346 319.132 88.2407 318.002L178.346 233.676C179.896 232.224 180.959 230.328 181.39 228.249C181.821 226.17 181.599 224.008 180.754 222.059L139.78 128.079C139.305 126.989 138.576 126.029 137.653 125.28C136.73 124.531 135.641 124.014 134.476 123.774C133.312 123.533 132.107 123.575 130.963 123.897C129.819 124.219 128.768 124.811 127.9 125.623L109.852 142.495C103.81 133.517 96.7229 128.063 89.2741 126.693C83.6093 125.653 77.9826 127.094 72.992 130.85C72.974 130.862 72.9639 130.878 72.9459 130.89C72.9278 130.903 72.9118 130.913 72.8997 130.925L9.02553 186.71C8.94936 186.78 8.87891 186.857 8.81483 186.939C8.27022 187.372 7.7516 187.837 7.26167 188.331C-4.74823 200.52 3.00754 219.766 5.21688 224.542L3.81221 225.856C2.15045 227.405 1.17091 229.549 1.08852 231.819C1.00613 234.089 1.82763 236.299 3.37275 237.964L20.3291 256.173C20.3411 256.191 20.3411 256.207 20.3512 256.225C27.519 271.359 24.4749 285.608 20.6542 294.901C20.3706 295.591 20.3325 296.356 20.5461 297.07C20.7598 297.784 21.2122 298.403 21.8278 298.823C22.4433 299.243 23.1845 299.439 23.9272 299.378C24.6699 299.317 25.3691 299.002 25.9076 298.487L43.8813 281.451L78.1953 318.311ZM24.1157 295.465C24.1264 295.452 24.1339 295.436 24.1377 295.419C24.1377 295.419 24.1498 295.419 24.1598 295.431L24.1157 295.465ZM110.533 146.548L110.715 146.378L130.236 128.131C130.704 127.694 131.269 127.376 131.885 127.203C132.501 127.03 133.149 127.007 133.776 127.136C134.402 127.265 134.989 127.542 135.486 127.945C135.983 128.348 136.377 128.864 136.633 129.45L177.606 223.434C178.168 224.733 178.315 226.174 178.028 227.56C177.74 228.946 177.032 230.209 176 231.178L85.9009 315.502C85.4341 315.94 84.8687 316.259 84.2526 316.433C83.6364 316.607 82.9875 316.631 82.3604 316.502C81.7333 316.372 81.1465 316.094 80.6493 315.691C80.1522 315.287 79.7592 314.77 79.5037 314.183L45.7555 236.766C45.1934 235.467 45.046 234.026 45.3333 232.64C45.6206 231.254 46.3287 229.991 47.3609 229.022L90.3156 188.821C93.9645 185.398 96.3919 180.875 97.2265 175.942L99.5061 162.327C100.218 158.132 102.282 154.285 105.384 151.373L110.533 146.548ZM20.6221 181.131L75.095 133.559C79.3451 130.367 83.9083 129.191 88.6541 130.064C93.5202 130.961 98.272 133.947 102.665 138.807C103.76 140.394 104.617 142.148 104.595 144.09C104.561 147.072 102.356 149.476 100.483 151.567C100.333 151.734 100.221 151.933 100.158 152.149C98.0905 154.999 96.7107 158.289 96.1269 161.761L93.8433 175.376C93.135 179.566 91.075 183.409 87.9778 186.319L59.8684 212.622C59.0771 213.218 58.1744 213.649 57.2136 213.89C54.2839 214.552 52.7026 212.457 51.2458 210.354C44.684 195.459 33.86 186.543 24.7578 184.087C23.6996 183.799 22.6209 183.593 21.5311 183.471C21.1418 183.335 20.1264 183.118 19.8916 182.751C19.6568 182.384 20.1284 181.759 20.6221 181.131ZM5.86904 235.64C5.4085 235.147 5.04992 234.567 4.81383 233.934C4.57773 233.302 4.46878 232.629 4.4932 231.954C4.51762 231.279 4.67493 230.616 4.95613 230.002C5.23733 229.388 5.63689 228.836 6.13192 228.376L23.9732 211.751C24.2402 211.637 24.4643 211.441 24.6133 211.191C24.6354 211.163 24.6534 211.129 24.6755 211.099L27.0454 208.892C28.4681 207.664 29.9811 206.464 31.6085 205.528C33.3963 204.879 35.3048 204.629 37.1996 204.797C39.0944 204.964 40.9293 205.546 42.575 206.5C48.9782 210.184 49.6806 216.814 47.407 222.828C46.3676 224.672 44.975 226.346 43.6425 227.945C43.5189 228.093 43.4328 228.27 43.3917 228.459C42.4756 229.883 41.9245 231.512 41.787 233.2C41.6494 234.888 41.9297 236.584 42.6031 238.139L64.3393 288.004C64.3323 288.204 64.3773 288.403 64.4697 288.58C65.3486 290.282 67.1887 295.132 63.2657 294.508C61.7808 294.273 60.2096 293.342 58.7547 292.423L5.86904 235.64Z" fill="black"/>
<path d="M105.394 238.063C107.039 238.72 108.811 238.999 110.579 238.879C110.78 238.868 110.977 238.933 111.133 239.061C111.288 239.189 111.39 239.37 111.418 239.57L113.091 250.833C113.192 251.528 113.482 252.183 113.929 252.725C114.376 253.266 114.964 253.675 115.628 253.905C116.036 254.045 116.464 254.116 116.896 254.116C117.873 254.117 118.813 253.743 119.523 253.07L135.452 238.107C135.894 237.691 136.231 237.176 136.437 236.605C136.642 236.034 136.709 235.422 136.633 234.82C136.557 234.218 136.339 233.642 135.998 233.14C135.656 232.638 135.201 232.224 134.669 231.932L125.171 226.715C125.072 226.66 124.993 226.574 124.948 226.47C124.902 226.365 124.893 226.249 124.921 226.139L125.103 225.415C127.062 217.589 123.887 210.086 117.558 207.555C112.967 205.727 107.786 207.007 103.794 210.429C103.69 210.503 103.592 210.587 103.503 210.68C101.371 212.619 99.7126 215.022 98.6553 217.703C95.3001 226.109 98.3222 235.245 105.394 238.063ZM111.887 212.128C111.996 210.523 113.737 210.449 115.006 210.359C115.441 210.456 115.867 210.591 116.28 210.76C121.004 212.638 123.303 218.459 121.774 224.592L121.591 225.312C121.38 226.157 121.454 227.049 121.802 227.847C122.15 228.646 122.753 229.307 123.516 229.727L130.706 233.674C131.677 234.661 132.436 235.982 130.985 236.736C129.688 237.41 127.844 236.702 126.369 236.154L115.353 230.02C115.254 229.965 115.175 229.878 115.13 229.774C115.085 229.67 115.075 229.554 115.102 229.444L115.285 228.72C116.655 223.247 115.507 217.932 112.531 214.368C112.15 213.663 111.841 212.909 111.887 212.126V212.128ZM111.869 220.221C111.857 220.209 111.851 220.199 111.841 220.187C111.831 220.175 111.841 220.131 111.829 220.101C111.841 220.139 111.857 220.179 111.869 220.219V220.221Z" fill="black"/>
<path d="M51.9722 174.018C54.1515 172.268 56.2906 170.472 58.4237 168.668C60.5568 166.864 62.6577 165.026 64.7768 163.208C66.8958 161.39 68.9687 159.518 71.0456 157.651L74.1479 154.842C75.1673 153.887 76.2007 152.948 77.208 151.978C77.4782 151.725 77.6396 151.377 77.6581 151.007C77.6767 150.638 77.5509 150.275 77.3074 149.996C77.0639 149.717 76.7216 149.544 76.3527 149.512C75.9838 149.481 75.6171 149.594 75.3298 149.827C74.2342 150.696 73.1646 151.593 72.081 152.476L68.8704 155.171C66.7413 156.977 64.6343 158.811 62.5213 160.637C60.4083 162.463 58.3253 164.323 56.2565 166.2C54.1876 168.076 52.1167 169.95 50.09 171.875C49.8198 172.128 49.6584 172.476 49.6399 172.846C49.6214 173.215 49.7471 173.578 49.9906 173.857C50.2341 174.136 50.5764 174.309 50.9453 174.341C51.3142 174.372 51.681 174.259 51.9682 174.026L51.9722 174.018Z" fill="black"/>
<path d="M67.8329 176.43C65.76 178.3 63.6931 180.18 61.6664 182.105C61.3962 182.358 61.2349 182.706 61.2163 183.076C61.1978 183.445 61.3235 183.808 61.5671 184.087C61.8106 184.366 62.1528 184.539 62.5217 184.571C62.8907 184.602 63.2574 184.489 63.5447 184.256C65.7239 182.506 67.863 180.71 69.9961 178.906C72.1292 177.102 74.2302 175.264 76.3492 173.446C78.4682 171.628 80.5411 169.756 82.618 167.889L85.7203 165.08C86.7397 164.125 87.7731 163.186 88.7805 162.216C89.0507 161.963 89.212 161.615 89.2306 161.245C89.2491 160.876 89.1234 160.513 88.8798 160.234C88.6363 159.955 88.2941 159.782 87.9252 159.75C87.5562 159.719 87.1895 159.832 86.9022 160.065C85.8066 160.934 84.7371 161.831 83.6535 162.714L80.4428 165.409C78.3137 167.215 76.2067 169.049 74.0937 170.875C71.9807 172.701 69.9018 174.555 67.8329 176.43Z" fill="black"/>
<path d="M218.282 389.064C221.521 374.956 184.309 354.372 135.166 343.09C86.0238 331.808 43.56 334.099 40.3209 348.208C37.0817 362.317 74.2938 382.9 123.436 394.183C172.579 405.465 215.043 403.173 218.282 389.064Z" fill="black"/>
<path d="M168.692 416.868C155.594 416.066 142.567 414.186 129.68 411.651C126.47 410.997 123.243 410.339 120.036 409.626C116.83 408.914 113.637 408.139 110.449 407.347C104.073 405.755 97.7583 403.935 91.4855 401.967C91.1315 401.865 90.7518 401.903 90.4256 402.075C90.0994 402.246 89.852 402.536 89.7349 402.886C89.6179 403.235 89.6403 403.616 89.7975 403.949C89.9547 404.282 90.2345 404.542 90.5785 404.674C96.8333 406.911 103.196 408.828 109.6 410.586C116.003 412.343 122.478 413.846 128.996 415.131C132.259 415.759 135.528 416.349 138.809 416.874C142.09 417.4 145.385 417.838 148.684 418.237C155.283 419.024 161.928 419.539 168.574 419.716C168.945 419.722 169.305 419.582 169.575 419.327C169.846 419.072 170.006 418.722 170.023 418.351C170.039 417.979 169.91 417.616 169.663 417.338C169.416 417.06 169.071 416.89 168.7 416.862L168.692 416.868Z" fill="black"/>
<path d="M77.9004 396.986C76.1626 396.16 74.4128 395.369 72.683 394.562L67.4757 392.13C65.742 391.328 64.0243 390.479 62.3025 389.646L57.1655 387.094C56.8396 386.934 56.4652 386.904 56.1181 387.01C55.771 387.116 55.4772 387.35 55.2961 387.665C55.115 387.979 55.0602 388.351 55.1427 388.704C55.2253 389.057 55.4391 389.366 55.7407 389.568C56.5574 390.11 57.3962 390.613 58.233 391.123C59.0698 391.633 59.9307 392.098 60.7855 392.57C62.4972 393.515 64.247 394.388 66.0028 395.227C67.7587 396.065 69.5526 396.852 71.3606 397.582C73.1686 398.313 74.9867 399.017 76.8348 399.635C77.1798 399.748 77.5547 399.725 77.8835 399.572C78.2124 399.418 78.4707 399.146 78.6061 398.809C78.7415 398.472 78.744 398.097 78.613 397.758C78.4819 397.42 78.2272 397.144 77.9004 396.986Z" fill="black"/>
<path d="M133.082 59.1242L134.962 60.7295C136.223 61.793 137.501 62.8365 138.795 63.8599C140.087 64.8833 141.381 65.9047 142.706 66.892C144.03 67.8792 145.344 68.8725 146.701 69.8177C146.999 70.0292 147.366 70.1187 147.728 70.0679C148.09 70.0171 148.419 69.8298 148.647 69.5445C148.875 69.2591 148.985 68.8973 148.955 68.5332C148.925 68.1691 148.757 67.8303 148.485 67.5863C147.265 66.4706 146.013 65.397 144.75 64.3335C143.488 63.2699 142.214 62.2224 140.938 61.187C139.662 60.1516 138.355 59.1342 137.041 58.1389L135.056 56.66C134.384 56.1804 133.718 55.6928 133.032 55.2292C132.733 55.0266 132.369 54.9439 132.013 54.9978C131.656 55.0516 131.333 55.238 131.107 55.5198C130.882 55.8015 130.772 56.1579 130.798 56.5177C130.824 56.8774 130.984 57.2142 131.248 57.4606C131.842 58.0325 132.466 58.5723 133.082 59.1242Z" fill="black"/>
<path d="M286.947 388.39C285.795 388.285 284.643 388.215 283.493 388.167C282.626 388.128 281.805 387.76 281.2 387.137C280.594 386.515 280.249 385.684 280.235 384.816C280.226 384.381 280.216 383.946 280.202 383.512C280.15 381.409 280.086 379.298 279.954 377.201C279.942 377.01 279.892 376.824 279.807 376.653C279.722 376.482 279.604 376.33 279.459 376.206C279.315 376.081 279.147 375.987 278.965 375.928C278.784 375.87 278.593 375.848 278.402 375.864C278.053 375.904 277.729 376.067 277.489 376.325C277.249 376.583 277.109 376.917 277.094 377.269C276.964 379.35 276.893 381.433 276.849 383.514C276.837 383.948 276.827 384.383 276.817 384.818C276.803 385.689 276.455 386.521 275.847 387.144C275.238 387.767 274.415 388.134 273.544 388.169C272.378 388.217 271.213 388.292 270.047 388.398C269.672 388.433 269.325 388.613 269.082 388.901C268.839 389.189 268.719 389.561 268.748 389.937C268.783 390.282 268.938 390.603 269.186 390.845C269.434 391.087 269.76 391.233 270.105 391.259C271.255 391.364 272.405 391.436 273.554 391.484C274.421 391.523 275.24 391.89 275.845 392.511C276.451 393.132 276.797 393.96 276.813 394.827C276.821 395.261 276.831 395.693 276.843 396.126L276.936 399.282C276.992 400.334 277.024 401.385 277.1 402.439C277.114 402.627 277.165 402.811 277.25 402.98C277.335 403.149 277.453 403.299 277.596 403.422C277.739 403.545 277.906 403.639 278.086 403.697C278.265 403.756 278.455 403.778 278.643 403.763C278.991 403.727 279.314 403.568 279.555 403.316C279.796 403.063 279.94 402.733 279.96 402.384C280.034 401.351 280.064 400.318 280.12 399.284L280.212 396.128C280.224 395.694 280.235 395.26 280.243 394.825C280.256 393.954 280.603 393.121 281.212 392.497C281.82 391.873 282.645 391.505 283.515 391.47C284.679 391.422 285.843 391.35 287.007 391.243C287.382 391.209 287.729 391.028 287.973 390.74C288.216 390.452 288.336 390.08 288.307 389.704C288.271 389.36 288.114 389.04 287.866 388.8C287.617 388.56 287.292 388.415 286.947 388.39V388.39Z" fill="black"/>
<path d="M472.287 337.85C470.982 337.778 469.678 337.748 468.374 337.693L464.397 337.601C463.46 337.581 462.518 337.568 461.569 337.561C460.668 337.553 459.807 337.191 459.171 336.552C458.536 335.914 458.178 335.051 458.174 334.15C458.174 331.91 458.152 329.671 458.118 327.431C458.066 323.482 458.001 319.535 457.869 315.592C457.862 315.397 457.815 315.206 457.732 315.03C457.648 314.854 457.529 314.697 457.383 314.568C457.237 314.44 457.066 314.342 456.881 314.282C456.695 314.221 456.5 314.2 456.306 314.217C455.95 314.263 455.624 314.435 455.385 314.702C455.147 314.97 455.014 315.314 455.009 315.672C454.879 319.593 454.809 323.516 454.765 327.437C454.73 329.677 454.718 331.916 454.708 334.156C454.705 335.057 454.346 335.92 453.71 336.559C453.074 337.197 452.212 337.56 451.311 337.567C450.375 337.576 449.432 337.589 448.484 337.605L444.506 337.698C443.18 337.752 441.856 337.784 440.529 337.86C440.338 337.871 440.151 337.92 439.979 338.004C439.808 338.089 439.654 338.207 439.529 338.351C439.404 338.496 439.309 338.664 439.249 338.846C439.19 339.028 439.168 339.221 439.185 339.411C439.224 339.761 439.387 340.085 439.645 340.325C439.903 340.565 440.238 340.705 440.589 340.72C441.894 340.792 443.198 340.824 444.502 340.878L448.48 340.97C449.416 340.989 450.358 341.002 451.305 341.009C452.206 341.016 453.067 341.379 453.703 342.017C454.338 342.656 454.697 343.519 454.7 344.42C454.71 346.658 454.726 348.895 454.75 351.132L454.843 357.054C454.899 359.028 454.931 361.003 455.007 362.976C455.015 363.169 455.062 363.36 455.146 363.535C455.23 363.71 455.348 363.866 455.494 363.994C455.64 364.122 455.81 364.219 455.994 364.279C456.179 364.339 456.373 364.361 456.567 364.344C456.921 364.3 457.247 364.129 457.485 363.864C457.724 363.598 457.858 363.256 457.865 362.899C457.939 360.951 457.971 359.002 458.025 357.054L458.118 351.132C458.143 348.894 458.16 346.656 458.168 344.418C458.172 343.517 458.53 342.654 459.165 342.015C459.801 341.377 460.662 341.014 461.563 341.006C462.5 340.997 463.441 340.984 464.389 340.966L468.366 340.874C469.692 340.82 471.017 340.788 472.343 340.714C472.534 340.703 472.721 340.654 472.893 340.57C473.065 340.485 473.219 340.368 473.344 340.223C473.47 340.078 473.565 339.91 473.625 339.728C473.684 339.545 473.706 339.353 473.689 339.162C473.651 338.812 473.488 338.487 473.231 338.247C472.974 338.006 472.639 337.865 472.287 337.85V337.85Z" fill="black"/>
<path d="M33.85 87.1531C35.1263 87.2254 36.4045 87.2575 37.6808 87.3117L41.5737 87.404C42.4606 87.424 43.3482 87.4388 44.2365 87.4481C45.1366 87.4571 45.9971 87.82 46.6317 88.4584C47.2663 89.0968 47.6241 89.9593 47.6278 90.8595C47.6372 93.0119 47.6532 95.1644 47.676 97.3169L47.7683 103.114C47.8244 105.047 47.8566 106.979 47.9328 108.911C47.941 109.105 47.9884 109.295 48.0721 109.47C48.1558 109.645 48.2742 109.801 48.4199 109.928C48.5657 110.056 48.7358 110.153 48.9201 110.213C49.1044 110.273 49.2989 110.295 49.492 110.278C49.8464 110.234 50.173 110.064 50.4119 109.798C50.6507 109.533 50.7858 109.19 50.7923 108.833C50.8665 106.927 50.8987 105.02 50.9528 103.114L51.0451 97.3169C51.0706 95.1644 51.0866 93.0113 51.0933 90.8574C51.0969 89.9576 51.4545 89.0954 52.0887 88.4571C52.7229 87.8187 53.5828 87.4556 54.4826 87.4461C55.3695 87.4354 56.2571 87.4207 57.1454 87.402L61.0383 87.3097C62.3367 87.2555 63.633 87.2234 64.9313 87.1491C65.1224 87.1383 65.3093 87.0892 65.4811 87.0048C65.6529 86.9204 65.8061 86.8024 65.9314 86.6578C66.0568 86.5131 66.1518 86.3448 66.211 86.1628C66.2701 85.9807 66.2922 85.7887 66.2757 85.598C66.2363 85.2481 66.073 84.924 65.8154 84.684C65.5578 84.4441 65.2228 84.3042 64.8711 84.2896C63.5948 84.2194 62.3186 84.1873 61.0403 84.1331L57.1474 84.0408C56.2591 84.0207 55.3708 84.006 54.4826 83.9967C53.5824 83.9877 52.722 83.6248 52.0874 82.9864C51.4528 82.348 51.0949 81.4855 51.0913 80.5853C51.0913 78.4302 51.0692 76.277 51.0371 74.1219C50.9849 70.257 50.9207 66.3922 50.7883 62.5294C50.7812 62.3348 50.7345 62.1438 50.6511 61.9679C50.5677 61.792 50.4494 61.635 50.3033 61.5063C50.1572 61.3777 49.9864 61.2802 49.8014 61.2198C49.6164 61.1593 49.421 61.1372 49.2271 61.1548C48.8723 61.2002 48.5458 61.3722 48.3076 61.6391C48.0694 61.906 47.9356 62.2499 47.9308 62.6076C47.8004 66.4464 47.7301 70.2831 47.686 74.1219C47.6539 76.275 47.6398 78.4302 47.6318 80.5833C47.6282 81.4835 47.2703 82.346 46.6357 82.9844C46.0011 83.6228 45.1407 83.9857 44.2405 83.9946C43.3523 84.004 42.4646 84.0187 41.5777 84.0388L37.6848 84.1311C36.3864 84.1853 35.0901 84.2174 33.7918 84.2936C33.6009 84.3047 33.4141 84.354 33.2426 84.4385C33.071 84.523 32.9181 84.6411 32.793 84.7857C32.6678 84.9303 32.573 85.0985 32.5139 85.2804C32.4549 85.4623 32.433 85.6542 32.4494 85.8448C32.4887 86.194 32.6514 86.5176 32.9082 86.7575C33.165 86.9974 33.499 87.1377 33.85 87.1531V87.1531Z" fill="black"/>
<path d="M377.961 32.5316C378.951 32.6038 379.94 32.6359 380.929 32.6901L383.949 32.7824L384.91 32.8065C385.804 32.8248 386.655 33.1918 387.282 33.8292C387.909 34.4666 388.262 35.3238 388.266 36.2178C388.275 37.5141 388.289 38.8098 388.308 40.1047L388.4 44.6017C388.456 46.1006 388.488 47.5996 388.565 49.0986C388.575 49.2906 388.624 49.4785 388.708 49.6513C388.792 49.824 388.911 49.978 389.056 50.1042C389.201 50.2303 389.37 50.3261 389.552 50.3857C389.735 50.4453 389.928 50.4675 390.12 50.4511C390.471 50.4086 390.796 50.2416 391.036 49.9802C391.275 49.7189 391.413 49.3805 391.424 49.0264C391.498 47.5515 391.53 46.0766 391.585 44.6117L391.677 40.1148C391.697 38.8185 391.711 37.5222 391.719 36.2258C391.722 35.3322 392.075 34.4753 392.701 33.8379C393.328 33.2006 394.179 32.8334 395.072 32.8145L396.033 32.7904L399.053 32.6981C400.057 32.6439 401.06 32.6118 402.073 32.5376C402.262 32.5236 402.446 32.4726 402.614 32.3874C402.783 32.3022 402.933 32.1845 403.056 32.0411C403.178 31.8976 403.272 31.7314 403.33 31.5517C403.389 31.3721 403.411 31.1827 403.396 30.9945C403.36 30.6474 403.202 30.3245 402.949 30.0834C402.697 29.8423 402.368 29.6986 402.019 29.6781C401.03 29.6079 400.041 29.5758 399.051 29.5216L396.031 29.4293L395.066 29.4052C394.174 29.3869 393.324 29.0208 392.698 28.3851C392.072 27.7493 391.72 26.8941 391.715 26.0019C391.715 24.7036 391.693 23.4053 391.667 22.1049C391.615 19.107 391.55 16.109 391.418 13.1091C391.409 12.9162 391.361 12.7272 391.277 12.5534C391.193 12.3796 391.074 12.2245 390.929 12.0975C390.783 11.9704 390.614 11.8741 390.43 11.8141C390.247 11.7541 390.053 11.7318 389.861 11.7485C389.508 11.7927 389.182 11.9623 388.943 12.2263C388.705 12.4904 388.569 12.8315 388.561 13.1873C388.43 16.1592 388.36 19.1331 388.316 22.1049C388.29 23.4033 388.278 24.7016 388.268 25.9999C388.261 26.8911 387.907 27.7445 387.281 28.3786C386.654 29.0127 385.805 29.3774 384.914 29.3952L383.951 29.4192L380.931 29.5115C379.928 29.5657 378.924 29.5978 377.911 29.6741C377.723 29.688 377.539 29.7391 377.37 29.8243C377.202 29.9095 377.052 30.0272 376.929 30.1706C376.806 30.314 376.713 30.4803 376.654 30.6599C376.596 30.8395 376.574 31.0289 376.589 31.2172C376.625 31.5632 376.783 31.8852 377.034 32.1258C377.285 32.3665 377.614 32.5102 377.961 32.5316V32.5316Z" fill="black"/>
<path d="M193.597 20.7585C194.957 20.8729 196.32 20.9491 197.68 20.9973C198.553 21.0321 199.379 21.4003 199.988 22.026C200.597 22.6517 200.944 23.4872 200.955 24.3604C200.965 24.9504 200.976 25.5404 200.989 26.1303L201.082 29.5417C201.138 30.6754 201.17 31.8092 201.246 32.953C201.259 33.1424 201.309 33.3274 201.395 33.4971C201.48 33.6669 201.597 33.818 201.741 33.9418C201.885 34.0656 202.052 34.1596 202.233 34.2182C202.414 34.2768 202.604 34.299 202.793 34.2834C203.141 34.2457 203.465 34.0852 203.705 33.8308C203.946 33.5763 204.088 33.2445 204.106 32.8948C204.18 31.7811 204.21 30.6654 204.266 29.5517L204.358 26.1404C204.373 25.5491 204.385 24.9578 204.393 24.3665C204.4 23.4891 204.745 22.6482 205.356 22.0185C205.967 21.3888 206.797 21.0188 207.673 20.9852C209.05 20.9371 210.429 20.8608 211.805 20.7444C212.183 20.7122 212.532 20.5319 212.778 20.2427C213.023 19.9536 213.144 19.5792 213.114 19.2013C213.077 18.8555 212.92 18.5336 212.67 18.2923C212.419 18.0511 212.092 17.9061 211.745 17.8829C210.382 17.7686 209.02 17.6943 207.659 17.6461C206.783 17.6121 205.953 17.2419 205.343 16.6122C204.732 15.9826 204.388 15.142 204.381 14.2649C204.371 13.6803 204.358 13.0957 204.342 12.5111C204.29 10.2436 204.226 7.97604 204.094 5.70851C204.083 5.5174 204.033 5.33046 203.949 5.15876C203.864 4.98706 203.746 4.83408 203.601 4.7089C203.456 4.58372 203.288 4.48887 203.105 4.42998C202.923 4.37109 202.731 4.34935 202.54 4.36605C202.191 4.40634 201.868 4.56994 201.628 4.82743C201.389 5.08492 201.249 5.4194 201.234 5.77071C201.104 8.01617 201.033 10.2616 200.989 12.5051C200.973 13.0897 200.961 13.6736 200.951 14.2569C200.94 15.1347 200.593 15.9748 199.981 16.6037C199.368 17.2326 198.537 17.6022 197.66 17.6361C196.282 17.6843 194.903 17.7605 193.524 17.8789C193.148 17.9116 192.799 18.0919 192.554 18.3806C192.309 18.6692 192.189 19.0428 192.218 19.42C192.25 19.7711 192.407 20.099 192.66 20.3445C192.912 20.5901 193.245 20.7369 193.597 20.7585V20.7585Z" fill="black"/>
<path d="M180.656 296.679C179.666 296.609 178.677 296.577 177.688 296.523L174.668 296.43L173.703 296.406C172.812 296.389 171.963 296.024 171.336 295.39C170.71 294.756 170.356 293.902 170.349 293.011C170.349 291.713 170.327 290.414 170.301 289.114C170.249 286.116 170.185 283.118 170.052 280.118C170.043 279.925 169.995 279.736 169.911 279.562C169.827 279.389 169.709 279.234 169.563 279.107C169.418 278.979 169.248 278.883 169.065 278.823C168.881 278.763 168.688 278.741 168.495 278.758C168.142 278.802 167.817 278.971 167.578 279.235C167.339 279.499 167.203 279.841 167.195 280.196C167.065 283.168 166.994 286.142 166.95 289.114C166.924 290.412 166.912 291.711 166.902 293.009C166.895 293.9 166.541 294.754 165.915 295.388C165.289 296.022 164.44 296.387 163.549 296.404L162.586 296.428L159.566 296.521C158.562 296.575 157.559 296.607 156.546 296.683C156.357 296.697 156.174 296.748 156.005 296.833C155.836 296.919 155.686 297.036 155.564 297.18C155.441 297.323 155.347 297.489 155.289 297.669C155.23 297.849 155.208 298.038 155.223 298.226C155.259 298.573 155.417 298.896 155.669 299.137C155.921 299.378 156.25 299.522 156.598 299.543C157.587 299.615 158.576 299.647 159.566 299.701L162.586 299.794L163.547 299.818C164.441 299.836 165.292 300.203 165.919 300.84C166.546 301.478 166.899 302.335 166.902 303.229C166.911 304.525 166.925 305.821 166.944 307.116L167.036 311.613C167.093 313.112 167.125 314.611 167.201 316.11C167.211 316.302 167.26 316.49 167.345 316.662C167.429 316.835 167.547 316.989 167.692 317.115C167.837 317.242 168.006 317.337 168.189 317.397C168.372 317.456 168.565 317.479 168.756 317.462C169.108 317.42 169.433 317.253 169.672 316.991C169.911 316.73 170.049 316.392 170.061 316.038C170.135 314.563 170.167 313.088 170.221 311.623L170.313 307.126C170.333 305.83 170.347 304.533 170.356 303.237C170.359 302.343 170.712 301.486 171.338 300.849C171.964 300.212 172.815 299.844 173.709 299.826L174.67 299.802L177.69 299.709C178.693 299.655 179.697 299.623 180.71 299.549C180.898 299.535 181.082 299.484 181.251 299.398C181.419 299.313 181.569 299.196 181.692 299.052C181.815 298.909 181.908 298.742 181.967 298.563C182.025 298.383 182.047 298.194 182.032 298.006C181.998 297.657 181.841 297.331 181.589 297.088C181.336 296.845 181.006 296.7 180.656 296.679V296.679Z" fill="black"/>
<path d="M511.17 239.764C514.331 239.764 516.893 237.202 516.893 234.041C516.893 230.88 514.331 228.318 511.17 228.318C508.009 228.318 505.447 230.88 505.447 234.041C505.447 237.202 508.009 239.764 511.17 239.764Z" fill="black"/>
<path d="M157.585 114.833C160.746 114.833 163.308 112.271 163.308 109.11C163.308 105.949 160.746 103.387 157.585 103.387C154.424 103.387 151.862 105.949 151.862 109.11C151.862 112.271 154.424 114.833 157.585 114.833Z" fill="black"/>
<path d="M16.8716 332.007C20.0323 332.007 22.5946 329.444 22.5946 326.284C22.5946 323.123 20.0323 320.561 16.8716 320.561C13.7108 320.561 11.1486 323.123 11.1486 326.284C11.1486 329.444 13.7108 332.007 16.8716 332.007Z" fill="black"/>
<path d="M195.417 267.323C198.577 267.323 201.14 264.761 201.14 261.6C201.14 258.44 198.577 255.877 195.417 255.877C192.256 255.877 189.694 258.44 189.694 261.6C189.694 264.761 192.256 267.323 195.417 267.323Z" fill="black"/>
<path d="M445.351 22.7954C448.512 22.7954 451.074 20.2331 451.074 17.0724C451.074 13.9117 448.512 11.3494 445.351 11.3494C442.191 11.3494 439.628 13.9117 439.628 17.0724C439.628 20.2331 442.191 22.7954 445.351 22.7954Z" fill="black"/>
<path d="M77.3666 20.6643C80.5273 20.6643 83.0896 18.102 83.0896 14.9413C83.0896 11.7805 80.5273 9.21826 77.3666 9.21826C74.2059 9.21826 71.6436 11.7805 71.6436 14.9413C71.6436 18.102 74.2059 20.6643 77.3666 20.6643Z" fill="black"/>
<path d="M9.75194 137.675C12.9127 137.675 15.4749 135.113 15.4749 131.952C15.4749 128.791 12.9127 126.229 9.75194 126.229C6.59121 126.229 4.02893 128.791 4.02893 131.952C4.02893 135.113 6.59121 137.675 9.75194 137.675Z" fill="black"/>
</svg>
