<svg width="20" height="20" viewBox="0 0 20 20" fill="none" xmlns="http://www.w3.org/2000/svg">
<path d="M17.92 17.8004V11.9404C17.92 9.06035 17.3 6.86035 13.94 6.86035C12.32 6.86035 11.24 7.74035 10.8 8.58035H10.76V7.12035H7.57999V17.8004H10.9V12.5004C10.9 11.1004 11.16 9.76035 12.88 9.76035C14.58 9.76035 14.6 11.3404 14.6 12.5804V17.7804H17.92V17.8004Z" fill="white"/>
<path d="M2.25999 7.12012H5.57999V17.8001H2.25999V7.12012Z" fill="white"/>
<path d="M3.91998 2C2.85998 2 1.99998 2.86 1.99998 3.92C1.99998 4.98 2.85998 5.86 3.91998 5.86C4.97998 5.86 5.83998 4.98 5.83998 3.92C5.83998 2.86 4.97998 2 3.91998 2V2Z" fill="white"/>
</svg>
